{
.appVersion = "1264";
DisplayStrings = (
"Wd Wi Wm Wr Wt WTFGrumpyAu WThnTnhFy W. W, W; W:",
"/Er-cy/a-cy/ze-cy/hardsign-cy/ia-cy/er-cy/ie-cy/en-cy/en-cy/yeru-cy/iishort-cy  /che-cy/te-cy/ie-cy/tse-cy  /ereversed-cy/ge-cy/o-cy/ii-cy/es-cy/te-cy/ii-cy/che-cy/en-cy/o-cy  /be-cy/softsign-cy/io-cy/te-cy  /pe-cy/ia-cy/te-cy/softsign-cy/iu-cy  /zhe-cy/ie-cy/er-cy/de-cy/ia-cy/em-cy/ii-cy  /sha-cy/u-cy/es-cy/te-cy/er-cy/o-cy/ge-cy/o-cy  /ef-cy/ie-cy/ha-cy/te-cy/o-cy/ve-cy/a-cy/el-cy/softsign-cy/shcha-cy/ii-cy/ka-cy/a-cy .\012/En-cy/a-cy/sha-cy  /be-cy/a-cy/en-cy/ka-cy  /ve-cy/che-cy/ie-cy/er-cy/a-cy  /zhe-cy/ie-cy  /ve-cy/yeru-cy/pe-cy/el-cy/a-cy/te-cy/ii-cy/el-cy  /Ef-cy ./Ia-cy . /Ereversed-cy/iishort-cy/ha-cy/ge-cy/o-cy/el-cy/softsign-cy/de-cy/u-cy  /ka-cy/o-cy/em-cy/ii-cy/es-cy/es-cy/ii-cy/iu-cy  /ze-cy/a-cy  /tse-cy e/ie-cy/en-cy/en-cy/yeru-cy/ie-cy  /ve-cy/ie-cy/shcha-cy/ii-cy .",
"/fi",
a,
L,
"E/Ie-cy",
"/dieresiscomb/Io-cy",
"/De-coy",
"/Zhe-cy",
"/dieresiscomb/Io-cy",
"/dieresiscomb/Io-cy",
"N/Ii-cy",
"H/En-cy",
"/breve/brevecomb/brevecomb-cy/Iishort-cy",
"/brevecomb-cy/Iishort-cy",
"d/dotbelowcomb d/ddotbelow",
"3",
"3/Ze-cy",
"3/Ze-cy",
"/Ka-cy",
"AM/El-cy",
N,
R,
"U/Ubreve",
"M/El-cy",
"/Pe-cy",
"/A-cy",
"/U-cy",
"/Ef-cy",
"/Es-cy",
"/Be-cy",
"/Be-cy/Softsign-cy",
"/f_f_i",
"/fl",
"/longs_t",
"y/yhookabove",
"u/umacron",
"2",
"",
"/four.numr",
"³",
"1",
"/f_f",
"U/Uhorn",
"/Che-cy",
"L/Ge-cy",
"H/Tse-cy",
"/dotaccentcomb p/pdotaccent",
"/Shcha-cy",
"/Hardsign-cy",
"/Be-cy/Yeru-cy",
"/Yeru-cy",
"/Ereversed-cy",
"/Iu-cy",
"/R.ss02/Ia-cy",
"b/be-cy a",
"/ve-cy",
"/a-cy",
"/Ge-cy",
"/ge-cy",
"/de-cy",
"/iishort-cy",
"/ii-cy",
"/zhe-cy",
"/ze-cy",
"/ka-cy",
"/el-cy",
"/Em-cy",
"/em-cy",
"/en-cy",
"/pe-cy",
"/te-cy",
"/ef-cy",
"/che-cy",
"/shcha-cy",
"/shcha-cy",
"/sha-cy",
"/softsign-cy",
"/hardsign-cy",
"/yeru-cy",
"p/er-cy",
"/a-cy/be-cy",
"/Ze-cy",
"/iu-cy",
"/R.ss02/Ia-cy",
"/ia-cy",
"÷",
"/De-cy",
"/Shcha-cy",
"/El-cy",
"/be-cy",
"/Io-cy",
e,
M,
"/Be-cy",

glyphs = (
{
glyphname = A;
lastChange = "2019-09-06 17:32:29 +0000";
layers = (
{
anchors = (
{
name = bottom;
position = "{414, 0}";
},
{
name = ogonek;
position = "{719, 0}";
},
{
name = top;
position = "{414, 686}";
}
);
layerId = "873CAA12-270D-4223-A88E-AE8E101FDBE8";
paths = (
{
closed = 1;
nodes = (
"143 -13 OFFCURVE",
"177 6 OFFCURVE",
"191 41 CURVE SMOOTH",
"266 227 LINE",
"561 227 LINE",
"656 0 LINE",
"720 0 LINE",
"423 693 LINE",
"404 693 LINE",
"138 66 LINE SMOOTH",
"133 54 OFFCURVE",
"124 46 OFFCURVE",
"109 46 CURVE SMOOTH",
"91 46 OFFCURVE",
"79 58 OFFCURVE",
"75 73 CURVE",
"18 62 LINE",
"26 18 OFFCURVE",
"66 -13 OFFCURVE",
"109 -13 CURVE SMOOTH"
);
},
{
closed = 1;
nodes = (
"403 552 LINE",
"413 592 LINE",
"424 552 LINE",
"537 284 LINE",
"290 284 LINE"
);
}
);
width = 744;
},
{
anchors = (
{
name = bottom;
position = "{416, 11}";
},
{
name = ogonek;
position = "{712, 11}";
},
{
name = top;
position = "{416, 684}";
}
);
layerId = "0CAF3BED-C4AC-4024-B3E1-4C69D1EF7EC0";
paths = (
{
closed = 1;
nodes = (
"155 -9 OFFCURVE",
"193 13 OFFCURVE",
"209 50 CURVE SMOOTH",
"280 220 LINE",
"551 220 LINE",
"643 -1 LINE",
"730 -1 LINE",
"432 688 LINE",
"398 688 LINE",
"136 83 LINE SMOOTH",
"132 74 OFFCURVE",
"129 71 OFFCURVE",
"119 71 CURVE SMOOTH",
"103 71 OFFCURVE",
"97 82 OFFCURVE",
"95 99 CURVE",
"18 84 LINE",
"20 32 OFFCURVE",
"69 -9 OFFCURVE",
"119 -9 CURVE SMOOTH"
);
},
{
closed = 1;
nodes = (
"426 563 LINE",
"405 560 LINE",
"517 294 LINE",
"310 291 LINE"
);
}
);
width = 754;
},
{
anchors = (
{
name = bottom;
position = "{398, -6}";
},
{
name = ogonek;
position = "{699, 1}";
},
{
name = top;
position = "{398, 694}";
}
);
layerId = "49C16FD3-6177-408B-A733-AEB3898BB77C";
paths = (
{
closed = 1;
nodes = (
"121 -9 OFFCURVE",
"151 8 OFFCURVE",
"165 42 CURVE SMOOTH",
"242 233 LINE",
"553 233 LINE",
"650 1 LINE",
"699 1 LINE",
"403 692 LINE",
"393 692 LINE",
"124 62 LINE",
"119 48 OFFCURVE",
"106 37 OFFCURVE",
"88 37 CURVE SMOOTH",
"69 37 OFFCURVE",
"55 49 OFFCURVE",
"49 63 CURVE",
"4 55 LINE",
"14 16 OFFCURVE",
"49 -9 OFFCURVE",
"88 -9 CURVE SMOOTH"
);
},
{
closed = 1;
nodes = (
"380 560 LINE",
"380 559 LINE",
"397 619 LINE",
"415 559 LINE",
"415 560 LINE",
"534 277 LINE",
"261 277 LINE"
);
}
);
width = 709;
}
);
leftKerningGroup = A;
rightKerningGroup = A;
unicode = 0041;
userData = {
position = 666;
width = 20;
};
},
{
glyphname = A.ss02;
lastChange = "2019-09-06 17:32:29 +0000";
layers = (
{
anchors = (
{
name = ogonek;
position = "{639, 0}";
},
{
name = top;
position = "{321, 703}";
}
);
layerId = "873CAA12-270D-4223-A88E-AE8E101FDBE8";
paths = (
{
closed = 1;
nodes = (
"88 0 LINE",
"183 227 LINE",
"478 227 LINE",
"575 0 LINE",
"639 0 LINE",
"340 703 LINE",
"321 703 LINE",
"24 0 LINE"
);
},
{
closed = 1;
nodes = (
"306 517 LINE SMOOTH",
"316 541 OFFCURVE",
"325 573 OFFCURVE",
"330 595 CURVE",
"335 574 OFFCURVE",
"344 542 OFFCURVE",
"355 517 CURVE SMOOTH",
"454 284 LINE",
"207 284 LINE"
);
}
);
width = 663;
},
{
anchors = (
{
name = ogonek;
position = "{655, -1}";
},
{
name = top;
position = "{343, 701}";
}
);
layerId = "0CAF3BED-C4AC-4024-B3E1-4C69D1EF7EC0";
paths = (
{
closed = 1;
nodes = (
"111 -1 LINE",
"203 220 LINE",
"474 220 LINE",
"568 -1 LINE",
"655 -1 LINE",
"355 705 LINE",
"322 705 LINE",
"24 -1 LINE"
);
},
{
closed = 1;
nodes = (
"325 508 LINE SMOOTH",
"330 519 OFFCURVE",
"334 552 OFFCURVE",
"338 564 CURVE",
"342 552 OFFCURVE",
"347 519 OFFCURVE",
"352 508 CURVE SMOOTH",
"441 298 LINE",
"236 298 LINE"
);
}
);
width = 679;
},
{
anchors = (
{
name = bottom;
position = "{314, 0}";
},
{
name = ogonek;
position = "{617, 1}";
},
{
name = top;
position = "{318, 704}";
}
);
layerId = "49C16FD3-6177-408B-A733-AEB3898BB77C";
paths = (
{
closed = 1;
nodes = (
"61 1 LINE",
"158 233 LINE",
"468 233 LINE",
"567 1 LINE",
"617 1 LINE",
"318 704 LINE",
"308 704 LINE",
"11 1 LINE"
);
},
{
closed = 1;
nodes = (
"281 524 LINE SMOOTH",
"295 558 OFFCURVE",
"307 607 OFFCURVE",
"312 623 CURVE",
"317 608 OFFCURVE",
"329 559 OFFCURVE",
"344 524 CURVE SMOOTH",
"450 277 LINE",
"176 277 LINE"
);
}
);
width = 627;
}
);
leftKerningGroup = A;
rightKerningGroup = A;
rightMetricsKey = A;
userData = {
position = 10;
width = 615;
};
},
{
glyphname = AE;
lastChange = "2019-09-06 17:32:29 +0000";
layers = (
{
anchors = (
{
name = top;
position = "{465, 682}";
}
);
layerId = "873CAA12-270D-4223-A88E-AE8E101FDBE8";
rightMetricsKey = "=E";
paths = (
{
closed = 1;
nodes = (
"95 0 LINE",
"212 227 LINE",
"404 227 LINE",
"404 0 LINE",
"872 0 LINE",
"872 57 LINE",
"465 57 LINE",
"465 333 LINE",
"782 333 LINE",
"782 390 LINE",
"465 390 LINE",
"465 627 LINE",
"852 627 LINE",
"852 684 LINE",
"381 684 LINE",
"22 0 LINE"
);
},
{
closed = 1;
nodes = (
"393 587 LINE",
"404 623 LINE",
"404 284 LINE",
"239 284 LINE"
);
}
);
width = 909;
},
{
anchors = (
{
name = top;
position = "{471, 673}";
}
);
layerId = "0CAF3BED-C4AC-4024-B3E1-4C69D1EF7EC0";
paths = (
{
closed = 1;
nodes = (
"119 -1 LINE",
"233 220 LINE",
"400 220 LINE",
"400 -1 LINE",
"878 -1 LINE",
"878 78 LINE",
"483 78 LINE",
"483 322 LINE",
"790 322 LINE",
"790 401 LINE",
"483 401 LINE",
"483 608 LINE",
"858 608 LINE",
"858 686 LINE",
"383 686 LINE",
"22 -1 LINE"
);
},
{
closed = 1;
nodes = (
"412 576 LINE",
"400 538 LINE",
"400 298 LINE",
"271 298 LINE"
);
}
);
width = 919;
},
{
anchors = (
{
name = top;
position = "{448, 690}";
}
);
layerId = "49C16FD3-6177-408B-A733-AEB3898BB77C";
paths = (
{
closed = 1;
nodes = (
"66 1 LINE",
"186 233 LINE",
"393 233 LINE",
"393 1 LINE",
"856 1 LINE",
"856 45 LINE",
"441 45 LINE",
"441 341 LINE",
"764 341 LINE",
"764 385 LINE",
"441 385 LINE",
"441 641 LINE",
"836 641 LINE",
"836 685 LINE",
"367 685 LINE",
"8 1 LINE"
);
},
{
closed = 1;
nodes = (
"368 595 LINE",
"393 677 LINE",
"393 277 LINE",
"206 277 LINE"
);
}
);
width = 879;
}
);
leftKerningGroup = A;
rightMetricsKey = E;
unicode = 00C6;
userData = {
position = 422;
width = 61;
};
},
{
glyphname = B;
lastChange = "2019-09-06 17:32:29 +0000";
layers = (
{
layerId = "873CAA12-270D-4223-A88E-AE8E101FDBE8";
paths = (
{
closed = 1;
nodes = (
"471 -10 OFFCURVE",
"580 47 OFFCURVE",
"580 182 CURVE SMOOTH",
"580 262 OFFCURVE",
"542 322 OFFCURVE",
"475 358 CURVE",
"443 368 LINE",
"466 375 OFFCURVE",
"471 378 OFFCURVE",
"473 379 CURVE SMOOTH",
"519 403 OFFCURVE",
"549 452 OFFCURVE",
"549 515 CURVE SMOOTH",
"549 622 OFFCURVE",
"463 695 OFFCURVE",
"347 695 CURVE SMOOTH",
"125 695 LINE SMOOTH",
"96 695 OFFCURVE",
"72 683 OFFCURVE",
"52 663 CURVE SMOOTH",
"33 644 OFFCURVE",
"22 619 OFFCURVE",
"22 590 CURVE",
"78 590 LINE",
"78 600 OFFCURVE",
"83 616 OFFCURVE",
"93 626 CURVE SMOOTH",
"102 635 OFFCURVE",
"115 639 OFFCURVE",
"146 639 CURVE",
"146 1 LINE",
"199 -5 LINE SMOOTH",
"240 -9 OFFCURVE",
"296 -10 OFFCURVE",
"316 -10 CURVE SMOOTH"
);
},
{
closed = 1;
nodes = (
"300 45 OFFCURVE",
"296 46 OFFCURVE",
"207 50 CURVE",
"207 639 LINE",
"361 639 LINE",
"436 635 OFFCURVE",
"489 595 OFFCURVE",
"489 515 CURVE SMOOTH",
"489 476 OFFCURVE",
"476 445 OFFCURVE",
"450 423 CURVE SMOOTH",
"425 402 OFFCURVE",
"388 390 OFFCURVE",
"346 390 CURVE SMOOTH",
"258 390 LINE",
"258 335 LINE",
"353 335 LINE SMOOTH",
"445 335 OFFCURVE",
"521 281 OFFCURVE",
"521 183 CURVE SMOOTH",
"521 81 OFFCURVE",
"440 45 OFFCURVE",
"320 45 CURVE SMOOTH"
);
}
);
width = 623;
},
{
layerId = "0CAF3BED-C4AC-4024-B3E1-4C69D1EF7EC0";
paths = (
{
closed = 1;
nodes = (
"473 -10 OFFCURVE",
"587 50 OFFCURVE",
"587 188 CURVE SMOOTH",
"587 269 OFFCURVE",
"547 333 OFFCURVE",
"478 369 CURVE",
"446 379 LINE",
"446 357 LINE",
"470 364 OFFCURVE",
"476 368 OFFCURVE",
"477 368 CURVE",
"525 393 OFFCURVE",
"557 446 OFFCURVE",
"557 511 CURVE SMOOTH",
"557 620 OFFCURVE",
"467 697 OFFCURVE",
"350 697 CURVE SMOOTH",
"134 697 LINE SMOOTH",
"104 697 OFFCURVE",
"76 683 OFFCURVE",
"55 662 CURVE SMOOTH",
"36 643 OFFCURVE",
"23 615 OFFCURVE",
"23 585 CURVE SMOOTH",
"23 580 OFFCURVE",
"24 576 OFFCURVE",
"24 572 CURVE",
"89 572 LINE",
"101 583 LINE",
"101 591 OFFCURVE",
"104 602 OFFCURVE",
"112 610 CURVE",
"117 616 OFFCURVE",
"124 618 OFFCURVE",
"143 619 CURVE",
"143 2 LINE",
"205 -5 LINE SMOOTH",
"245 -9 OFFCURVE",
"300 -10 OFFCURVE",
"320 -10 CURVE SMOOTH"
);
},
{
closed = 1;
nodes = (
"306 66 OFFCURVE",
"302 67 OFFCURVE",
"226 71 CURVE",
"226 619 LINE",
"363 619 LINE",
"430 616 OFFCURVE",
"476 580 OFFCURVE",
"476 511 CURVE SMOOTH",
"476 475 OFFCURVE",
"465 450 OFFCURVE",
"442 430 CURVE SMOOTH",
"420 411 OFFCURVE",
"388 401 OFFCURVE",
"349 401 CURVE SMOOTH",
"252 401 LINE",
"252 324 LINE",
"356 324 LINE SMOOTH",
"439 324 OFFCURVE",
"507 276 OFFCURVE",
"507 189 CURVE SMOOTH",
"507 99 OFFCURVE",
"436 66 OFFCURVE",
"324 66 CURVE SMOOTH"
);
}
);
width = 631;
},
{
layerId = "49C16FD3-6177-408B-A733-AEB3898BB77C";
paths = (
{
closed = 1;
nodes = (
"456 -9 OFFCURVE",
"561 46 OFFCURVE",
"561 180 CURVE SMOOTH",
"561 259 OFFCURVE",
"525 317 OFFCURVE",
"459 353 CURVE",
"404 370 LINE",
"447 381 OFFCURVE",
"453 385 OFFCURVE",
"456 387 CURVE",
"501 410 OFFCURVE",
"530 457 OFFCURVE",
"530 519 CURVE SMOOTH",
"530 625 OFFCURVE",
"446 696 OFFCURVE",
"331 696 CURVE SMOOTH",
"104 696 LINE SMOOTH",
"76 696 OFFCURVE",
"55 685 OFFCURVE",
"35 665 CURVE SMOOTH",
"18 648 OFFCURVE",
"8 628 OFFCURVE",
"7 603 CURVE",
"50 603 LINE",
"52 614 OFFCURVE",
"57 628 OFFCURVE",
"67 638 CURVE SMOOTH",
"78 649 OFFCURVE",
"95 654 OFFCURVE",
"133 653 CURVE",
"133 1 LINE",
"181 -4 LINE SMOOTH",
"222 -8 OFFCURVE",
"279 -9 OFFCURVE",
"299 -9 CURVE SMOOTH"
);
},
{
closed = 1;
nodes = (
"281 33 OFFCURVE",
"278 34 OFFCURVE",
"181 38 CURVE",
"181 653 LINE",
"345 653 LINE",
"424 649 OFFCURVE",
"483 604 OFFCURVE",
"483 519 CURVE SMOOTH",
"483 478 OFFCURVE",
"468 444 OFFCURVE",
"440 420 CURVE SMOOTH",
"414 398 OFFCURVE",
"374 385 OFFCURVE",
"330 385 CURVE SMOOTH",
"247 385 LINE",
"247 343 LINE",
"337 343 LINE SMOOTH",
"433 343 OFFCURVE",
"515 284 OFFCURVE",
"515 181 CURVE SMOOTH",
"515 72 OFFCURVE",
"427 33 OFFCURVE",
"303 33 CURVE SMOOTH"
);
}
);
width = 599;
}
);
leftKerningGroup = E;
rightKerningGroup = B;
unicode = 0042;
userData = {
position = 514;
width = 59;
};
},
{
glyphname = B.ss01;
lastChange = "2019-09-06 17:32:29 +0000";
layers = (
{
layerId = "873CAA12-270D-4223-A88E-AE8E101FDBE8";
paths = (
{
closed = 1;
nodes = (
"486 -10 OFFCURVE",
"585 48 OFFCURVE",
"585 181 CURVE SMOOTH",
"585 267 OFFCURVE",
"543 324 OFFCURVE",
"480 358 CURVE",
"477 360 OFFCURVE",
"471 362 OFFCURVE",
"448 368 CURVE",
"470 375 OFFCURVE",
"473 376 OFFCURVE",
"478 379 CURVE SMOOTH",
"526 407 OFFCURVE",
"554 453 OFFCURVE",
"554 514 CURVE SMOOTH",
"554 574 OFFCURVE",
"526 650 OFFCURVE",
"434 682 CURVE SMOOTH",
"408 691 OFFCURVE",
"381 695 OFFCURVE",
"352 695 CURVE SMOOTH",
"130 695 LINE SMOOTH",
"74 695 OFFCURVE",
"27 648 OFFCURVE",
"27 589 CURVE SMOOTH",
"27 552 OFFCURVE",
"45 519 OFFCURVE",
"77 500 CURVE",
"106 548 LINE",
"92 557 OFFCURVE",
"83 571 OFFCURVE",
"83 589 CURVE SMOOTH",
"83 617 OFFCURVE",
"106 639 OFFCURVE",
"132 639 CURVE SMOOTH",
"366 639 LINE",
"445 634 OFFCURVE",
"494 593 OFFCURVE",
"494 517 CURVE SMOOTH",
"494 432 OFFCURVE",
"433 390 OFFCURVE",
"351 390 CURVE SMOOTH",
"263 390 LINE",
"263 335 LINE",
"358 335 LINE SMOOTH",
"448 335 OFFCURVE",
"526 284 OFFCURVE",
"526 185 CURVE SMOOTH",
"526 89 OFFCURVE",
"454 45 OFFCURVE",
"328 45 CURVE SMOOTH",
"309 45 OFFCURVE",
"297 46 OFFCURVE",
"277 47 CURVE SMOOTH",
"212 50 LINE",
"212 592 LINE",
"151 592 LINE",
"151 1 LINE",
"204 -5 LINE SMOOTH",
"239 -7 OFFCURVE",
"268 -10 OFFCURVE",
"308 -10 CURVE SMOOTH"
);
}
);
width = 629;
},
{
layerId = "0CAF3BED-C4AC-4024-B3E1-4C69D1EF7EC0";
paths = (
{
closed = 1;
nodes = (
"497 -10 OFFCURVE",
"601 51 OFFCURVE",
"601 187 CURVE SMOOTH",
"601 267 OFFCURVE",
"563 331 OFFCURVE",
"494 368 CURVE SMOOTH",
"494 368 OFFCURVE",
"493 368 OFFCURVE",
"492 369 CURVE",
"541 397 OFFCURVE",
"571 447 OFFCURVE",
"571 510 CURVE SMOOTH",
"571 570 OFFCURVE",
"542 651 OFFCURVE",
"447 684 CURVE SMOOTH",
"421 693 OFFCURVE",
"393 697 OFFCURVE",
"364 697 CURVE SMOOTH",
"138 697 LINE SMOOTH",
"79 697 OFFCURVE",
"27 645 OFFCURVE",
"27 582 CURVE SMOOTH",
"27 540 OFFCURVE",
"51 499 OFFCURVE",
"91 481 CURVE",
"131 547 LINE",
"113 556 OFFCURVE",
"105 565 OFFCURVE",
"105 582 CURVE SMOOTH",
"105 603 OFFCURVE",
"122 619 OFFCURVE",
"140 619 CURVE SMOOTH",
"377 619 LINE",
"447 615 OFFCURVE",
"490 579 OFFCURVE",
"490 513 CURVE SMOOTH",
"490 438 OFFCURVE",
"437 401 OFFCURVE",
"363 401 CURVE SMOOTH",
"266 401 LINE",
"266 324 LINE",
"370 324 LINE SMOOTH",
"451 324 OFFCURVE",
"521 278 OFFCURVE",
"521 191 CURVE SMOOTH",
"521 106 OFFCURVE",
"457 66 OFFCURVE",
"341 66 CURVE SMOOTH",
"323 66 OFFCURVE",
"311 67 OFFCURVE",
"291 68 CURVE SMOOTH",
"240 71 LINE",
"240 592 LINE",
"157 592 LINE",
"157 2 LINE",
"219 -5 LINE",
"220 -5 LINE",
"253 -7 OFFCURVE",
"282 -10 OFFCURVE",
"321 -10 CURVE SMOOTH"
);
}
);
width = 645;
},
{
layerId = "49C16FD3-6177-408B-A733-AEB3898BB77C";
paths = (
{
closed = 1;
nodes = (
"473 -9 OFFCURVE",
"568 47 OFFCURVE",
"568 179 CURVE SMOOTH",
"568 264 OFFCURVE",
"528 319 OFFCURVE",
"465 353 CURVE SMOOTH",
"461 355 OFFCURVE",
"455 357 OFFCURVE",
"410 369 CURVE",
"455 383 OFFCURVE",
"457 383 OFFCURVE",
"463 387 CURVE",
"510 414 OFFCURVE",
"537 458 OFFCURVE",
"537 518 CURVE SMOOTH",
"537 578 OFFCURVE",
"510 651 OFFCURVE",
"419 683 CURVE SMOOTH",
"393 692 OFFCURVE",
"367 696 OFFCURVE",
"338 696 CURVE SMOOTH",
"111 696 LINE SMOOTH",
"57 696 OFFCURVE",
"13 652 OFFCURVE",
"13 595 CURVE SMOOTH",
"13 561 OFFCURVE",
"28 533 OFFCURVE",
"55 514 CURVE",
"77 551 LINE",
"65 561 OFFCURVE",
"56 577 OFFCURVE",
"56 595 CURVE SMOOTH",
"56 626 OFFCURVE",
"84 653 OFFCURVE",
"113 653 CURVE SMOOTH",
"352 653 LINE",
"435 648 OFFCURVE",
"490 602 OFFCURVE",
"490 521 CURVE SMOOTH",
"490 431 OFFCURVE",
"423 385 OFFCURVE",
"337 385 CURVE SMOOTH",
"254 385 LINE",
"254 343 LINE",
"344 343 LINE SMOOTH",
"438 343 OFFCURVE",
"522 288 OFFCURVE",
"522 183 CURVE SMOOTH",
"522 81 OFFCURVE",
"444 33 OFFCURVE",
"313 33 CURVE SMOOTH",
"294 33 OFFCURVE",
"281 34 OFFCURVE",
"261 34 CURVE",
"188 38 LINE",
"188 591 LINE",
"140 591 LINE",
"140 1 LINE",
"188 -4 LINE",
"223 -6 OFFCURVE",
"252 -9 OFFCURVE",
"293 -9 CURVE SMOOTH"
);
}
);
width = 606;
}
);
leftKerningGroup = E;
rightKerningGroup = B;
userData = {
position = 514;
width = 59;
};
},
{
glyphname = B.ss02;
lastChange = "2019-09-06 17:32:29 +0000";
layers = (
{
layerId = "873CAA12-270D-4223-A88E-AE8E101FDBE8";
paths = (
{
closed = 1;
nodes = (
"320 -10 OFFCURVE",
"355 -6 OFFCURVE",
"386 4 CURVE SMOOTH",
"476 33 OFFCURVE",
"520 106 OFFCURVE",
"520 185 CURVE SMOOTH",
"520 261 OFFCURVE",
"480 324 OFFCURVE",
"415 358 CURVE",
"410 361 OFFCURVE",
"404 363 OFFCURVE",
"383 368 CURVE",
"406 375 OFFCURVE",
"411 378 OFFCURVE",
"413 379 CURVE SMOOTH",
"466 409 OFFCURVE",
"489 456 OFFCURVE",
"489 514 CURVE SMOOTH",
"489 594 OFFCURVE",
"444 655 OFFCURVE",
"369 682 CURVE SMOOTH",
"344 691 OFFCURVE",
"317 695 OFFCURVE",
"287 695 CURVE SMOOTH",
"86 695 LINE",
"86 639 LINE",
"301 639 LINE",
"382 633 OFFCURVE",
"429 592 OFFCURVE",
"429 518 CURVE SMOOTH",
"429 433 OFFCURVE",
"368 390 OFFCURVE",
"286 390 CURVE SMOOTH",
"128 390 LINE",
"128 335 LINE",
"293 335 LINE SMOOTH",
"402 335 OFFCURVE",
"461 270 OFFCURVE",
"461 185 CURVE SMOOTH",
"461 92 OFFCURVE",
"390 45 OFFCURVE",
"279 45 CURVE SMOOTH",
"263 45 OFFCURVE",
"236 46 OFFCURVE",
"212 47 CURVE SMOOTH",
"147 50 LINE",
"147 652 LINE",
"86 652 LINE",
"86 1 LINE",
"139 -5 LINE SMOOTH",
"176 -9 OFFCURVE",
"244 -10 OFFCURVE",
"269 -10 CURVE SMOOTH"
);
}
);
width = 563;
},
{
layerId = "0CAF3BED-C4AC-4024-B3E1-4C69D1EF7EC0";
paths = (
{
closed = 1;
nodes = (
"325 -10 OFFCURVE",
"361 -6 OFFCURVE",
"392 4 CURVE SMOOTH",
"483 33 OFFCURVE",
"530 111 OFFCURVE",
"530 191 CURVE SMOOTH",
"530 268 OFFCURVE",
"497 323 OFFCURVE",
"434 357 CURVE SMOOTH",
"424 363 OFFCURVE",
"406 369 OFFCURVE",
"398 369 CURVE",
"410 373 OFFCURVE",
"415 375 OFFCURVE",
"419 377 CURVE SMOOTH",
"474 407 OFFCURVE",
"500 451 OFFCURVE",
"500 510 CURVE SMOOTH",
"500 591 OFFCURVE",
"452 656 OFFCURVE",
"376 684 CURVE SMOOTH",
"350 693 OFFCURVE",
"322 697 OFFCURVE",
"292 697 CURVE SMOOTH",
"86 697 LINE",
"86 619 LINE",
"305 619 LINE",
"378 614 OFFCURVE",
"418 578 OFFCURVE",
"418 514 CURVE SMOOTH",
"418 439 OFFCURVE",
"365 401 OFFCURVE",
"291 401 CURVE SMOOTH",
"126 401 LINE",
"126 324 LINE",
"298 324 LINE SMOOTH",
"397 324 OFFCURVE",
"449 267 OFFCURVE",
"449 191 CURVE SMOOTH",
"449 109 OFFCURVE",
"387 66 OFFCURVE",
"285 66 CURVE SMOOTH",
"269 66 OFFCURVE",
"243 67 OFFCURVE",
"220 68 CURVE SMOOTH",
"168 71 LINE",
"168 655 LINE",
"86 655 LINE",
"86 2 LINE",
"147 -5 LINE SMOOTH",
"184 -9 OFFCURVE",
"251 -10 OFFCURVE",
"275 -10 CURVE SMOOTH"
);
}
);
width = 574;
},
{
layerId = "49C16FD3-6177-408B-A733-AEB3898BB77C";
paths = (
{
closed = 1;
nodes = (
"317 -9 OFFCURVE",
"352 -5 OFFCURVE",
"383 5 CURVE SMOOTH",
"472 34 OFFCURVE",
"515 104 OFFCURVE",
"515 183 CURVE SMOOTH",
"515 258 OFFCURVE",
"476 319 OFFCURVE",
"411 353 CURVE",
"405 357 OFFCURVE",
"398 358 OFFCURVE",
"354 369 CURVE",
"400 381 OFFCURVE",
"406 385 OFFCURVE",
"409 387 CURVE",
"461 416 OFFCURVE",
"483 461 OFFCURVE",
"483 518 CURVE SMOOTH",
"483 598 OFFCURVE",
"440 656 OFFCURVE",
"365 683 CURVE SMOOTH",
"340 692 OFFCURVE",
"314 696 OFFCURVE",
"284 696 CURVE SMOOTH",
"86 696 LINE",
"86 653 LINE",
"299 653 LINE",
"384 647 OFFCURVE",
"436 601 OFFCURVE",
"436 522 CURVE SMOOTH",
"436 432 OFFCURVE",
"369 385 OFFCURVE",
"283 385 CURVE SMOOTH",
"129 385 LINE",
"129 343 LINE",
"290 343 LINE SMOOTH",
"405 343 OFFCURVE",
"469 272 OFFCURVE",
"469 183 CURVE SMOOTH",
"469 84 OFFCURVE",
"391 33 OFFCURVE",
"276 33 CURVE SMOOTH",
"259 33 OFFCURVE",
"232 34 OFFCURVE",
"207 35 CURVE SMOOTH",
"134 38 LINE",
"134 662 LINE",
"86 662 LINE",
"86 11 LINE",
"134 -4 LINE SMOOTH",
"170 -15 OFFCURVE",
"240 -9 OFFCURVE",
"266 -9 CURVE SMOOTH"
);
}
);
width = 553;
}
);
leftKerningGroup = L;
leftMetricsKey = L;
rightKerningGroup = B;
rightMetricsKey = B;
userData = {
position = 494;
width = 59;
};
},
{
glyphname = C;
lastChange = "2019-09-06 17:32:29 +0000";
layers = (
{
anchors = (
{
name = bottom;
position = "{373, -21}";
},
{
name = top;
position = "{373, 713}";
}
);
layerId = "873CAA12-270D-4223-A88E-AE8E101FDBE8";
paths = (
{
closed = 1;
nodes = (
"497 -22 OFFCURVE",
"605 26 OFFCURVE",
"672 124 CURVE",
"627 155 LINE",
"576 79 OFFCURVE",
"487 33 OFFCURVE",
"391 33 CURVE SMOOTH",
"223 33 OFFCURVE",
"96 171 OFFCURVE",
"96 336 CURVE SMOOTH",
"96 506 OFFCURVE",
"231 655 OFFCURVE",
"397 655 CURVE SMOOTH",
"448 655 OFFCURVE",
"518 641 OFFCURVE",
"555 602 CURVE SMOOTH",
"567 589 OFFCURVE",
"573 576 OFFCURVE",
"573 561 CURVE SMOOTH",
"573 539 OFFCURVE",
"560 521 OFFCURVE",
"541 521 CURVE SMOOTH",
"533 521 OFFCURVE",
"526 524 OFFCURVE",
"518 529 CURVE",
"484 486 LINE",
"500 474 OFFCURVE",
"520 467 OFFCURVE",
"540 467 CURVE SMOOTH",
"590 467 OFFCURVE",
"627 508 OFFCURVE",
"627 560 CURVE SMOOTH",
"627 582 OFFCURVE",
"620 605 OFFCURVE",
"607 625 CURVE SMOOTH",
"566 688 OFFCURVE",
"465 710 OFFCURVE",
"396 710 CURVE SMOOTH",
"203 710 OFFCURVE",
"42 538 OFFCURVE",
"42 336 CURVE SMOOTH",
"42 140 OFFCURVE",
"193 -22 OFFCURVE",
"390 -22 CURVE SMOOTH"
);
}
);
width = 696;
},
{
anchors = (
{
name = bottom;
position = "{375, -9}";
},
{
name = top;
position = "{375, 703}";
}
);
layerId = "0CAF3BED-C4AC-4024-B3E1-4C69D1EF7EC0";
paths = (
{
closed = 1;
nodes = (
"501 -22 OFFCURVE",
"615 30 OFFCURVE",
"681 135 CURVE",
"618 178 LINE",
"571 101 OFFCURVE",
"487 55 OFFCURVE",
"392 55 CURVE SMOOTH",
"236 55 OFFCURVE",
"118 183 OFFCURVE",
"118 337 CURVE SMOOTH",
"118 495 OFFCURVE",
"244 635 OFFCURVE",
"398 635 CURVE SMOOTH",
"446 635 OFFCURVE",
"510 622 OFFCURVE",
"543 587 CURVE SMOOTH",
"553 576 OFFCURVE",
"557 567 OFFCURVE",
"557 555 CURVE SMOOTH",
"557 540 OFFCURVE",
"548 528 OFFCURVE",
"538 528 CURVE SMOOTH",
"531 528 OFFCURVE",
"526 531 OFFCURVE",
"513 540 CURVE",
"467 481 LINE",
"484 464 OFFCURVE",
"511 452 OFFCURVE",
"537 452 CURVE SMOOTH",
"591 452 OFFCURVE",
"633 499 OFFCURVE",
"633 554 CURVE SMOOTH",
"633 577 OFFCURVE",
"625 603 OFFCURVE",
"612 624 CURVE SMOOTH",
"569 689 OFFCURVE",
"465 711 OFFCURVE",
"397 711 CURVE SMOOTH",
"205 711 OFFCURVE",
"42 538 OFFCURVE",
"42 337 CURVE SMOOTH",
"42 142 OFFCURVE",
"195 -22 OFFCURVE",
"391 -22 CURVE SMOOTH"
);
}
);
width = 705;
},
{
anchors = (
{
name = bottom;
position = "{364, -27}";
},
{
name = top;
position = "{364, 721}";
}
);
layerId = "49C16FD3-6177-408B-A733-AEB3898BB77C";
paths = (
{
closed = 1;
nodes = (
"487 -21 OFFCURVE",
"592 24 OFFCURVE",
"659 119 CURVE",
"625 142 LINE",
"572 67 OFFCURVE",
"480 20 OFFCURVE",
"383 20 CURVE SMOOTH",
"208 20 OFFCURVE",
"75 166 OFFCURVE",
"75 337 CURVE SMOOTH",
"75 513 OFFCURVE",
"216 669 OFFCURVE",
"389 669 CURVE SMOOTH",
"442 669 OFFCURVE",
"516 654 OFFCURVE",
"555 613 CURVE SMOOTH",
"568 599 OFFCURVE",
"576 583 OFFCURVE",
"576 566 CURVE SMOOTH",
"576 541 OFFCURVE",
"559 518 OFFCURVE",
"536 518 CURVE SMOOTH",
"528 518 OFFCURVE",
"521 521 OFFCURVE",
"514 524 CURVE",
"488 491 LINE",
"502 482 OFFCURVE",
"518 477 OFFCURVE",
"535 477 CURVE SMOOTH",
"582 477 OFFCURVE",
"616 515 OFFCURVE",
"616 565 CURVE SMOOTH",
"616 587 OFFCURVE",
"610 608 OFFCURVE",
"597 628 CURVE SMOOTH",
"557 689 OFFCURVE",
"457 711 OFFCURVE",
"388 711 CURVE SMOOTH",
"194 711 OFFCURVE",
"34 540 OFFCURVE",
"34 337 CURVE SMOOTH",
"34 140 OFFCURVE",
"184 -21 OFFCURVE",
"382 -21 CURVE SMOOTH"
);
}
);
width = 672;
}
);
leftKerningGroup = O;
rightKerningGroup = C;
unicode = 0043;
userData = {
position = 570;
width = 54;
};
},
{
glyphname = C.ss02;
lastChange = "2019-09-06 17:32:29 +0000";
layers = (
{
anchors = (
{
name = bottom;
position = "{374, -21}";
},
{
name = top;
position = "{374, 713}";
}
);
layerId = "873CAA12-270D-4223-A88E-AE8E101FDBE8";
paths = (
{
closed = 1;
nodes = (
"498 -22 OFFCURVE",
"606 26 OFFCURVE",
"673 124 CURVE",
"628 155 LINE",
"577 79 OFFCURVE",
"488 33 OFFCURVE",
"392 33 CURVE SMOOTH",
"224 33 OFFCURVE",
"97 172 OFFCURVE",
"97 333 CURVE SMOOTH",
"97 500 OFFCURVE",
"232 655 OFFCURVE",
"390 655 CURVE SMOOTH",
"447 655 OFFCURVE",
"567 640 OFFCURVE",
"574 540 CURVE",
"628 540 LINE",
"621 681 OFFCURVE",
"480 710 OFFCURVE",
"395 710 CURVE SMOOTH",
"205 710 OFFCURVE",
"43 538 OFFCURVE",
"43 336 CURVE SMOOTH",
"43 140 OFFCURVE",
"194 -22 OFFCURVE",
"391 -22 CURVE SMOOTH"
);
}
);
width = 696;
},
{
anchors = (
{
name = bottom;
position = "{376, -9}";
},
{
name = top;
position = "{376, 703}";
}
);
layerId = "0CAF3BED-C4AC-4024-B3E1-4C69D1EF7EC0";
paths = (
{
closed = 1;
nodes = (
"502 -22 OFFCURVE",
"616 30 OFFCURVE",
"682 135 CURVE",
"619 178 LINE",
"572 101 OFFCURVE",
"488 55 OFFCURVE",
"393 55 CURVE SMOOTH",
"237 55 OFFCURVE",
"119 184 OFFCURVE",
"119 334 CURVE SMOOTH",
"119 490 OFFCURVE",
"245 635 OFFCURVE",
"391 635 CURVE SMOOTH",
"448 635 OFFCURVE",
"561 620 OFFCURVE",
"559 523 CURVE",
"634 523 LINE",
"635 680 OFFCURVE",
"482 711 OFFCURVE",
"396 711 CURVE SMOOTH",
"207 711 OFFCURVE",
"43 538 OFFCURVE",
"43 337 CURVE SMOOTH",
"43 142 OFFCURVE",
"196 -22 OFFCURVE",
"392 -22 CURVE SMOOTH"
);
}
);
width = 706;
},
{
anchors = (
{
name = bottom;
position = "{365, -27}";
},
{
name = top;
position = "{365, 721}";
}
);
layerId = "49C16FD3-6177-408B-A733-AEB3898BB77C";
paths = (
{
closed = 1;
nodes = (
"488 -21 OFFCURVE",
"593 24 OFFCURVE",
"660 119 CURVE",
"626 142 LINE",
"573 67 OFFCURVE",
"481 20 OFFCURVE",
"384 20 CURVE SMOOTH",
"209 20 OFFCURVE",
"76 167 OFFCURVE",
"76 334 CURVE SMOOTH",
"76 507 OFFCURVE",
"217 669 OFFCURVE",
"382 669 CURVE SMOOTH",
"439 669 OFFCURVE",
"564 654 OFFCURVE",
"576 552 CURVE",
"617 552 LINE",
"605 684 OFFCURVE",
"471 711 OFFCURVE",
"387 711 CURVE SMOOTH",
"196 711 OFFCURVE",
"35 540 OFFCURVE",
"35 337 CURVE SMOOTH",
"35 140 OFFCURVE",
"185 -21 OFFCURVE",
"383 -21 CURVE SMOOTH"
);
}
);
width = 671;
}
);
leftKerningGroup = O;
leftMetricsKey = O;
rightKerningGroup = C;
userData = {
position = 570;
width = 54;
};
},
{
glyphname = D;
lastChange = "2019-09-06 17:32:29 +0000";
layers = (
{
anchors = (
{
name = center;
position = "{411, 0}";
},
{
name = top;
position = "{411, 684}";
}
);
layerId = "873CAA12-270D-4223-A88E-AE8E101FDBE8";
paths = (
{
closed = 1;
nodes = (
"592 -9 OFFCURVE",
"742 93 OFFCURVE",
"742 329 CURVE SMOOTH",
"742 539 OFFCURVE",
"623 672 OFFCURVE",
"425 689 CURVE",
"126 690 LINE SMOOTH",
"96 690 OFFCURVE",
"71 677 OFFCURVE",
"53 659 CURVE SMOOTH",
"30 637 OFFCURVE",
"22 612 OFFCURVE",
"22 585 CURVE",
"78 585 LINE",
"78 591 OFFCURVE",
"79 606 OFFCURVE",
"91 618 CURVE SMOOTH",
"103 630 OFFCURVE",
"124 634 OFFCURVE",
"147 634 CURVE",
"147 0 LINE",
"167 -3 LINE",
"194 -5 LINE SMOOTH",
"205 -6 OFFCURVE",
"259 -9 OFFCURVE",
"308 -9 CURVE SMOOTH"
);
},
{
closed = 1;
nodes = (
"309 45 OFFCURVE",
"233 49 OFFCURVE",
"208 50 CURVE",
"208 634 LINE",
"415 634 LINE",
"578 626 OFFCURVE",
"682 512 OFFCURVE",
"682 338 CURVE SMOOTH",
"682 149 OFFCURVE",
"564 45 OFFCURVE",
"344 45 CURVE SMOOTH"
);
}
);
width = 786;
},
{
anchors = (
{
name = center;
position = "{413, 11}";
},
{
name = top;
position = "{413, 675}";
}
);
layerId = "0CAF3BED-C4AC-4024-B3E1-4C69D1EF7EC0";
paths = (
{
closed = 1;
nodes = (
"609 -9 OFFCURVE",
"746 95 OFFCURVE",
"746 325 CURVE SMOOTH",
"746 542 OFFCURVE",
"624 673 OFFCURVE",
"427 691 CURVE",
"136 692 LINE SMOOTH",
"108 692 OFFCURVE",
"78 679 OFFCURVE",
"57 659 CURVE SMOOTH",
"29 632 OFFCURVE",
"22 594 OFFCURVE",
"24 567 CURVE",
"90 567 LINE",
"102 567 LINE",
"102 584 OFFCURVE",
"104 594 OFFCURVE",
"111 602 CURVE SMOOTH",
"118 610 OFFCURVE",
"130 613 OFFCURVE",
"145 614 CURVE",
"145 1 LINE",
"174 -3 LINE",
"175 -3 LINE",
"202 -5 LINE SMOOTH",
"212 -6 OFFCURVE",
"265 -9 OFFCURVE",
"315 -9 CURVE SMOOTH"
);
},
{
closed = 1;
nodes = (
"333 66 OFFCURVE",
"264 69 OFFCURVE",
"228 71 CURVE",
"228 614 LINE",
"416 614 LINE",
"566 606 OFFCURVE",
"664 508 OFFCURVE",
"664 333 CURVE SMOOTH",
"664 172 OFFCURVE",
"582 66 OFFCURVE",
"369 66 CURVE SMOOTH"
);
}
);
width = 790;
},
{
anchors = (
{
name = center;
position = "{396, -6}";
},
{
name = top;
position = "{396, 692}";
}
);
layerId = "49C16FD3-6177-408B-A733-AEB3898BB77C";
paths = (
{
closed = 1;
nodes = (
"579 -8 OFFCURVE",
"727 93 OFFCURVE",
"727 330 CURVE SMOOTH",
"727 541 OFFCURVE",
"609 673 OFFCURVE",
"410 690 CURVE",
"105 691 LINE SMOOTH",
"78 691 OFFCURVE",
"56 681 OFFCURVE",
"36 661 CURVE SMOOTH",
"13 639 OFFCURVE",
"8 617 OFFCURVE",
"7 598 CURVE",
"50 598 LINE",
"51 607 OFFCURVE",
"54 618 OFFCURVE",
"65 629 CURVE SMOOTH",
"79 642 OFFCURVE",
"96 649 OFFCURVE",
"134 648 CURVE",
"134 0 LINE",
"148 -2 LINE",
"147 -2 LINE",
"175 -4 LINE SMOOTH",
"186 -5 OFFCURVE",
"243 -8 OFFCURVE",
"292 -8 CURVE SMOOTH"
);
},
{
closed = 1;
nodes = (
"273 35 OFFCURVE",
"214 37 OFFCURVE",
"189 38 CURVE",
"182 45 LINE",
"182 648 LINE",
"400 648 LINE",
"570 638 OFFCURVE",
"680 523 OFFCURVE",
"680 334 CURVE SMOOTH",
"680 143 OFFCURVE",
"567 35 OFFCURVE",
"308 35 CURVE SMOOTH"
);
}
);
width = 764;
}
);
leftKerningGroup = E;
leftMetricsKey = E;
rightKerningGroup = O;
unicode = 0044;
userData = {
position = 674;
width = 60;
};
},
{
glyphname = D.ss01;
lastChange = "2019-09-06 17:32:29 +0000";
layers = (
{
anchors = (
{
name = center;
position = "{416, 0}";
},
{
name = top;
position = "{416, 0}";
}
);
layerId = "873CAA12-270D-4223-A88E-AE8E101FDBE8";
paths = (
{
closed = 1;
nodes = (
"400 -10 LINE SMOOTH",
"605 -10 OFFCURVE",
"747 136 OFFCURVE",
"747 341 CURVE SMOOTH",
"747 533 OFFCURVE",
"623 677 OFFCURVE",
"430 689 CURVE",
"131 690 LINE SMOOTH",
"90 690 OFFCURVE",
"27 657 OFFCURVE",
"27 586 CURVE SMOOTH",
"27 548 OFFCURVE",
"45 515 OFFCURVE",
"78 496 CURVE",
"107 544 LINE",
"90 554 OFFCURVE",
"83 568 OFFCURVE",
"83 585 CURVE SMOOTH",
"83 611 OFFCURVE",
"101 630 OFFCURVE",
"127 634 CURVE",
"420 634 LINE",
"576 624 OFFCURVE",
"687 524 OFFCURVE",
"687 336 CURVE SMOOTH",
"687 157 OFFCURVE",
"586 45 OFFCURVE",
"360 45 CURVE SMOOTH",
"323 45 OFFCURVE",
"257 48 OFFCURVE",
"213 50 CURVE",
"213 575 LINE",
"152 575 LINE",
"152 0 LINE",
"172 -3 LINE",
"199 -5 LINE SMOOTH",
"282 -10 OFFCURVE",
"306 -10 OFFCURVE",
"348 -10 CURVE SMOOTH"
);
}
);
width = 790;
},
{
anchors = (
{
name = center;
position = "{426, 11}";
},
{
name = top;
position = "{426, 11}";
}
);
layerId = "0CAF3BED-C4AC-4024-B3E1-4C69D1EF7EC0";
paths = (
{
closed = 1;
nodes = (
"410 -10 LINE SMOOTH",
"614 -10 OFFCURVE",
"759 138 OFFCURVE",
"759 342 CURVE SMOOTH",
"759 532 OFFCURVE",
"632 679 OFFCURVE",
"440 691 CURVE",
"139 692 LINE SMOOTH",
"97 692 OFFCURVE",
"27 655 OFFCURVE",
"27 580 CURVE SMOOTH",
"27 536 OFFCURVE",
"51 495 OFFCURVE",
"92 477 CURVE",
"133 543 LINE",
"111 553 OFFCURVE",
"105 562 OFFCURVE",
"105 579 CURVE SMOOTH",
"105 597 OFFCURVE",
"118 611 OFFCURVE",
"137 614 CURVE",
"429 614 LINE",
"574 605 OFFCURVE",
"677 512 OFFCURVE",
"677 337 CURVE SMOOTH",
"677 170 OFFCURVE",
"584 66 OFFCURVE",
"372 66 CURVE SMOOTH",
"339 66 OFFCURVE",
"283 69 OFFCURVE",
"241 71 CURVE",
"241 576 LINE",
"158 576 LINE",
"158 1 LINE",
"187 -3 LINE",
"188 -3 LINE",
"215 -5 LINE SMOOTH",
"296 -10 OFFCURVE",
"319 -10 OFFCURVE",
"360 -10 CURVE SMOOTH"
);
}
);
width = 801;
},
{
anchors = (
{
name = center;
position = "{403, -6}";
},
{
name = top;
position = "{403, -6}";
}
);
layerId = "49C16FD3-6177-408B-A733-AEB3898BB77C";
paths = (
{
closed = 1;
nodes = (
"387 -9 LINE SMOOTH",
"593 -9 OFFCURVE",
"734 136 OFFCURVE",
"734 342 CURVE SMOOTH",
"734 535 OFFCURVE",
"611 678 OFFCURVE",
"417 690 CURVE",
"112 691 LINE SMOOTH",
"72 691 OFFCURVE",
"13 660 OFFCURVE",
"13 592 CURVE SMOOTH",
"13 557 OFFCURVE",
"28 528 OFFCURVE",
"56 510 CURVE",
"78 547 LINE",
"63 558 OFFCURVE",
"56 574 OFFCURVE",
"56 591 CURVE SMOOTH",
"56 620 OFFCURVE",
"79 644 OFFCURVE",
"108 648 CURVE",
"407 648 LINE",
"569 637 OFFCURVE",
"687 532 OFFCURVE",
"687 337 CURVE SMOOTH",
"687 151 OFFCURVE",
"580 33 OFFCURVE",
"346 33 CURVE SMOOTH",
"306 33 OFFCURVE",
"233 36 OFFCURVE",
"189 38 CURVE",
"189 573 LINE",
"141 573 LINE",
"141 0 LINE",
"155 -2 LINE",
"154 -2 LINE",
"182 -4 LINE SMOOTH",
"267 -9 OFFCURVE",
"291 -9 OFFCURVE",
"334 -9 CURVE SMOOTH"
);
}
);
width = 769;
}
);
leftKerningGroup = E;
rightKerningGroup = O;
userData = {
position = 674;
width = 60;
};
},
{
glyphname = D.ss02;
lastChange = "2019-09-06 17:32:29 +0000";
layers = (
{
anchors = (
{
name = center;
position = "{141, 341}";
},
{
name = top;
position = "{364, 689}";
}
);
layerId = "873CAA12-270D-4223-A88E-AE8E101FDBE8";
paths = (
{
closed = 1;
nodes = (
"334 -10 LINE SMOOTH",
"537 -10 OFFCURVE",
"681 132 OFFCURVE",
"681 341 CURVE SMOOTH",
"681 535 OFFCURVE",
"557 677 OFFCURVE",
"364 689 CURVE",
"86 690 LINE",
"86 634 LINE",
"354 634 LINE",
"520 625 OFFCURVE",
"621 515 OFFCURVE",
"621 338 CURVE SMOOTH",
"621 161 OFFCURVE",
"519 45 OFFCURVE",
"301 45 CURVE SMOOTH",
"261 45 OFFCURVE",
"177 49 OFFCURVE",
"147 50 CURVE",
"147 655 LINE",
"86 655 LINE",
"86 0 LINE",
"106 -3 LINE",
"133 -5 LINE SMOOTH",
"216 -10 OFFCURVE",
"240 -10 OFFCURVE",
"282 -10 CURVE SMOOTH"
);
}
);
width = 724;
},
{
anchors = (
{
name = bottom;
position = "{338, -10}";
},
{
name = center;
position = "{168, 367}";
},
{
name = top;
position = "{368, 691}";
}
);
layerId = "0CAF3BED-C4AC-4024-B3E1-4C69D1EF7EC0";
paths = (
{
closed = 1;
nodes = (
"338 -10 LINE SMOOTH",
"540 -10 OFFCURVE",
"686 134 OFFCURVE",
"686 342 CURVE SMOOTH",
"686 534 OFFCURVE",
"560 679 OFFCURVE",
"368 691 CURVE",
"86 692 LINE",
"86 614 LINE",
"357 614 LINE",
"511 606 OFFCURVE",
"605 504 OFFCURVE",
"605 339 CURVE SMOOTH",
"605 174 OFFCURVE",
"510 66 OFFCURVE",
"306 66 CURVE SMOOTH",
"272 66 OFFCURVE",
"203 69 OFFCURVE",
"168 71 CURVE",
"168 658 LINE",
"86 658 LINE",
"86 1 LINE",
"115 -3 LINE",
"116 -3 LINE",
"142 -5 LINE SMOOTH",
"223 -10 OFFCURVE",
"247 -10 OFFCURVE",
"288 -10 CURVE SMOOTH"
);
}
);
width = 729;
},
{
anchors = (
{
name = bottom;
position = "{279, -9}";
},
{
name = center;
position = "{112, 356}";
},
{
name = top;
position = "{362, 690}";
}
);
layerId = "49C16FD3-6177-408B-A733-AEB3898BB77C";
paths = (
{
closed = 1;
nodes = (
"332 -9 LINE SMOOTH",
"536 -9 OFFCURVE",
"679 132 OFFCURVE",
"679 342 CURVE SMOOTH",
"679 537 OFFCURVE",
"556 678 OFFCURVE",
"362 690 CURVE",
"86 691 LINE",
"86 648 LINE",
"352 648 LINE",
"525 638 OFFCURVE",
"632 522 OFFCURVE",
"632 339 CURVE SMOOTH",
"632 156 OFFCURVE",
"524 33 OFFCURVE",
"298 33 CURVE SMOOTH",
"254 33 OFFCURVE",
"156 38 OFFCURVE",
"134 38 CURVE",
"134 655 LINE",
"86 655 LINE",
"86 0 LINE",
"101 -2 LINE",
"100 -2 LINE",
"128 -4 LINE SMOOTH",
"212 -9 OFFCURVE",
"236 -9 OFFCURVE",
"279 -9 CURVE SMOOTH"
);
}
);
width = 715;
}
);
leftKerningGroup = E;
leftMetricsKey = L;
rightKerningGroup = O;
userData = {
position = 674;
width = 60;
};
},
{
glyphname = E;
lastChange = "2019-09-06 17:32:29 +0000";
layers = (
{
anchors = (
{
name = bottom;
position = "{368, 0}";
},
{
name = ogonek;
position = "{586, 1}";
},
{
name = top;
position = "{357, 684}";
}
);
layerId = "873CAA12-270D-4223-A88E-AE8E101FDBE8";
paths = (
{
closed = 1;
nodes = (
"586 0 LINE",
"586 57 LINE",
"199 57 LINE",
"199 333 LINE",
"466 333 LINE",
"466 390 LINE",
"199 390 LINE",
"199 628 LINE",
"586 628 LINE",
"586 684 LINE",
"125 684 LINE SMOOTH",
"95 684 OFFCURVE",
"71 671 OFFCURVE",
"52 652 CURVE SMOOTH",
"33 633 OFFCURVE",
"22 608 OFFCURVE",
"22 579 CURVE",
"78 579 LINE",
"78 592 OFFCURVE",
"84 606 OFFCURVE",
"92 614 CURVE SMOOTH",
"102 624 OFFCURVE",
"112 628 OFFCURVE",
"138 628 CURVE",
"138 0 LINE"
);
}
);
width = 623;
},
{
anchors = (
{
name = bottom;
position = "{371, 11}";
},
{
name = ogonek;
position = "{594, -1}";
},
{
name = top;
position = "{361, 684}";
}
);
layerId = "0CAF3BED-C4AC-4024-B3E1-4C69D1EF7EC0";
paths = (
{
closed = 1;
nodes = (
"594 -1 LINE",
"594 78 LINE",
"219 78 LINE",
"219 322 LINE",
"478 322 LINE",
"478 401 LINE",
"219 401 LINE",
"219 609 LINE",
"594 609 LINE",
"594 686 LINE",
"135 686 LINE SMOOTH",
"78 686 OFFCURVE",
"24 637 OFFCURVE",
"24 574 CURVE SMOOTH",
"24 569 OFFCURVE",
"25 565 OFFCURVE",
"25 561 CURVE",
"103 561 LINE",
"102 565 OFFCURVE",
"101 569 OFFCURVE",
"101 573 CURVE SMOOTH",
"101 588 OFFCURVE",
"113 608 OFFCURVE",
"136 608 CURVE",
"136 -1 LINE"
);
}
);
width = 635;
},
{
anchors = (
{
name = bottom;
position = "{352, -6}";
},
{
name = ogonek;
position = "{581, 7}";
},
{
name = top;
position = "{341, 692}";
}
);
layerId = "49C16FD3-6177-408B-A733-AEB3898BB77C";
paths = (
{
closed = 1;
nodes = (
"567 1 LINE",
"567 45 LINE",
"173 45 LINE",
"173 341 LINE",
"445 341 LINE",
"445 385 LINE",
"173 385 LINE",
"173 642 LINE",
"567 642 LINE",
"567 685 LINE",
"104 685 LINE SMOOTH",
"76 685 OFFCURVE",
"54 673 OFFCURVE",
"35 654 CURVE SMOOTH",
"18 637 OFFCURVE",
"8 617 OFFCURVE",
"7 592 CURVE",
"50 592 LINE",
"52 604 OFFCURVE",
"58 618 OFFCURVE",
"66 625 CURVE SMOOTH",
"78 637 OFFCURVE",
"92 642 OFFCURVE",
"125 642 CURVE",
"125 1 LINE"
);
}
);
width = 590;
}
);
leftKerningGroup = E;
unicode = 0045;
userData = {
position = 130;
width = 61;
};
},
{
glyphname = E.ss01;
lastChange = "2019-09-06 17:32:29 +0000";
layers = (
{
anchors = (
{
name = bottom;
position = "{337, 0}";
},
{
name = ogonek;
position = "{596, 10}";
},
{
name = top;
position = "{337, 0}";
}
);
layerId = "873CAA12-270D-4223-A88E-AE8E101FDBE8";
paths = (
{
closed = 1;
nodes = (
"591 0 LINE",
"591 57 LINE",
"204 57 LINE",
"204 333 LINE",
"471 333 LINE",
"471 390 LINE",
"204 390 LINE",
"204 572 LINE",
"143 572 LINE",
"143 0 LINE"
);
},
{
closed = 1;
nodes = (
"106 537 LINE",
"92 545 OFFCURVE",
"83 560 OFFCURVE",
"83 578 CURVE SMOOTH",
"83 607 OFFCURVE",
"105 628 OFFCURVE",
"131 628 CURVE SMOOTH",
"591 628 LINE",
"591 684 LINE",
"130 684 LINE SMOOTH",
"86 684 OFFCURVE",
"27 647 OFFCURVE",
"27 578 CURVE SMOOTH",
"27 541 OFFCURVE",
"44 508 OFFCURVE",
"77 489 CURVE"
);
}
);
width = 628;
},
{
anchors = (
{
name = bottom;
position = "{349, 11}";
},
{
name = ogonek;
position = "{601, 21}";
},
{
name = top;
position = "{349, 11}";
}
);
layerId = "0CAF3BED-C4AC-4024-B3E1-4C69D1EF7EC0";
paths = (
{
closed = 1;
nodes = (
"607 -1 LINE",
"607 78 LINE",
"232 78 LINE",
"232 322 LINE",
"491 322 LINE",
"491 401 LINE",
"232 401 LINE",
"232 573 LINE",
"149 573 LINE",
"149 -1 LINE"
);
},
{
closed = 1;
nodes = (
"132 537 LINE",
"114 543 OFFCURVE",
"105 553 OFFCURVE",
"105 572 CURVE SMOOTH",
"105 593 OFFCURVE",
"121 609 OFFCURVE",
"139 609 CURVE SMOOTH",
"607 609 LINE",
"607 686 LINE",
"138 686 LINE SMOOTH",
"92 686 OFFCURVE",
"27 645 OFFCURVE",
"27 572 CURVE SMOOTH",
"27 529 OFFCURVE",
"50 489 OFFCURVE",
"91 470 CURVE"
);
}
);
width = 648;
},
{
anchors = (
{
name = bottom;
position = "{329, -12}";
},
{
name = ogonek;
position = "{599, -2}";
},
{
name = top;
position = "{329, -12}";
}
);
layerId = "49C16FD3-6177-408B-A733-AEB3898BB77C";
paths = (
{
closed = 1;
nodes = (
"574 1 LINE",
"574 45 LINE",
"180 45 LINE",
"180 341 LINE",
"452 341 LINE",
"452 385 LINE",
"180 385 LINE",
"180 570 LINE",
"132 570 LINE",
"132 1 LINE"
);
},
{
closed = 1;
nodes = (
"77 540 LINE",
"65 550 OFFCURVE",
"56 566 OFFCURVE",
"56 584 CURVE SMOOTH",
"56 616 OFFCURVE",
"83 642 OFFCURVE",
"112 642 CURVE SMOOTH",
"574 642 LINE",
"574 685 LINE",
"111 685 LINE SMOOTH",
"69 685 OFFCURVE",
"13 650 OFFCURVE",
"13 584 CURVE SMOOTH",
"13 550 OFFCURVE",
"27 521 OFFCURVE",
"55 503 CURVE"
);
}
);
width = 597;
}
);
leftKerningGroup = E;
userData = {
position = 130;
width = 61;
};
},
{
glyphname = E.ss02;
lastChange = "2019-09-06 17:32:29 +0000";
layers = (
{
anchors = (
{
name = bottom;
position = "{334, 0}";
},
{
name = ogonek;
position = "{554, 0}";
},
{
name = top;
position = "{329, 684}";
}
);
layerId = "873CAA12-270D-4223-A88E-AE8E101FDBE8";
paths = (
{
closed = 1;
nodes = (
"554 0 LINE",
"554 57 LINE",
"145 57 LINE",
"145 333 LINE",
"434 333 LINE",
"434 390 LINE",
"145 390 LINE",
"145 627 LINE",
"534 627 LINE",
"534 684 LINE",
"86 684 LINE",
"86 0 LINE"
);
}
);
width = 586;
},
{
anchors = (
{
name = bottom;
position = "{322, 0}";
},
{
name = ogonek;
position = "{563, -1}";
},
{
name = top;
position = "{324, 685}";
}
);
layerId = "0CAF3BED-C4AC-4024-B3E1-4C69D1EF7EC0";
paths = (
{
closed = 1;
nodes = (
"563 -1 LINE",
"563 78 LINE",
"166 78 LINE",
"166 322 LINE",
"447 322 LINE",
"447 401 LINE",
"166 401 LINE",
"166 608 LINE",
"544 608 LINE",
"544 686 LINE",
"86 686 LINE",
"86 -1 LINE"
);
}
);
width = 599;
},
{
anchors = (
{
name = bottom;
position = "{290, -6}";
},
{
name = ogonek;
position = "{536, 4}";
},
{
name = top;
position = "{330, 687}";
}
);
layerId = "49C16FD3-6177-408B-A733-AEB3898BB77C";
paths = (
{
closed = 1;
nodes = (
"549 1 LINE",
"549 45 LINE",
"132 45 LINE",
"132 341 LINE",
"427 341 LINE",
"427 385 LINE",
"132 385 LINE",
"132 641 LINE",
"529 641 LINE",
"529 685 LINE",
"86 685 LINE",
"86 1 LINE"
);
}
);
width = 568;
}
);
leftMetricsKey = L;
userData = {
position = 95;
width = 61;
};
},
{
glyphname = F;
lastChange = "2019-09-06 17:32:29 +0000";
layers = (
{
layerId = "873CAA12-270D-4223-A88E-AE8E101FDBE8";
paths = (
{
closed = 1;
nodes = (
"199 -1 LINE",
"199 332 LINE",
"466 332 LINE",
"466 389 LINE",
"199 389 LINE",
"199 627 LINE",
"586 627 LINE",
"586 683 LINE",
"125 683 LINE SMOOTH",
"96 683 OFFCURVE",
"72 671 OFFCURVE",
"52 651 CURVE SMOOTH",
"33 632 OFFCURVE",
"22 607 OFFCURVE",
"22 578 CURVE",
"78 578 LINE",
"78 591 OFFCURVE",
"84 605 OFFCURVE",
"92 613 CURVE SMOOTH",
"102 623 OFFCURVE",
"112 627 OFFCURVE",
"138 627 CURVE",
"138 -1 LINE"
);
}
);
width = 610;
},
{
layerId = "0CAF3BED-C4AC-4024-B3E1-4C69D1EF7EC0";
paths = (
{
closed = 1;
nodes = (
"219 -1 LINE",
"219 322 LINE",
"478 322 LINE",
"478 400 LINE",
"219 400 LINE",
"219 608 LINE",
"594 608 LINE",
"594 685 LINE",
"135 685 LINE SMOOTH",
"105 685 OFFCURVE",
"77 672 OFFCURVE",
"56 651 CURVE SMOOTH",
"37 631 OFFCURVE",
"24 603 OFFCURVE",
"24 573 CURVE SMOOTH",
"24 568 OFFCURVE",
"25 564 OFFCURVE",
"25 560 CURVE",
"103 560 LINE",
"102 564 OFFCURVE",
"101 568 OFFCURVE",
"101 572 CURVE SMOOTH",
"101 582 OFFCURVE",
"105 591 OFFCURVE",
"112 597 CURVE",
"118 604 OFFCURVE",
"123 607 OFFCURVE",
"136 607 CURVE",
"136 -1 LINE"
);
}
);
width = 620;
},
{
layerId = "49C16FD3-6177-408B-A733-AEB3898BB77C";
paths = (
{
closed = 1;
nodes = (
"173 0 LINE",
"173 340 LINE",
"445 340 LINE",
"445 384 LINE",
"173 384 LINE",
"173 641 LINE",
"567 641 LINE",
"567 684 LINE",
"104 684 LINE SMOOTH",
"76 684 OFFCURVE",
"55 673 OFFCURVE",
"35 653 CURVE SMOOTH",
"18 636 OFFCURVE",
"8 616 OFFCURVE",
"7 591 CURVE",
"50 591 LINE",
"52 603 OFFCURVE",
"58 617 OFFCURVE",
"66 624 CURVE",
"78 636 OFFCURVE",
"92 641 OFFCURVE",
"125 641 CURVE",
"125 0 LINE"
);
}
);
width = 574;
}
);
leftKerningGroup = E;
leftMetricsKey = E;
rightKerningGroup = F;
unicode = 0046;
userData = {
position = 129;
width = 61;
};
},
{
glyphname = F.ss01;
lastChange = "2019-09-06 17:32:29 +0000";
layers = (
{
layerId = "873CAA12-270D-4223-A88E-AE8E101FDBE8";
paths = (
{
closed = 1;
nodes = (
"204 -1 LINE",
"204 332 LINE",
"471 332 LINE",
"471 389 LINE",
"204 389 LINE",
"204 571 LINE",
"143 571 LINE",
"143 -1 LINE"
);
},
{
closed = 1;
nodes = (
"106 536 LINE",
"92 544 OFFCURVE",
"83 559 OFFCURVE",
"83 577 CURVE SMOOTH",
"83 606 OFFCURVE",
"105 627 OFFCURVE",
"131 627 CURVE SMOOTH",
"591 627 LINE",
"591 683 LINE",
"130 683 LINE SMOOTH",
"104 683 OFFCURVE",
"76 671 OFFCURVE",
"57 652 CURVE SMOOTH",
"41 636 OFFCURVE",
"27 608 OFFCURVE",
"27 576 CURVE SMOOTH",
"27 541 OFFCURVE",
"44 507 OFFCURVE",
"77 488 CURVE"
);
}
);
width = 615;
},
{
layerId = "0CAF3BED-C4AC-4024-B3E1-4C69D1EF7EC0";
paths = (
{
closed = 1;
nodes = (
"232 -1 LINE",
"232 322 LINE",
"491 322 LINE",
"491 400 LINE",
"232 400 LINE",
"232 572 LINE",
"149 572 LINE",
"149 -1 LINE"
);
},
{
closed = 1;
nodes = (
"132 536 LINE",
"114 542 OFFCURVE",
"105 552 OFFCURVE",
"105 571 CURVE SMOOTH",
"105 592 OFFCURVE",
"121 608 OFFCURVE",
"139 608 CURVE SMOOTH",
"607 608 LINE",
"607 685 LINE",
"139 685 LINE SMOOTH",
"111 685 OFFCURVE",
"79 672 OFFCURVE",
"59 652 CURVE SMOOTH",
"42 635 OFFCURVE",
"27 604 OFFCURVE",
"27 570 CURVE SMOOTH",
"27 530 OFFCURVE",
"50 487 OFFCURVE",
"92 469 CURVE"
);
}
);
width = 633;
},
{
layerId = "49C16FD3-6177-408B-A733-AEB3898BB77C";
paths = (
{
closed = 1;
nodes = (
"180 0 LINE",
"180 340 LINE",
"452 340 LINE",
"452 384 LINE",
"180 384 LINE",
"180 569 LINE",
"132 569 LINE",
"132 0 LINE"
);
},
{
closed = 1;
nodes = (
"77 539 LINE",
"65 549 OFFCURVE",
"56 565 OFFCURVE",
"56 583 CURVE SMOOTH",
"56 615 OFFCURVE",
"83 641 OFFCURVE",
"112 641 CURVE SMOOTH",
"574 641 LINE",
"574 684 LINE",
"111 684 LINE SMOOTH",
"86 684 OFFCURVE",
"60 672 OFFCURVE",
"42 654 CURVE SMOOTH",
"26 638 OFFCURVE",
"13 612 OFFCURVE",
"13 582 CURVE SMOOTH",
"13 550 OFFCURVE",
"27 520 OFFCURVE",
"55 502 CURVE"
);
}
);
width = 581;
}
);
leftKerningGroup = E;
rightKerningGroup = F;
userData = {
position = 129;
width = 61;
};
},
{
glyphname = F.ss02;
lastChange = "2019-09-06 17:32:29 +0000";
layers = (
{
layerId = "873CAA12-270D-4223-A88E-AE8E101FDBE8";
paths = (
{
closed = 1;
nodes = (
"147 0 LINE",
"147 325 LINE",
"464 325 LINE",
"464 382 LINE",
"147 382 LINE",
"147 627 LINE",
"534 627 LINE",
"534 684 LINE",
"86 684 LINE",
"86 0 LINE"
);
}
);
width = 558;
},
{
layerId = "0CAF3BED-C4AC-4024-B3E1-4C69D1EF7EC0";
paths = (
{
closed = 1;
nodes = (
"168 -1 LINE",
"168 315 LINE",
"476 315 LINE",
"476 393 LINE",
"168 393 LINE",
"168 608 LINE",
"544 608 LINE",
"544 686 LINE",
"86 686 LINE",
"86 -1 LINE"
);
}
);
width = 570;
},
{
layerId = "49C16FD3-6177-408B-A733-AEB3898BB77C";
paths = (
{
closed = 1;
nodes = (
"134 1 LINE",
"134 333 LINE",
"458 333 LINE",
"458 376 LINE",
"134 376 LINE",
"134 641 LINE",
"529 641 LINE",
"529 685 LINE",
"86 685 LINE",
"86 1 LINE"
);
}
);
width = 536;
}
);
leftKerningGroup = E;
leftMetricsKey = L;
rightKerningGroup = F;
rightMetricsKey = F;
userData = {
position = 95;
width = 61;
};
},
{
glyphname = G;
lastChange = "2019-09-06 17:32:29 +0000";
layers = (
{
anchors = (
{
name = bottom;
position = "{383, -28}";
},
{
name = top;
position = "{387, 699}";
}
);
layerId = "873CAA12-270D-4223-A88E-AE8E101FDBE8";
paths = (
{
closed = 1;
nodes = (
"620 -271 OFFCURVE",
"671 -240 OFFCURVE",
"671 -178 CURVE SMOOTH",
"671 303 LINE",
"614 303 LINE",
"614 224 LINE",
"598 111 OFFCURVE",
"509 23 OFFCURVE",
"383 23 CURVE SMOOTH",
"225 23 OFFCURVE",
"96 163 OFFCURVE",
"96 328 CURVE SMOOTH",
"96 497 OFFCURVE",
"230 647 OFFCURVE",
"393 647 CURVE SMOOTH",
"455 647 OFFCURVE",
"568 625 OFFCURVE",
"568 558 CURVE SMOOTH",
"568 535 OFFCURVE",
"554 517 OFFCURVE",
"535 517 CURVE SMOOTH",
"529 517 OFFCURVE",
"522 519 OFFCURVE",
"514 524 CURVE",
"480 481 LINE",
"496 469 OFFCURVE",
"515 463 OFFCURVE",
"534 463 CURVE SMOOTH",
"584 463 OFFCURVE",
"622 502 OFFCURVE",
"622 558 CURVE SMOOTH",
"622 667 OFFCURVE",
"476 702 OFFCURVE",
"392 702 CURVE SMOOTH",
"205 702 OFFCURVE",
"42 529 OFFCURVE",
"42 329 CURVE SMOOTH",
"42 139 OFFCURVE",
"190 -31 OFFCURVE",
"383 -31 CURVE SMOOTH",
"473 -31 OFFCURVE",
"557 6 OFFCURVE",
"614 82 CURVE",
"614 -178 LINE",
"612 -195 OFFCURVE",
"601 -212 OFFCURVE",
"578 -212 CURVE SMOOTH",
"565 -212 OFFCURVE",
"556 -206 OFFCURVE",
"550 -197 CURVE",
"502 -230 LINE",
"518 -255 OFFCURVE",
"546 -271 OFFCURVE",
"577 -271 CURVE SMOOTH"
);
}
);
width = 725;
},
{
anchors = (
{
name = bottom;
position = "{385, -16}";
},
{
name = top;
position = "{388, 689}";
}
);
layerId = "0CAF3BED-C4AC-4024-B3E1-4C69D1EF7EC0";
paths = (
{
closed = 1;
nodes = (
"618 -263 OFFCURVE",
"676 -228 OFFCURVE",
"676 -162 CURVE SMOOTH",
"676 317 LINE",
"597 317 LINE",
"597 229 LINE",
"582 126 OFFCURVE",
"500 45 OFFCURVE",
"385 45 CURVE SMOOTH",
"238 45 OFFCURVE",
"118 176 OFFCURVE",
"118 329 CURVE SMOOTH",
"118 487 OFFCURVE",
"243 627 OFFCURVE",
"394 627 CURVE SMOOTH",
"451 627 OFFCURVE",
"552 606 OFFCURVE",
"552 552 CURVE SMOOTH",
"552 536 OFFCURVE",
"543 524 OFFCURVE",
"532 524 CURVE SMOOTH",
"526 524 OFFCURVE",
"522 526 OFFCURVE",
"509 535 CURVE",
"463 476 LINE",
"480 458 OFFCURVE",
"507 449 OFFCURVE",
"531 449 CURVE SMOOTH",
"584 449 OFFCURVE",
"628 493 OFFCURVE",
"628 552 CURVE SMOOTH",
"628 667 OFFCURVE",
"476 704 OFFCURVE",
"393 704 CURVE SMOOTH",
"207 704 OFFCURVE",
"42 529 OFFCURVE",
"42 330 CURVE SMOOTH",
"42 142 OFFCURVE",
"192 -31 OFFCURVE",
"385 -31 CURVE SMOOTH",
"464 -31 OFFCURVE",
"541 -1 OFFCURVE",
"597 59 CURVE",
"597 -161 LINE",
"595 -172 OFFCURVE",
"587 -183 OFFCURVE",
"574 -183 CURVE SMOOTH",
"561 -183 OFFCURVE",
"559 -178 OFFCURVE",
"550 -163 CURVE",
"485 -208 LINE",
"500 -240 OFFCURVE",
"536 -263 OFFCURVE",
"573 -263 CURVE SMOOTH"
);
}
);
width = 732;
},
{
anchors = (
{
name = bottom;
position = "{375, -35}";
},
{
name = top;
position = "{384, 703}";
}
);
layerId = "49C16FD3-6177-408B-A733-AEB3898BB77C";
paths = (
{
closed = 1;
nodes = (
"614 -275 OFFCURVE",
"661 -247 OFFCURVE",
"661 -188 CURVE SMOOTH",
"661 296 LINE",
"617 296 LINE",
"617 221 LINE",
"601 104 OFFCURVE",
"506 10 OFFCURVE",
"375 10 CURVE SMOOTH",
"210 10 OFFCURVE",
"75 157 OFFCURVE",
"75 329 CURVE SMOOTH",
"75 504 OFFCURVE",
"215 661 OFFCURVE",
"385 661 CURVE SMOOTH",
"449 661 OFFCURVE",
"570 637 OFFCURVE",
"570 563 CURVE SMOOTH",
"570 537 OFFCURVE",
"553 514 OFFCURVE",
"530 514 CURVE SMOOTH",
"524 514 OFFCURVE",
"517 516 OFFCURVE",
"510 519 CURVE",
"484 486 LINE",
"498 477 OFFCURVE",
"513 473 OFFCURVE",
"529 473 CURVE SMOOTH",
"577 473 OFFCURVE",
"611 509 OFFCURVE",
"611 563 CURVE SMOOTH",
"611 669 OFFCURVE",
"469 703 OFFCURVE",
"384 703 CURVE SMOOTH",
"196 703 OFFCURVE",
"34 531 OFFCURVE",
"34 330 CURVE SMOOTH",
"34 138 OFFCURVE",
"181 -31 OFFCURVE",
"375 -31 CURVE SMOOTH",
"472 -31 OFFCURVE",
"560 12 OFFCURVE",
"617 100 CURVE",
"617 -188 LINE",
"615 -207 OFFCURVE",
"601 -229 OFFCURVE",
"574 -229 CURVE SMOOTH",
"561 -229 OFFCURVE",
"551 -224 OFFCURVE",
"544 -217 CURVE",
"506 -242 LINE",
"522 -263 OFFCURVE",
"545 -275 OFFCURVE",
"573 -275 CURVE SMOOTH"
);
}
);
width = 710;
}
);
leftKerningGroup = O;
rightKerningGroup = j;
unicode = 0047;
userData = {
position = 593;
width = 57;
};
},
{
glyphname = G.ss02;
lastChange = "2019-09-06 17:32:29 +0000";
layers = (
{
anchors = (
{
name = bottom;
position = "{383, -28}";
},
{
name = top;
position = "{398, 702}";
}
);
layerId = "873CAA12-270D-4223-A88E-AE8E101FDBE8";
paths = (
{
closed = 1;
nodes = (
"537 -31 OFFCURVE",
"672 83 OFFCURVE",
"672 256 CURVE SMOOTH",
"672 353 LINE",
"615 353 LINE",
"615 244 LINE SMOOTH",
"615 119 OFFCURVE",
"502 23 OFFCURVE",
"386 23 CURVE SMOOTH",
"210 23 OFFCURVE",
"97 160 OFFCURVE",
"97 330 CURVE SMOOTH",
"97 501 OFFCURVE",
"233 647 OFFCURVE",
"396 647 CURVE SMOOTH",
"465 647 OFFCURVE",
"569 621 OFFCURVE",
"569 555 CURVE",
"623 556 LINE",
"623 652 OFFCURVE",
"504 702 OFFCURVE",
"398 702 CURVE SMOOTH",
"203 702 OFFCURVE",
"43 531 OFFCURVE",
"43 331 CURVE SMOOTH",
"43 136 OFFCURVE",
"175 -31 OFFCURVE",
"382 -31 CURVE SMOOTH"
);
},
{
closed = 1;
nodes = (
"672 296 LINE",
"672 353 LINE",
"372 353 LINE",
"372 296 LINE"
);
}
);
width = 715;
},
{
anchors = (
{
name = bottom;
position = "{385, -16}";
},
{
name = top;
position = "{399, 704}";
}
);
layerId = "0CAF3BED-C4AC-4024-B3E1-4C69D1EF7EC0";
paths = (
{
closed = 1;
nodes = (
"538 -31 OFFCURVE",
"677 86 OFFCURVE",
"677 259 CURVE SMOOTH",
"677 365 LINE",
"598 365 LINE",
"598 248 LINE SMOOTH",
"598 134 OFFCURVE",
"494 45 OFFCURVE",
"388 45 CURVE SMOOTH",
"213 45 OFFCURVE",
"119 173 OFFCURVE",
"119 331 CURVE SMOOTH",
"119 491 OFFCURVE",
"246 627 OFFCURVE",
"397 627 CURVE SMOOTH",
"460 627 OFFCURVE",
"553 603 OFFCURVE",
"553 550 CURVE SMOOTH",
"553 546 OFFCURVE",
"553 542 OFFCURVE",
"552 538 CURVE",
"629 539 LINE",
"638 647 OFFCURVE",
"508 704 OFFCURVE",
"399 704 CURVE SMOOTH",
"205 704 OFFCURVE",
"43 531 OFFCURVE",
"43 332 CURVE SMOOTH",
"43 139 OFFCURVE",
"167 -31 OFFCURVE",
"384 -31 CURVE SMOOTH"
);
},
{
closed = 1;
nodes = (
"677 287 LINE",
"677 365 LINE",
"362 365 LINE",
"362 287 LINE"
);
}
);
width = 720;
},
{
anchors = (
{
name = bottom;
position = "{375, -35}";
},
{
name = top;
position = "{379, 707}";
}
);
layerId = "49C16FD3-6177-408B-A733-AEB3898BB77C";
paths = (
{
closed = 1;
nodes = (
"529 -31 OFFCURVE",
"662 82 OFFCURVE",
"662 255 CURVE SMOOTH",
"662 347 LINE",
"618 347 LINE",
"618 243 LINE SMOOTH",
"618 112 OFFCURVE",
"499 10 OFFCURVE",
"378 10 CURVE SMOOTH",
"196 10 OFFCURVE",
"76 154 OFFCURVE",
"76 331 CURVE SMOOTH",
"76 508 OFFCURVE",
"218 661 OFFCURVE",
"388 661 CURVE SMOOTH",
"457 661 OFFCURVE",
"564 635 OFFCURVE",
"571 567 CURVE",
"612 568 LINE",
"606 657 OFFCURVE",
"494 703 OFFCURVE",
"390 703 CURVE SMOOTH",
"194 703 OFFCURVE",
"35 533 OFFCURVE",
"35 332 CURVE SMOOTH",
"35 135 OFFCURVE",
"166 -31 OFFCURVE",
"374 -31 CURVE SMOOTH"
);
},
{
closed = 1;
nodes = (
"662 303 LINE",
"662 347 LINE",
"371 347 LINE",
"371 303 LINE"
);
}
);
width = 697;
}
);
leftKerningGroup = O;
leftMetricsKey = O;
rightKerningGroup = O;
rightMetricsKey = O;
userData = {
position = 593;
width = 57;
};
},
{
glyphname = H;
lastChange = "2019-09-07 10:37:56 +0000";
layers = (
{
anchors = (
{
name = center;
position = "{384, 355}";
},
{
name = top;
position = "{382, 684}";
}
);
layerId = "873CAA12-270D-4223-A88E-AE8E101FDBE8";
paths = (
{
closed = 1;
nodes = (
"189 0 LINE",
"189 327 LINE",
"558 327 LINE",
"558 0 LINE",
"619 0 LINE",
"619 684 LINE",
"558 684 LINE",
"558 384 LINE",
"189 384 LINE",
"189 599 LINE SMOOTH",
"189 656 OFFCURVE",
"143 692 OFFCURVE",
"95 692 CURVE SMOOTH",
"63 692 OFFCURVE",
"36 677 OFFCURVE",
"18 651 CURVE",
"65 619 LINE",
"72 630 OFFCURVE",
"87 635 OFFCURVE",
"96 635 CURVE SMOOTH",
"114 635 OFFCURVE",
"127 617 OFFCURVE",
"127 599 CURVE SMOOTH",
"127 0 LINE"
);
}
);
width = 705;
},
{
anchors = (
{
name = center;
position = "{380, 355}";
},
{
name = top;
position = "{387, 675}";
}
);
layerId = "0CAF3BED-C4AC-4024-B3E1-4C69D1EF7EC0";
paths = (
{
closed = 1;
nodes = (
"211 -1 LINE",
"211 317 LINE",
"546 317 LINE",
"546 -1 LINE",
"628 -1 LINE",
"628 686 LINE",
"546 686 LINE",
"546 395 LINE",
"211 395 LINE",
"211 589 LINE SMOOTH",
"211 650 OFFCURVE",
"159 691 OFFCURVE",
"108 691 CURVE SMOOTH",
"70 691 OFFCURVE",
"36 669 OFFCURVE",
"18 636 CURVE",
"77 596 LINE",
"85 612 OFFCURVE",
"98 614 OFFCURVE",
"109 613 CURVE SMOOTH",
"121 611 OFFCURVE",
"128 600 OFFCURVE",
"128 589 CURVE SMOOTH",
"128 -1 LINE"
);
}
);
width = 714;
},
{
anchors = (
{
name = center;
position = "{366, 356}";
},
{
name = top;
position = "{364, 692}";
}
);
layerId = "49C16FD3-6177-408B-A733-AEB3898BB77C";
paths = (
{
closed = 1;
nodes = (
"160 1 LINE",
"160 335 LINE",
"550 335 LINE",
"550 1 LINE",
"598 1 LINE",
"598 685 LINE",
"550 685 LINE",
"550 379 LINE",
"160 379 LINE",
"160 602 LINE SMOOTH",
"160 656 OFFCURVE",
"117 690 OFFCURVE",
"71 690 CURVE SMOOTH",
"42 690 OFFCURVE",
"20 678 OFFCURVE",
"2 657 CURVE",
"41 629 LINE",
"49 638 OFFCURVE",
"63 645 OFFCURVE",
"72 645 CURVE SMOOTH",
"93 645 OFFCURVE",
"111 629 OFFCURVE",
"111 602 CURVE SMOOTH",
"111 1 LINE"
);
}
);
width = 684;
}
);
leftKerningGroup = E;
unicode = 0048;
userData = {
position = 554;
width = 61;
};
},
{
glyphname = H.ss02;
lastChange = "2019-09-06 17:32:29 +0000";
layers = (
{
anchors = (
{
name = center;
position = "{337, 458}";
},
{
name = top;
position = "{337, 684}";
}
);
layerId = "873CAA12-270D-4223-A88E-AE8E101FDBE8";
paths = (
{
closed = 1;
nodes = (
"147 0 LINE",
"147 327 LINE",
"516 327 LINE",
"516 0 LINE",
"577 0 LINE",
"577 684 LINE",
"516 684 LINE",
"516 384 LINE",
"147 384 LINE",
"147 684 LINE",
"86 684 LINE",
"86 0 LINE"
);
}
);
width = 663;
},
{
anchors = (
{
name = bottom;
position = "{336, 0}";
},
{
name = center;
position = "{325, 512}";
},
{
name = top;
position = "{323, 684}";
},
{
name = topleft;
position = "{16, 684}";
}
);
layerId = "0CAF3BED-C4AC-4024-B3E1-4C69D1EF7EC0";
paths = (
{
closed = 1;
nodes = (
"168 -1 LINE",
"168 317 LINE",
"503 317 LINE",
"503 -1 LINE",
"585 -1 LINE",
"585 686 LINE",
"503 686 LINE",
"503 395 LINE",
"168 395 LINE",
"168 686 LINE",
"86 686 LINE",
"86 -1 LINE"
);
}
);
width = 671;
},
{
anchors = (
{
name = bottom;
position = "{328, 0}";
},
{
name = center;
position = "{322, 459}";
},
{
name = top;
position = "{325, 684}";
},
{
name = topleft;
position = "{17, 684}";
}
);
layerId = "49C16FD3-6177-408B-A733-AEB3898BB77C";
paths = (
{
closed = 1;
nodes = (
"134 1 LINE",
"134 335 LINE",
"525 335 LINE",
"525 1 LINE",
"573 1 LINE",
"573 685 LINE",
"525 685 LINE",
"525 379 LINE",
"134 379 LINE",
"134 685 LINE",
"86 685 LINE",
"86 1 LINE"
);
}
);
width = 659;
}
);
leftMetricsKey = L;
rightMetricsKey = H;
userData = {
position = 525;
width = 61;
};
},
{
glyphname = Hbar;
lastChange = "2019-09-06 17:32:29 +0000";
layers = (
{
components = (
{
name = H;
}
);
layerId = "873CAA12-270D-4223-A88E-AE8E101FDBE8";
paths = (
{
closed = 1;
nodes = (
"629.768 500.986 LINE",
"629.768 552.986 LINE",
"101.776 552.986 LINE",
"101.776 500.986 LINE"
);
}
);
width = 706;
},
{
components = (
{
name = H;
transform = "{1, 0, 0, 1, 0, 11}";
}
);
layerId = "0CAF3BED-C4AC-4024-B3E1-4C69D1EF7EC0";
paths = (
{
closed = 1;
nodes = (
"623 485 LINE",
"623 559 LINE",
"87 559 LINE",
"87 485 LINE"
);
}
);
width = 714;
},
{
components = (
{
name = H;
transform = "{1, 0, 0, 1, 0, -6}";
}
);
layerId = "49C16FD3-6177-408B-A733-AEB3898BB77C";
paths = (
{
closed = 1;
nodes = (
"615 512 LINE",
"615 551 LINE",
"91 551 LINE",
"91 512 LINE"
);
}
);
width = 701;
}
);
leftKerningGroup = E;
leftMetricsKey = H;
unicode = 0126;
userData = {
position = 554;
width = 61;
};
},
{
glyphname = Hbar.ss02;
lastChange = "2019-09-06 17:32:29 +0000";
layers = (
{
components = (
{
name = H.ss02;
transform = "{1, 0, 0, 1, 3, 0}";
}
);
layerId = "49C16FD3-6177-408B-A733-AEB3898BB77C";
paths = (
{
closed = 1;
nodes = (
"598 512 LINE",
"598 551 LINE",
"74 551 LINE",
"74 512 LINE"
);
}
);
width = 661;
},
{
components = (
{
name = H.ss02;
transform = "{1, 0, 0, 1, 1, 0}";
}
);
layerId = "873CAA12-270D-4223-A88E-AE8E101FDBE8";
paths = (
{
closed = 1;
nodes = (
"601 501 LINE",
"601 553 LINE",
"73 553 LINE",
"73 501 LINE"
);
}
);
width = 666;
},
{
components = (
{
name = H.ss02;
transform = "{1, 0, 0, 1, 1, 0}";
}
);
layerId = "0CAF3BED-C4AC-4024-B3E1-4C69D1EF7EC0";
paths = (
{
closed = 1;
nodes = (
"613 489 LINE",
"613 563 LINE",
"77 563 LINE",
"77 489 LINE"
);
}
);
width = 675;
}
);
},
{
glyphname = I;
lastChange = "2019-09-06 17:32:29 +0000";
layers = (
{
anchors = (
{
name = bottom;
position = "{117, -1}";
},
{
name = ogonek;
position = "{147, 0}";
},
{
name = top;
position = "{114, 684}";
}
);
layerId = "873CAA12-270D-4223-A88E-AE8E101FDBE8";
paths = (
{
closed = 1;
nodes = (
"147 0 LINE",
"147 684 LINE",
"86 684 LINE",
"86 0 LINE"
);
}
);
width = 233;
},
{
anchors = (
{
name = bottom;
position = "{127, 0}";
},
{
name = ogonek;
position = "{168, -1}";
},
{
name = top;
position = "{125, 684}";
}
);
layerId = "0CAF3BED-C4AC-4024-B3E1-4C69D1EF7EC0";
paths = (
{
closed = 1;
nodes = (
"168 -1 LINE",
"168 686 LINE",
"86 686 LINE",
"86 -1 LINE"
);
}
);
width = 254;
},
{
anchors = (
{
name = bottom;
position = "{111, -2}";
},
{
name = ogonek;
position = "{150, 9}";
},
{
name = top;
position = "{108, 692}";
}
);
layerId = "49C16FD3-6177-408B-A733-AEB3898BB77C";
paths = (
{
closed = 1;
nodes = (
"134 1 LINE",
"134 685 LINE",
"86 685 LINE",
"86 1 LINE"
);
}
);
width = 220;
}
);
unicode = 0049;
userData = {
position = 54;
width = 61;
};
},
{
glyphname = J;
lastChange = "2019-09-06 17:32:29 +0000";
layers = (
{
anchors = (
{
name = top;
position = "{231, 682}";
}
);
layerId = "873CAA12-270D-4223-A88E-AE8E101FDBE8";
paths = (
{
closed = 1;
nodes = (
"341 -4 OFFCURVE",
"394 92 OFFCURVE",
"394 191 CURVE SMOOTH",
"394 687 LINE",
"338 687 LINE",
"338 685 OFFCURVE",
"331 679 OFFCURVE",
"320 672 CURVE SMOOTH",
"306 664 OFFCURVE",
"296 660 OFFCURVE",
"284 660 CURVE SMOOTH",
"270 660 OFFCURVE",
"254 665 OFFCURVE",
"231 673 CURVE SMOOTH",
"166 694 OFFCURVE",
"157 696 OFFCURVE",
"141 696 CURVE SMOOTH",
"115 696 OFFCURVE",
"96 691 OFFCURVE",
"37 667 CURVE",
"62 616 LINE",
"87 624 OFFCURVE",
"115 640 OFFCURVE",
"141 640 CURVE SMOOTH",
"173 640 OFFCURVE",
"199 619 OFFCURVE",
"236 610 CURVE SMOOTH",
"247 607 OFFCURVE",
"264 604 OFFCURVE",
"282 604 CURVE SMOOTH",
"301 604 OFFCURVE",
"321 607 OFFCURVE",
"337 617 CURVE",
"337 194 LINE SMOOTH",
"337 130 OFFCURVE",
"311 53 OFFCURVE",
"214 53 CURVE SMOOTH",
"137 53 OFFCURVE",
"92 102 OFFCURVE",
"92 174 CURVE",
"35 179 LINE",
"37 90 OFFCURVE",
"83 -4 OFFCURVE",
"211 -4 CURVE SMOOTH"
);
}
);
width = 469;
},
{
anchors = (
{
name = top;
position = "{241, 673}";
}
);
layerId = "0CAF3BED-C4AC-4024-B3E1-4C69D1EF7EC0";
paths = (
{
closed = 1;
nodes = (
"355 -4 OFFCURVE",
"411 97 OFFCURVE",
"411 196 CURVE SMOOTH",
"411 689 LINE",
"345 689 LINE",
"333 678 LINE",
"333 686 OFFCURVE",
"335 681 OFFCURVE",
"321 673 CURVE",
"322 673 LINE",
"309 666 OFFCURVE",
"302 663 OFFCURVE",
"293 663 CURVE SMOOTH",
"281 663 OFFCURVE",
"267 667 OFFCURVE",
"245 675 CURVE SMOOTH",
"181 696 OFFCURVE",
"171 698 OFFCURVE",
"154 698 CURVE SMOOTH",
"126 698 OFFCURVE",
"104 692 OFFCURVE",
"37 664 CURVE",
"71 595 LINE",
"100 602 OFFCURVE",
"129 620 OFFCURVE",
"154 620 CURVE SMOOTH",
"181 620 OFFCURVE",
"205 601 OFFCURVE",
"243 592 CURVE SMOOTH",
"254 589 OFFCURVE",
"272 585 OFFCURVE",
"291 585 CURVE SMOOTH",
"304 585 OFFCURVE",
"319 587 OFFCURVE",
"332 592 CURVE",
"332 199 LINE SMOOTH",
"332 141 OFFCURVE",
"309 74 OFFCURVE",
"225 74 CURVE SMOOTH",
"153 74 OFFCURVE",
"114 121 OFFCURVE",
"118 191 CURVE",
"40 197 LINE",
"37 106 OFFCURVE",
"84 -4 OFFCURVE",
"222 -4 CURVE SMOOTH"
);
}
);
width = 486;
},
{
anchors = (
{
name = top;
position = "{217, 690}";
}
);
layerId = "49C16FD3-6177-408B-A733-AEB3898BB77C";
paths = (
{
closed = 1;
nodes = (
"324 -3 OFFCURVE",
"376 90 OFFCURVE",
"376 189 CURVE SMOOTH",
"376 688 LINE",
"329 688 LINE",
"325 683 OFFCURVE",
"318 678 OFFCURVE",
"311 673 CURVE",
"296 665 OFFCURVE",
"284 660 OFFCURVE",
"271 660 CURVE SMOOTH",
"255 660 OFFCURVE",
"238 665 OFFCURVE",
"214 674 CURVE",
"148 695 OFFCURVE",
"140 697 OFFCURVE",
"125 697 CURVE SMOOTH",
"100 697 OFFCURVE",
"83 692 OFFCURVE",
"28 671 CURVE",
"48 631 LINE",
"71 640 OFFCURVE",
"98 654 OFFCURVE",
"125 654 CURVE SMOOTH",
"160 654 OFFCURVE",
"187 632 OFFCURVE",
"223 623 CURVE SMOOTH",
"234 620 OFFCURVE",
"251 617 OFFCURVE",
"269 617 CURVE SMOOTH",
"292 617 OFFCURVE",
"315 622 OFFCURVE",
"332 638 CURVE",
"332 192 LINE SMOOTH",
"332 125 OFFCURVE",
"303 41 OFFCURVE",
"199 41 CURVE SMOOTH",
"120 41 OFFCURVE",
"70 92 OFFCURVE",
"68 165 CURVE",
"24 169 LINE",
"28 82 OFFCURVE",
"74 -3 OFFCURVE",
"196 -3 CURVE SMOOTH"
);
}
);
width = 450;
}
);
unicode = 004A;
userData = {
position = 333;
width = 53;
};
},
{
glyphname = K;
lastChange = "2019-09-06 17:32:29 +0000";
layers = (
{
anchors = (
{
name = bottom;
position = "{354, 0}";
},
{
name = top;
position = "{354, 684}";
}
);
layerId = "873CAA12-270D-4223-A88E-AE8E101FDBE8";
paths = (
{
closed = 1;
nodes = (
"579 -8 OFFCURVE",
"631 21 OFFCURVE",
"631 84 CURVE",
"574 83 LINE",
"574 63 OFFCURVE",
"560 49 OFFCURVE",
"540 49 CURVE SMOOTH",
"527 49 OFFCURVE",
"518 55 OFFCURVE",
"512 64 CURVE SMOOTH",
"312 347 LINE",
"330 362 OFFCURVE",
"344 377 OFFCURVE",
"366 408 CURVE SMOOTH",
"383 431 OFFCURVE",
"404 468 OFFCURVE",
"418 493 CURVE SMOOTH",
"440 532 OFFCURVE",
"449 548 OFFCURVE",
"521 684 CURVE",
"446 684 LINE",
"409 606 OFFCURVE",
"389 565 OFFCURVE",
"369 529 CURVE SMOOTH",
"350 495 OFFCURVE",
"324 453 OFFCURVE",
"301 424 CURVE SMOOTH",
"288 408 OFFCURVE",
"279 397 OFFCURVE",
"255 386 CURVE SMOOTH",
"240 379 OFFCURVE",
"221 373 OFFCURVE",
"190 372 CURVE SMOOTH",
"147 371 LINE",
"147 684 LINE",
"86 684 LINE",
"86 1 LINE",
"149 1 LINE",
"149 313 LINE",
"208 312 OFFCURVE",
"225 314 OFFCURVE",
"258 324 CURVE",
"465 31 LINE SMOOTH",
"482 6 OFFCURVE",
"510 -8 OFFCURVE",
"538 -8 CURVE SMOOTH"
);
}
);
width = 653;
},
{
anchors = (
{
name = bottom;
position = "{356, 11}";
},
{
name = top;
position = "{356, 675}";
}
);
layerId = "0CAF3BED-C4AC-4024-B3E1-4C69D1EF7EC0";
paths = (
{
closed = 1;
nodes = (
"580 -8 OFFCURVE",
"643 28 OFFCURVE",
"636 104 CURVE",
"556 103 LINE",
"558 99 OFFCURVE",
"558 95 OFFCURVE",
"558 92 CURVE SMOOTH",
"558 79 OFFCURVE",
"549 70 OFFCURVE",
"537 70 CURVE SMOOTH",
"528 70 OFFCURVE",
"524 73 OFFCURVE",
"519 80 CURVE SMOOTH",
"331 346 LINE",
"346 359 OFFCURVE",
"359 374 OFFCURVE",
"377 400 CURVE SMOOTH",
"394 423 OFFCURVE",
"415 459 OFFCURVE",
"429 484 CURVE SMOOTH",
"451 523 OFFCURVE",
"459 538 OFFCURVE",
"538 686 CURVE",
"438 686 LINE",
"400 606 OFFCURVE",
"381 566 OFFCURVE",
"361 530 CURVE SMOOTH",
"342 497 OFFCURVE",
"318 457 OFFCURVE",
"296 430 CURVE SMOOTH",
"283 414 OFFCURVE",
"276 406 OFFCURVE",
"255 396 CURVE SMOOTH",
"242 390 OFFCURVE",
"225 385 OFFCURVE",
"197 384 CURVE SMOOTH",
"167 383 LINE",
"167 686 LINE",
"85 686 LINE",
"85 0 LINE",
"169 0 LINE",
"169 303 LINE",
"214 302 OFFCURVE",
"232 305 OFFCURVE",
"259 312 CURVE",
"455 34 LINE SMOOTH",
"473 8 OFFCURVE",
"505 -8 OFFCURVE",
"535 -8 CURVE SMOOTH"
);
}
);
width = 660;
},
{
anchors = (
{
name = bottom;
position = "{352, -6}";
},
{
name = top;
position = "{352, 692}";
}
);
layerId = "49C16FD3-6177-408B-A733-AEB3898BB77C";
paths = (
{
closed = 1;
nodes = (
"578 -7 OFFCURVE",
"624 17 OFFCURVE",
"628 72 CURVE",
"583 72 LINE",
"580 52 OFFCURVE",
"563 37 OFFCURVE",
"542 37 CURVE SMOOTH",
"527 37 OFFCURVE",
"515 45 OFFCURVE",
"508 55 CURVE SMOOTH",
"300 349 LINE",
"321 366 OFFCURVE",
"335 380 OFFCURVE",
"359 414 CURVE SMOOTH",
"376 437 OFFCURVE",
"397 475 OFFCURVE",
"411 500 CURVE SMOOTH",
"433 539 OFFCURVE",
"443 556 OFFCURVE",
"511 685 CURVE",
"451 685 LINE",
"414 608 OFFCURVE",
"394 566 OFFCURVE",
"374 530 CURVE SMOOTH",
"355 495 OFFCURVE",
"328 452 OFFCURVE",
"304 422 CURVE SMOOTH",
"291 406 OFFCURVE",
"280 393 OFFCURVE",
"254 381 CURVE SMOOTH",
"239 374 OFFCURVE",
"218 367 OFFCURVE",
"185 366 CURVE SMOOTH",
"134 365 LINE",
"134 685 LINE",
"86 685 LINE",
"86 2 LINE",
"136 2 LINE",
"136 321 LINE",
"151 321 OFFCURVE",
"163 320 OFFCURVE",
"174 320 CURVE SMOOTH",
"212 320 OFFCURVE",
"227 324 OFFCURVE",
"257 333 CURVE",
"471 30 LINE SMOOTH",
"488 6 OFFCURVE",
"513 -7 OFFCURVE",
"540 -7 CURVE SMOOTH"
);
}
);
width = 634;
}
);
rightKerningGroup = K;
unicode = 004B;
userData = {
position = 542;
width = 57;
};
},
{
glyphname = K.ss02;
lastChange = "2019-09-06 17:32:29 +0000";
layers = (
{
anchors = (
{
name = bottom;
position = "{354, 0}";
},
{
name = top;
position = "{354, 684}";
}
);
layerId = "873CAA12-270D-4223-A88E-AE8E101FDBE8";
paths = (
{
closed = 1;
nodes = (
"566 -8 OFFCURVE",
"588 3 OFFCURVE",
"605 20 CURVE",
"564 59 LINE",
"557 52 OFFCURVE",
"549 49 OFFCURVE",
"540 49 CURVE SMOOTH",
"527 49 OFFCURVE",
"518 55 OFFCURVE",
"512 64 CURVE SMOOTH",
"312 347 LINE",
"332 363 OFFCURVE",
"353 389 OFFCURVE",
"366 408 CURVE SMOOTH",
"380 428 OFFCURVE",
"402 464 OFFCURVE",
"418 492 CURVE SMOOTH",
"446 541 OFFCURVE",
"483 618 OFFCURVE",
"519 684 CURVE",
"446 684 LINE",
"408 604 OFFCURVE",
"389 565 OFFCURVE",
"369 529 CURVE SMOOTH",
"351 497 OFFCURVE",
"324 452 OFFCURVE",
"300 423 CURVE SMOOTH",
"271 387 OFFCURVE",
"243 375 OFFCURVE",
"190 372 CURVE SMOOTH",
"147 371 LINE",
"147 684 LINE",
"86 684 LINE",
"86 1 LINE",
"149 1 LINE",
"149 313 LINE",
"155 313 OFFCURVE",
"163 312 OFFCURVE",
"171 312 CURVE SMOOTH",
"196 312 OFFCURVE",
"228 315 OFFCURVE",
"258 324 CURVE",
"465 31 LINE SMOOTH",
"482 6 OFFCURVE",
"510 -8 OFFCURVE",
"540 -8 CURVE SMOOTH"
);
}
);
width = 624;
},
{
anchors = (
{
name = bottom;
position = "{356, 11}";
},
{
name = top;
position = "{356, 675}";
}
);
layerId = "0CAF3BED-C4AC-4024-B3E1-4C69D1EF7EC0";
paths = (
{
closed = 1;
nodes = (
"569 -8 OFFCURVE",
"598 9 OFFCURVE",
"616 31 CURVE",
"559 85 LINE",
"549 73 OFFCURVE",
"546 70 OFFCURVE",
"537 70 CURVE SMOOTH",
"528 70 OFFCURVE",
"524 73 OFFCURVE",
"519 80 CURVE SMOOTH",
"331 346 LINE",
"349 362 OFFCURVE",
"366 384 OFFCURVE",
"378 400 CURVE",
"391 420 OFFCURVE",
"413 455 OFFCURVE",
"429 483 CURVE SMOOTH",
"458 535 OFFCURVE",
"498 619 OFFCURVE",
"536 686 CURVE",
"438 686 LINE",
"399 604 OFFCURVE",
"381 566 OFFCURVE",
"361 530 CURVE SMOOTH",
"343 499 OFFCURVE",
"318 456 OFFCURVE",
"295 429 CURVE",
"269 396 OFFCURVE",
"246 386 OFFCURVE",
"197 384 CURVE SMOOTH",
"167 383 LINE",
"167 686 LINE",
"85 686 LINE",
"85 0 LINE",
"169 0 LINE",
"169 302 LINE",
"179 302 LINE SMOOTH",
"201 302 OFFCURVE",
"231 305 OFFCURVE",
"258 312 CURVE",
"455 34 LINE SMOOTH",
"473 8 OFFCURVE",
"505 -8 OFFCURVE",
"537 -8 CURVE SMOOTH"
);
}
);
width = 635;
},
{
anchors = (
{
name = bottom;
position = "{352, -6}";
},
{
name = top;
position = "{352, 692}";
}
);
layerId = "49C16FD3-6177-408B-A733-AEB3898BB77C";
paths = (
{
closed = 1;
nodes = (
"564 -7 OFFCURVE",
"583 1 OFFCURVE",
"598 14 CURVE",
"566 45 LINE",
"559 39 OFFCURVE",
"550 37 OFFCURVE",
"542 37 CURVE SMOOTH",
"527 37 OFFCURVE",
"515 45 OFFCURVE",
"508 55 CURVE SMOOTH",
"300 349 LINE",
"321 365 OFFCURVE",
"344 393 OFFCURVE",
"359 414 CURVE SMOOTH",
"373 434 OFFCURVE",
"395 471 OFFCURVE",
"412 499 CURVE",
"438 547 OFFCURVE",
"474 620 OFFCURVE",
"509 685 CURVE",
"451 685 LINE",
"413 606 OFFCURVE",
"394 566 OFFCURVE",
"374 530 CURVE SMOOTH",
"356 497 OFFCURVE",
"328 451 OFFCURVE",
"303 421 CURVE SMOOTH",
"272 383 OFFCURVE",
"241 369 OFFCURVE",
"186 366 CURVE",
"134 365 LINE",
"134 685 LINE",
"86 685 LINE",
"86 2 LINE",
"136 2 LINE",
"136 320 LINE",
"143 321 OFFCURVE",
"155 319 OFFCURVE",
"166 319 CURVE SMOOTH",
"192 319 OFFCURVE",
"226 323 OFFCURVE",
"257 333 CURVE",
"471 30 LINE SMOOTH",
"488 6 OFFCURVE",
"513 -7 OFFCURVE",
"542 -7 CURVE SMOOTH"
);
}
);
width = 601;
}
);
rightKerningGroup = K;
userData = {
position = 542;
width = 57;
};
},
{
glyphname = L;
lastChange = "2019-09-06 17:32:29 +0000";
layers = (
{
anchors = (
{
name = bottom;
position = "{288, 0}";
},
{
name = top;
position = "{288, 684}";
}
);
layerId = "873CAA12-270D-4223-A88E-AE8E101FDBE8";
paths = (
{
closed = 1;
nodes = (
"474 0 LINE",
"474 57 LINE",
"147 57 LINE",
"147 684 LINE",
"86 684 LINE",
"86 0 LINE"
);
}
);
width = 498;
},
{
anchors = (
{
name = bottom;
position = "{293, 11}";
},
{
name = top;
position = "{293, 675}";
}
);
layerId = "0CAF3BED-C4AC-4024-B3E1-4C69D1EF7EC0";
paths = (
{
closed = 1;
nodes = (
"485 -1 LINE",
"485 78 LINE",
"168 78 LINE",
"168 686 LINE",
"86 686 LINE",
"86 -1 LINE"
);
}
);
width = 511;
},
{
anchors = (
{
name = bottom;
position = "{285, -6}";
},
{
name = top;
position = "{285, 692}";
}
);
layerId = "49C16FD3-6177-408B-A733-AEB3898BB77C";
paths = (
{
closed = 1;
nodes = (
"468 1 LINE",
"468 45 LINE",
"134 45 LINE",
"134 685 LINE",
"86 685 LINE",
"86 1 LINE"
);
}
);
width = 475;
}
);
rightKerningGroup = L;
unicode = 004C;
userData = {
position = 54;
width = 61;
};
},
{
glyphname = Lslash;
lastChange = "2019-09-06 17:32:29 +0000";
layers = (
{
components = (
{
name = L;
transform = "{1, 0, 0, 1, 17, 0}";
}
);
layerId = "873CAA12-270D-4223-A88E-AE8E101FDBE8";
paths = (
{
closed = 1;
nodes = (
"247 427 LINE",
"247 491 LINE",
"27 332 LINE",
"27 269 LINE"
);
}
);
width = 515;
},
{
components = (
{
name = L;
transform = "{1, 0, 0, 1, 20, 11}";
}
);
layerId = "0CAF3BED-C4AC-4024-B3E1-4C69D1EF7EC0";
paths = (
{
closed = 1;
nodes = (
"266 419 LINE",
"266 510 LINE",
"29 339 LINE",
"29 249 LINE"
);
}
);
width = 531;
},
{
components = (
{
name = L;
transform = "{1, 0, 0, 1, 17, 0}";
}
);
layerId = "49C16FD3-6177-408B-A733-AEB3898BB77C";
paths = (
{
closed = 1;
nodes = (
"226 433 LINE",
"226 481 LINE",
"16 329 LINE",
"16 282 LINE"
);
}
);
width = 492;
}
);
rightKerningGroup = L;
unicode = 0141;
userData = {
position = 87;
width = 61;
};
},
{
glyphname = M;
lastChange = "2019-09-06 17:33:14 +0000";
layers = (
{
layerId = "873CAA12-270D-4223-A88E-AE8E101FDBE8";
paths = (
{
closed = 1;
nodes = (
"144 -17 OFFCURVE",
"178 15 OFFCURVE",
"186 54 CURVE SMOOTH",
"291 561 LINE",
"297 601 LINE",
"308 561 LINE",
"510 0 LINE",
"569 0 LINE",
"772 562 LINE",
"783 601 LINE",
"789 563 LINE",
"902 0 LINE",
"959 0 LINE",
"819 684 LINE",
"762 684 LINE",
"551 113 LINE",
"540 74 LINE",
"529 113 LINE",
"320 684 LINE",
"261 684 LINE",
"130 61 LINE",
"125 46 OFFCURVE",
"115 39 OFFCURVE",
"101 39 CURVE SMOOTH",
"85 39 OFFCURVE",
"77 47 OFFCURVE",
"70 59 CURVE",
"18 38 LINE",
"31 7 OFFCURVE",
"63 -17 OFFCURVE",
"101 -17 CURVE SMOOTH"
);
}
);
width = 993;
},
{
layerId = "0CAF3BED-C4AC-4024-B3E1-4C69D1EF7EC0";
paths = (
{
closed = 1;
nodes = (
"162 -12 OFFCURVE",
"201 24 OFFCURVE",
"210 66 CURVE SMOOTH",
"312 553 LINE",
"312 554 LINE",
"310 538 LINE",
"306 552 LINE",
"306 551 LINE",
"505 -1 LINE",
"578 -1 LINE",
"778 552 LINE",
"778 553 LINE",
"775 540 LINE",
"772 555 LINE",
"884 -1 LINE",
"963 -1 LINE",
"822 686 LINE",
"749 686 LINE",
"542 125 LINE",
"542 126 LINE",
"543 124 LINE",
"542 125 LINE",
"337 686 LINE",
"262 686 LINE",
"133 78 LINE",
"129 68 OFFCURVE",
"125 65 OFFCURVE",
"116 65 CURVE SMOOTH",
"103 65 OFFCURVE",
"101 70 OFFCURVE",
"91 88 CURVE",
"21 59 LINE",
"31 22 OFFCURVE",
"71 -12 OFFCURVE",
"116 -12 CURVE SMOOTH"
);
}
);
width = 997;
},
{
layerId = "49C16FD3-6177-408B-A733-AEB3898BB77C";
rightMetricsKey = "=A+10";
paths = (
{
closed = 1;
nodes = (
"120 -11 OFFCURVE",
"151 18 OFFCURVE",
"159 56 CURVE SMOOTH",
"266 568 LINE",
"277 641 LINE",
"297 568 LINE",
"297 569 LINE",
"501 1 LINE",
"551 1 LINE",
"757 570 LINE",
"756 569 LINE",
"776 640 LINE",
"788 569 LINE",
"902 1 LINE",
"945 1 LINE",
"805 685 LINE",
"758 685 LINE",
"545 107 LINE",
"527 43 LINE",
"509 107 LINE",
"297 685 LINE",
"248 685 LINE",
"116 60 LINE",
"115 59 LINE",
"109 42 OFFCURVE",
"95 32 OFFCURVE",
"79 32 CURVE SMOOTH",
"62 32 OFFCURVE",
"52 40 OFFCURVE",
"45 51 CURVE",
"4 34 LINE",
"18 8 OFFCURVE",
"45 -11 OFFCURVE",
"79 -11 CURVE SMOOTH"
);
}
);
width = 965;
}
);
leftKerningGroup = A;
leftMetricsKey = A;
rightKerningGroup = A;
rightMetricsKey = "=A+10";
unicode = 004D;
userData = {
position = 664;
width = 20;
};
},
{
glyphname = M.ss02;
lastChange = "2019-09-06 17:32:29 +0000";
layers = (
{
layerId = "873CAA12-270D-4223-A88E-AE8E101FDBE8";
paths = (
{
closed = 1;
nodes = (
"147 0 LINE",
"147 454 LINE SMOOTH",
"147 484 OFFCURVE",
"143 524 OFFCURVE",
"139 557 CURVE",
"162 521 OFFCURVE",
"190 481 OFFCURVE",
"212 454 CURVE SMOOTH",
"334 303 OFFCURVE",
"361 272 OFFCURVE",
"386 243 CURVE",
"461 323 OFFCURVE",
"596 484 OFFCURVE",
"657 568 CURVE",
"653 534 OFFCURVE",
"649 487 OFFCURVE",
"649 454 CURVE SMOOTH",
"649 0 LINE",
"710 0 LINE",
"710 693 LINE",
"691 693 LINE",
"392 330 LINE",
"376 346 OFFCURVE",
"381 341 OFFCURVE",
"105 693 CURVE",
"86 693 LINE",
"86 0 LINE"
);
}
);
width = 796;
},
{
layerId = "0CAF3BED-C4AC-4024-B3E1-4C69D1EF7EC0";
paths = (
{
closed = 1;
nodes = (
"169 -1 LINE",
"169 452 LINE SMOOTH",
"169 467 OFFCURVE",
"168 486 OFFCURVE",
"166 505 CURVE",
"182 483 OFFCURVE",
"198 461 OFFCURVE",
"211 444 CURVE SMOOTH",
"343 281 OFFCURVE",
"361 262 OFFCURVE",
"389 229 CURVE",
"451 295 OFFCURVE",
"567 432 OFFCURVE",
"636 522 CURVE",
"634 497 OFFCURVE",
"633 472 OFFCURVE",
"633 452 CURVE SMOOTH",
"633 -1 LINE",
"715 -1 LINE",
"715 695 LINE",
"680 695 LINE",
"394 348 LINE",
"122 695 LINE",
"87 695 LINE",
"87 -1 LINE"
);
}
);
width = 802;
},
{
layerId = "49C16FD3-6177-408B-A733-AEB3898BB77C";
paths = (
{
closed = 1;
nodes = (
"134 1 LINE",
"134 457 LINE SMOOTH",
"134 498 OFFCURVE",
"127 558 OFFCURVE",
"122 594 CURVE",
"147 552 OFFCURVE",
"185 496 OFFCURVE",
"213 462 CURVE SMOOTH",
"329 318 OFFCURVE",
"361 281 OFFCURVE",
"385 253 CURVE",
"470 344 OFFCURVE",
"622 526 OFFCURVE",
"672 600 CURVE",
"667 568 OFFCURVE",
"660 501 OFFCURVE",
"660 457 CURVE SMOOTH",
"660 1 LINE",
"708 1 LINE",
"708 694 LINE",
"699 694 LINE",
"397 326 LINE",
"386 326 LINE",
"370 342 OFFCURVE",
"302 430 OFFCURVE",
"95 694 CURVE",
"86 694 LINE",
"86 1 LINE"
);
}
);
width = 794;
}
);
userData = {
position = 658;
width = 61;
};
},
{
glyphname = N;
lastChange = "2019-09-06 17:32:29 +0000";
layers = (
{
anchors = (
{
name = bottom;
position = "{428, 0}";
},
{
name = top;
position = "{427, 684}";
}
);
layerId = "873CAA12-270D-4223-A88E-AE8E101FDBE8";
paths = (
{
closed = 1;
nodes = (
"149 -14 OFFCURVE",
"207 10 OFFCURVE",
"206 75 CURVE SMOOTH",
"202 584 LINE",
"216 563 LINE",
"687 0 LINE",
"705 0 LINE",
"705 683 LINE",
"646 683 LINE",
"649 129 LINE",
"635 151 LINE",
"295 559 LINE",
"184 684 LINE",
"146 684 LINE",
"146 75 LINE",
"145 59 OFFCURVE",
"133 42 OFFCURVE",
"112 42 CURVE SMOOTH",
"95 42 OFFCURVE",
"77 54 OFFCURVE",
"77 76 CURVE",
"21 76 LINE",
"21 26 OFFCURVE",
"63 -14 OFFCURVE",
"109 -14 CURVE SMOOTH"
);
}
);
width = 791;
},
{
anchors = (
{
name = bottom;
position = "{429, 11}";
},
{
name = top;
position = "{428, 675}";
}
);
layerId = "0CAF3BED-C4AC-4024-B3E1-4C69D1EF7EC0";
paths = (
{
closed = 1;
nodes = (
"162 -14 OFFCURVE",
"226 8 OFFCURVE",
"226 84 CURVE",
"222 539 LINE",
"214 550 LINE",
"675 -1 LINE",
"710 -1 LINE",
"710 685 LINE",
"629 685 LINE",
"632 177 LINE",
"634 170 LINE",
"309 561 LINE",
"198 686 LINE",
"144 686 LINE",
"144 84 LINE SMOOTH",
"144 74 OFFCURVE",
"135 63 OFFCURVE",
"123 63 CURVE SMOOTH",
"111 63 OFFCURVE",
"100 74 OFFCURVE",
"100 90 CURVE SMOOTH",
"100 92 OFFCURVE",
"100 94 OFFCURVE",
"101 96 CURVE",
"24 96 LINE",
"23 92 OFFCURVE",
"23 88 OFFCURVE",
"23 84 CURVE SMOOTH",
"23 31 OFFCURVE",
"71 -14 OFFCURVE",
"120 -14 CURVE SMOOTH"
);
}
);
width = 795;
},
{
anchors = (
{
name = bottom;
position = "{413, -6}";
},
{
name = top;
position = "{412, 692}";
}
);
layerId = "49C16FD3-6177-408B-A733-AEB3898BB77C";
paths = (
{
closed = 1;
nodes = (
"127 -8 OFFCURVE",
"180 13 OFFCURVE",
"180 76 CURVE",
"176 614 LINE",
"203 572 LINE",
"203 573 LINE",
"681 1 LINE",
"689 1 LINE",
"689 684 LINE",
"643 684 LINE",
"646 101 LINE",
"619 144 LINE",
"619 143 LINE",
"272 560 LINE",
"161 685 LINE",
"133 685 LINE",
"133 76 LINE",
"132 57 OFFCURVE",
"116 35 OFFCURVE",
"91 35 CURVE SMOOTH",
"73 35 OFFCURVE",
"53 48 OFFCURVE",
"49 70 CURVE",
"6 70 LINE",
"9 25 OFFCURVE",
"46 -8 OFFCURVE",
"88 -8 CURVE SMOOTH"
);
}
);
width = 775;
}
);
leftKerningGroup = N;
unicode = 004E;
userData = {
position = 642;
width = 56;
};
},
{
glyphname = N.ss02;
lastChange = "2019-09-06 17:32:29 +0000";
layers = (
{
anchors = (
{
name = bottom;
position = "{378, 0}";
},
{
name = top;
position = "{378, 684}";
}
);
layerId = "873CAA12-270D-4223-A88E-AE8E101FDBE8";
paths = (
{
closed = 1;
nodes = (
"657 -1 LINE",
"657 685 LINE",
"596 685 LINE",
"600 107 LINE",
"588 119 OFFCURVE",
"579 128 OFFCURVE",
"566 144 CURVE",
"105 694 LINE",
"86 694 LINE",
"86 0 LINE",
"147 0 LINE",
"147 455 LINE SMOOTH",
"147 470 OFFCURVE",
"146 488 OFFCURVE",
"145 507 CURVE SMOOTH",
"140 561 LINE",
"153 542 OFFCURVE",
"166 523 OFFCURVE",
"180 504 CURVE SMOOTH",
"194 485 OFFCURVE",
"207 469 OFFCURVE",
"219 455 CURVE SMOOTH",
"527 98 LINE",
"631 -1 LINE"
);
}
);
width = 743;
},
{
anchors = (
{
name = bottom;
position = "{382, 0}";
},
{
name = top;
position = "{382, 684}";
}
);
layerId = "0CAF3BED-C4AC-4024-B3E1-4C69D1EF7EC0";
paths = (
{
closed = 1;
nodes = (
"169 -1 LINE",
"169 452 LINE SMOOTH",
"169 467 OFFCURVE",
"168 485 OFFCURVE",
"167 504 CURVE",
"167 512 LINE",
"180 493 LINE",
"194 474 OFFCURVE",
"207 459 OFFCURVE",
"219 445 CURVE SMOOTH",
"518 98 LINE",
"622 -1 LINE",
"664 -1 LINE",
"664 687 LINE",
"581 687 LINE",
"585 146 LINE",
"586 144 OFFCURVE",
"587 143 OFFCURVE",
"588 142 CURVE",
"573 159 LINE",
"122 696 LINE",
"87 696 LINE",
"87 -1 LINE"
);
}
);
width = 750;
},
{
anchors = (
{
name = bottom;
position = "{378, 0}";
},
{
name = top;
position = "{357, 684}";
}
);
layerId = "49C16FD3-6177-408B-A733-AEB3898BB77C";
paths = (
{
closed = 1;
nodes = (
"654 0 LINE",
"654 686 LINE",
"606 686 LINE",
"611 71 LINE",
"590 96 OFFCURVE",
"576 122 OFFCURVE",
"578 119 CURVE",
"563 136 LINE",
"95 695 LINE",
"86 695 LINE",
"86 1 LINE",
"134 1 LINE",
"134 458 LINE SMOOTH",
"134 473 OFFCURVE",
"133 491 OFFCURVE",
"132 511 CURVE",
"124 593 LINE",
"180 512 LINE",
"195 493 OFFCURVE",
"208 477 OFFCURVE",
"220 463 CURVE SMOOTH",
"534 99 LINE",
"533 99 LINE",
"637 0 LINE"
);
}
);
width = 740;
}
);
userData = {
position = 605;
width = 61;
};
},
{
glyphname = Eng;
lastChange = "2019-09-06 17:32:29 +0000";
layers = (
{
components = (
{
name = N;
}
);
layerId = "873CAA12-270D-4223-A88E-AE8E101FDBE8";
paths = (
{
closed = 1;
nodes = (
"660 -210 OFFCURVE",
"698 -170 OFFCURVE",
"698 -120 CURVE SMOOTH",
"698 551 LINE",
"643 551 LINE",
"643 -120 LINE SMOOTH",
"643 -140 OFFCURVE",
"629 -155 OFFCURVE",
"608 -155 CURVE SMOOTH",
"596 -155 OFFCURVE",
"587 -150 OFFCURVE",
"580 -140 CURVE",
"534 -170 LINE",
"552 -197 OFFCURVE",
"578 -210 OFFCURVE",
"608 -210 CURVE SMOOTH"
);
}
);
width = 791;
},
{
anchors = (
{
name = top;
position = "{934, 496}";
}
);
components = (
{
name = N;
}
);
layerId = "0CAF3BED-C4AC-4024-B3E1-4C69D1EF7EC0";
paths = (
{
closed = 1;
nodes = (
"660 -203 OFFCURVE",
"704 -157 OFFCURVE",
"704 -104 CURVE SMOOTH",
"704 559 LINE",
"627 559 LINE",
"627 -104 LINE SMOOTH",
"627 -116 OFFCURVE",
"618 -126 OFFCURVE",
"605 -126 CURVE SMOOTH",
"593 -126 OFFCURVE",
"590 -122 OFFCURVE",
"581 -107 CURVE",
"517 -149 LINE",
"536 -184 OFFCURVE",
"569 -203 OFFCURVE",
"605 -203 CURVE SMOOTH"
);
}
);
width = 795;
},
{
anchors = (
{
name = top;
position = "{905, 504}";
}
);
components = (
{
name = N;
}
);
layerId = "49C16FD3-6177-408B-A733-AEB3898BB77C";
paths = (
{
closed = 1;
nodes = (
"660 -204 OFFCURVE",
"695 -167 OFFCURVE",
"695 -119 CURVE SMOOTH",
"695 558 LINE",
"653 558 LINE",
"653 -119 LINE SMOOTH",
"653 -143 OFFCURVE",
"635 -162 OFFCURVE",
"610 -162 CURVE SMOOTH",
"599 -162 OFFCURVE",
"588 -158 OFFCURVE",
"580 -149 CURVE",
"545 -172 LINE",
"562 -194 OFFCURVE",
"584 -204 OFFCURVE",
"610 -204 CURVE SMOOTH"
);
}
);
width = 781;
}
);
leftKerningGroup = N;
leftMetricsKey = N;
rightMetricsKey = N;
unicode = 014A;
},
{
glyphname = O;
lastChange = "2019-09-06 17:32:29 +0000";
layers = (
{
anchors = (
{
name = bottom;
position = "{402, -27}";
},
{
name = center;
position = "{403, 342}";
},
{
name = horn;
position = "{700, 530}";
},
{
name = ogonek;
position = "{652, 83}";
},
{
name = top;
position = "{398, 684}";
},
{
name = topleft;
position = "{30, 684}";
},
{
name = topright;
position = "{799, 684}";
}
);
layerId = "873CAA12-270D-4223-A88E-AE8E101FDBE8";
paths = (
{
closed = 1;
nodes = (
"601 -27 OFFCURVE",
"756 134 OFFCURVE",
"756 330 CURVE SMOOTH",
"756 349 LINE SMOOTH",
"756 542 OFFCURVE",
"598 706 OFFCURVE",
"399 706 CURVE SMOOTH",
"198 706 OFFCURVE",
"43 540 OFFCURVE",
"43 349 CURVE SMOOTH",
"43 330 LINE SMOOTH",
"43 136 OFFCURVE",
"204 -27 OFFCURVE",
"403 -27 CURVE SMOOTH"
);
},
{
closed = 1;
nodes = (
"240 28 OFFCURVE",
"106 162 OFFCURVE",
"106 330 CURVE SMOOTH",
"106 349 LINE SMOOTH",
"106 509 OFFCURVE",
"233 651 OFFCURVE",
"398 651 CURVE SMOOTH",
"556 651 OFFCURVE",
"693 519 OFFCURVE",
"693 349 CURVE SMOOTH",
"693 330 LINE SMOOTH",
"693 166 OFFCURVE",
"563 28 OFFCURVE",
"400 28 CURVE SMOOTH"
);
}
);
width = 799;
},
{
anchors = (
{
name = bottom;
position = "{404, -27}";
},
{
name = center;
position = "{390, 349}";
},
{
name = horn;
position = "{693, 525}";
},
{
name = ogonek;
position = "{642, 68}";
},
{
name = top;
position = "{400, 708}";
},
{
name = topleft;
position = "{28, 684}";
},
{
name = topright;
position = "{803, 684}";
}
);
layerId = "0CAF3BED-C4AC-4024-B3E1-4C69D1EF7EC0";
paths = (
{
closed = 1;
nodes = (
"601 -30 OFFCURVE",
"758 136 OFFCURVE",
"758 331 CURVE SMOOTH",
"758 350 LINE SMOOTH",
"758 541 OFFCURVE",
"598 708 OFFCURVE",
"400 708 CURVE SMOOTH",
"200 708 OFFCURVE",
"43 539 OFFCURVE",
"43 350 CURVE SMOOTH",
"43 331 LINE SMOOTH",
"43 138 OFFCURVE",
"196 -24 OFFCURVE",
"404 -27 CURVE SMOOTH"
);
},
{
closed = 1;
nodes = (
"253 44 OFFCURVE",
"128 175 OFFCURVE",
"128 331 CURVE SMOOTH",
"128 350 LINE SMOOTH",
"128 498 OFFCURVE",
"246 638 OFFCURVE",
"399 638 CURVE SMOOTH",
"546 638 OFFCURVE",
"674 508 OFFCURVE",
"674 350 CURVE SMOOTH",
"674 331 LINE SMOOTH",
"674 179 OFFCURVE",
"552 44 OFFCURVE",
"401 44 CURVE SMOOTH"
);
}
);
width = 801;
},
{
anchors = (
{
name = bottom;
position = "{394, -34}";
},
{
name = center;
position = "{385, 342}";
},
{
name = horn;
position = "{701, 534}";
},
{
name = ogonek;
position = "{652, 79}";
},
{
name = top;
position = "{390, 692}";
},
{
name = topleft;
position = "{20, 684}";
},
{
name = topright;
position = "{793, 684}";
}
);
layerId = "49C16FD3-6177-408B-A733-AEB3898BB77C";
paths = (
{
closed = 1;
nodes = (
"594 -26 OFFCURVE",
"748 134 OFFCURVE",
"748 331 CURVE SMOOTH",
"748 350 LINE SMOOTH",
"748 544 OFFCURVE",
"591 707 OFFCURVE",
"391 707 CURVE SMOOTH",
"189 707 OFFCURVE",
"35 542 OFFCURVE",
"35 350 CURVE SMOOTH",
"35 331 LINE SMOOTH",
"35 136 OFFCURVE",
"195 -26 OFFCURVE",
"395 -26 CURVE SMOOTH"
);
},
{
closed = 1;
nodes = (
"224 15 OFFCURVE",
"82 156 OFFCURVE",
"82 331 CURVE SMOOTH",
"82 350 LINE SMOOTH",
"82 516 OFFCURVE",
"216 665 OFFCURVE",
"390 665 CURVE SMOOTH",
"556 665 OFFCURVE",
"701 526 OFFCURVE",
"701 350 CURVE SMOOTH",
"701 331 LINE SMOOTH",
"701 160 OFFCURVE",
"563 15 OFFCURVE",
"392 15 CURVE SMOOTH"
);
}
);
width = 783;
}
);
leftKerningGroup = O;
rightKerningGroup = O;
unicode = 004F;
userData = {
position = 683;
width = 56;
};
},
{
glyphname = P;
lastChange = "2019-09-06 17:32:29 +0000";
layers = (
{
layerId = "873CAA12-270D-4223-A88E-AE8E101FDBE8";
paths = (
{
closed = 1;
nodes = (
"209 -1 LINE",
"209 628 LINE",
"341 628 LINE SMOOTH",
"428 625 OFFCURVE",
"488 579 OFFCURVE",
"488 471 CURVE SMOOTH",
"488 355 OFFCURVE",
"420 314 OFFCURVE",
"321 314 CURVE SMOOTH",
"306 314 OFFCURVE",
"281 315 OFFCURVE",
"250 317 CURVE",
"250 262 LINE",
"279 259 OFFCURVE",
"306 257 OFFCURVE",
"326 257 CURVE SMOOTH",
"443 257 OFFCURVE",
"547 323 OFFCURVE",
"547 472 CURVE SMOOTH",
"547 593 OFFCURVE",
"479 684 OFFCURVE",
"355 684 CURVE SMOOTH",
"125 684 LINE SMOOTH",
"95 684 OFFCURVE",
"71 671 OFFCURVE",
"52 652 CURVE SMOOTH",
"33 633 OFFCURVE",
"22 608 OFFCURVE",
"22 579 CURVE",
"78 579 LINE",
"78 594 OFFCURVE",
"84 605 OFFCURVE",
"93 614 CURVE SMOOTH",
"104 625 OFFCURVE",
"110 628 OFFCURVE",
"148 628 CURVE",
"148 -1 LINE"
);
}
);
width = 583;
},
{
layerId = "0CAF3BED-C4AC-4024-B3E1-4C69D1EF7EC0";
paths = (
{
closed = 1;
nodes = (
"229 -1 LINE",
"229 609 LINE",
"345 609 LINE",
"423 606 OFFCURVE",
"476 565 OFFCURVE",
"476 468 CURVE SMOOTH",
"476 364 OFFCURVE",
"416 327 OFFCURVE",
"326 327 CURVE SMOOTH",
"309 327 OFFCURVE",
"286 328 OFFCURVE",
"250 334 CURVE",
"250 258 LINE",
"282 250 OFFCURVE",
"308 249 OFFCURVE",
"330 249 CURVE SMOOTH",
"447 249 OFFCURVE",
"556 318 OFFCURVE",
"556 469 CURVE SMOOTH",
"556 590 OFFCURVE",
"485 686 OFFCURVE",
"359 686 CURVE SMOOTH",
"135 686 LINE SMOOTH",
"103 686 OFFCURVE",
"76 671 OFFCURVE",
"56 652 CURVE",
"37 632 OFFCURVE",
"24 604 OFFCURVE",
"24 574 CURVE SMOOTH",
"24 569 OFFCURVE",
"25 565 OFFCURVE",
"25 561 CURVE",
"102 561 LINE",
"100 581 OFFCURVE",
"103 589 OFFCURVE",
"113 598 CURVE",
"121 607 OFFCURVE",
"123 608 OFFCURVE",
"146 609 CURVE",
"146 -1 LINE"
);
}
);
width = 592;
},
{
layerId = "49C16FD3-6177-408B-A733-AEB3898BB77C";
paths = (
{
closed = 1;
nodes = (
"183 0 LINE",
"183 642 LINE",
"325 642 LINE SMOOTH",
"416 639 OFFCURVE",
"482 588 OFFCURVE",
"482 474 CURVE SMOOTH",
"482 352 OFFCURVE",
"407 307 OFFCURVE",
"304 307 CURVE SMOOTH",
"290 307 OFFCURVE",
"267 308 OFFCURVE",
"239 310 CURVE",
"239 268 LINE",
"266 265 OFFCURVE",
"291 263 OFFCURVE",
"309 263 CURVE SMOOTH",
"427 263 OFFCURVE",
"528 327 OFFCURVE",
"528 475 CURVE SMOOTH",
"528 596 OFFCURVE",
"462 685 OFFCURVE",
"339 685 CURVE SMOOTH",
"104 685 LINE SMOOTH",
"76 685 OFFCURVE",
"54 673 OFFCURVE",
"35 654 CURVE SMOOTH",
"18 637 OFFCURVE",
"8 617 OFFCURVE",
"7 592 CURVE",
"50 592 LINE",
"51 606 OFFCURVE",
"58 617 OFFCURVE",
"67 625 CURVE",
"79 638 OFFCURVE",
"88 642 OFFCURVE",
"135 642 CURVE",
"135 0 LINE"
);
}
);
width = 554;
}
);
leftKerningGroup = E;
rightKerningGroup = F;
unicode = 0050;
userData = {
position = 480;
width = 59;
};
},
{
glyphname = P.ss01;
lastChange = "2019-09-06 17:32:29 +0000";
layers = (
{
layerId = "873CAA12-270D-4223-A88E-AE8E101FDBE8";
paths = (
{
closed = 1;
nodes = (
"454 255 OFFCURVE",
"552 332 OFFCURVE",
"552 474 CURVE SMOOTH",
"552 592 OFFCURVE",
"484 684 OFFCURVE",
"360 684 CURVE SMOOTH",
"130 684 LINE SMOOTH",
"74 684 OFFCURVE",
"27 635 OFFCURVE",
"27 578 CURVE SMOOTH",
"27 543 OFFCURVE",
"44 509 OFFCURVE",
"77 489 CURVE",
"106 537 LINE",
"92 546 OFFCURVE",
"83 560 OFFCURVE",
"83 578 CURVE SMOOTH",
"83 606 OFFCURVE",
"105 628 OFFCURVE",
"132 628 CURVE SMOOTH",
"346 628 LINE SMOOTH",
"437 626 OFFCURVE",
"493 570 OFFCURVE",
"493 474 CURVE SMOOTH",
"493 373 OFFCURVE",
"431 310 OFFCURVE",
"314 310 CURVE SMOOTH",
"293 310 OFFCURVE",
"275 312 OFFCURVE",
"255 315 CURVE",
"255 260 LINE",
"270 257 OFFCURVE",
"287 255 OFFCURVE",
"310 255 CURVE SMOOTH"
);
},
{
closed = 1;
nodes = (
"214 -1 LINE",
"214 571 LINE",
"153 571 LINE",
"153 -1 LINE"
);
}
);
width = 588;
},
{
layerId = "0CAF3BED-C4AC-4024-B3E1-4C69D1EF7EC0";
paths = (
{
closed = 1;
nodes = (
"467 247 OFFCURVE",
"569 328 OFFCURVE",
"569 471 CURVE SMOOTH",
"569 589 OFFCURVE",
"498 686 OFFCURVE",
"372 686 CURVE SMOOTH",
"138 686 LINE SMOOTH",
"79 686 OFFCURVE",
"27 632 OFFCURVE",
"27 572 CURVE SMOOTH",
"27 532 OFFCURVE",
"50 489 OFFCURVE",
"91 470 CURVE",
"131 536 LINE",
"113 545 OFFCURVE",
"105 554 OFFCURVE",
"105 572 CURVE SMOOTH",
"105 592 OFFCURVE",
"121 609 OFFCURVE",
"140 609 CURVE SMOOTH",
"358 609 LINE SMOOTH",
"439 609 OFFCURVE",
"489 557 OFFCURVE",
"489 471 CURVE SMOOTH",
"489 380 OFFCURVE",
"434 323 OFFCURVE",
"327 323 CURVE SMOOTH",
"303 323 OFFCURVE",
"283 326 OFFCURVE",
"258 330 CURVE",
"258 254 LINE",
"275 250 OFFCURVE",
"295 247 OFFCURVE",
"323 247 CURVE SMOOTH"
);
},
{
closed = 1;
nodes = (
"242 -1 LINE",
"242 572 LINE",
"159 572 LINE",
"159 -1 LINE"
);
}
);
width = 605;
},
{
layerId = "49C16FD3-6177-408B-A733-AEB3898BB77C";
paths = (
{
closed = 1;
nodes = (
"439 261 OFFCURVE",
"535 336 OFFCURVE",
"535 477 CURVE SMOOTH",
"535 595 OFFCURVE",
"469 685 OFFCURVE",
"346 685 CURVE SMOOTH",
"111 685 LINE SMOOTH",
"57 685 OFFCURVE",
"13 639 OFFCURVE",
"13 584 CURVE SMOOTH",
"13 552 OFFCURVE",
"27 522 OFFCURVE",
"55 503 CURVE",
"77 540 LINE",
"65 550 OFFCURVE",
"56 566 OFFCURVE",
"56 584 CURVE SMOOTH",
"56 615 OFFCURVE",
"83 642 OFFCURVE",
"113 642 CURVE SMOOTH",
"332 642 LINE SMOOTH",
"428 640 OFFCURVE",
"489 578 OFFCURVE",
"489 477 CURVE SMOOTH",
"489 372 OFFCURVE",
"421 303 OFFCURVE",
"299 303 CURVE SMOOTH",
"280 303 OFFCURVE",
"263 305 OFFCURVE",
"246 307 CURVE",
"246 265 LINE",
"260 263 OFFCURVE",
"275 261 OFFCURVE",
"295 261 CURVE SMOOTH"
);
},
{
closed = 1;
nodes = (
"190 0 LINE",
"190 569 LINE",
"142 569 LINE",
"142 0 LINE"
);
}
);
width = 560;
}
);
leftKerningGroup = E;
rightKerningGroup = F;
userData = {
position = 480;
width = 59;
};
},
{
glyphname = P.ss02;
lastChange = "2019-09-06 17:32:29 +0000";
layers = (
{
layerId = "873CAA12-270D-4223-A88E-AE8E101FDBE8";
paths = (
{
closed = 1;
nodes = (
"404 254 OFFCURVE",
"486 337 OFFCURVE",
"486 470 CURVE SMOOTH",
"486 597 OFFCURVE",
"412 684 OFFCURVE",
"294 684 CURVE SMOOTH",
"86 684 LINE",
"86 628 LINE",
"280 628 LINE SMOOTH",
"368 628 OFFCURVE",
"427 572 OFFCURVE",
"427 473 CURVE SMOOTH",
"427 369 OFFCURVE",
"361 312 OFFCURVE",
"237 312 CURVE SMOOTH",
"208 312 OFFCURVE",
"175 314 OFFCURVE",
"139 315 CURVE",
"139 256 LINE",
"144 256 OFFCURVE",
"197 254 OFFCURVE",
"225 254 CURVE SMOOTH"
);
},
{
closed = 1;
nodes = (
"147 -1 LINE",
"147 681 LINE",
"86 681 LINE",
"86 -1 LINE"
);
}
);
width = 522;
},
{
layerId = "0CAF3BED-C4AC-4024-B3E1-4C69D1EF7EC0";
paths = (
{
closed = 1;
nodes = (
"411 246 OFFCURVE",
"497 333 OFFCURVE",
"497 467 CURVE SMOOTH",
"497 594 OFFCURVE",
"419 686 OFFCURVE",
"299 686 CURVE SMOOTH",
"86 686 LINE",
"86 609 LINE",
"286 609 LINE SMOOTH",
"364 609 OFFCURVE",
"417 559 OFFCURVE",
"417 470 CURVE SMOOTH",
"417 376 OFFCURVE",
"358 325 OFFCURVE",
"244 325 CURVE SMOOTH",
"213 325 OFFCURVE",
"177 328 OFFCURVE",
"137 329 CURVE",
"137 259 LINE",
"149 248 LINE",
"153 248 OFFCURVE",
"205 246 OFFCURVE",
"232 246 CURVE SMOOTH"
);
},
{
closed = 1;
nodes = (
"168 -1 LINE",
"168 683 LINE",
"86 683 LINE",
"86 -1 LINE"
);
}
);
width = 533;
},
{
layerId = "49C16FD3-6177-408B-A733-AEB3898BB77C";
paths = (
{
closed = 1;
nodes = (
"400 260 OFFCURVE",
"480 341 OFFCURVE",
"480 473 CURVE SMOOTH",
"480 600 OFFCURVE",
"408 685 OFFCURVE",
"291 685 CURVE SMOOTH",
"86 685 LINE",
"86 642 LINE",
"277 642 LINE SMOOTH",
"370 642 OFFCURVE",
"434 580 OFFCURVE",
"434 476 CURVE SMOOTH",
"434 367 OFFCURVE",
"362 305 OFFCURVE",
"233 305 CURVE SMOOTH",
"205 305 OFFCURVE",
"174 307 OFFCURVE",
"140 308 CURVE",
"140 262 LINE",
"157 262 OFFCURVE",
"198 260 OFFCURVE",
"221 260 CURVE SMOOTH"
);
},
{
closed = 1;
nodes = (
"134 0 LINE",
"134 681 LINE",
"86 681 LINE",
"86 0 LINE"
);
}
);
width = 506;
}
);
leftKerningGroup = E;
leftMetricsKey = L;
rightKerningGroup = F;
rightMetricsKey = P;
userData = {
position = 480;
width = 59;
};
},
{
glyphname = Thorn;
lastChange = "2019-09-06 17:32:29 +0000";
layers = (
{
layerId = "873CAA12-270D-4223-A88E-AE8E101FDBE8";
paths = (
{
closed = 1;
nodes = (
"147 0 LINE",
"147 509 LINE",
"284 509 LINE SMOOTH",
"377 509 OFFCURVE",
"436 456 OFFCURVE",
"436 356 CURVE SMOOTH",
"436 241 OFFCURVE",
"358 191 OFFCURVE",
"257 191 CURVE SMOOTH",
"237 191 OFFCURVE",
"218 193 OFFCURVE",
"198 196 CURVE",
"198 141 LINE",
"211 139 OFFCURVE",
"230 137 OFFCURVE",
"254 137 CURVE SMOOTH",
"389 137 OFFCURVE",
"495 201 OFFCURVE",
"495 352 CURVE SMOOTH",
"495 477 OFFCURVE",
"422 556 OFFCURVE",
"303 563 CURVE",
"147 563 LINE",
"147 684 LINE",
"86 684 LINE",
"86 0 LINE"
);
}
);
width = 531;
},
{
layerId = "0CAF3BED-C4AC-4024-B3E1-4C69D1EF7EC0";
paths = (
{
closed = 1;
nodes = (
"168 -1 LINE",
"168 493 LINE",
"289 493 LINE SMOOTH",
"373 493 OFFCURVE",
"425 446 OFFCURVE",
"425 356 CURVE SMOOTH",
"425 253 OFFCURVE",
"356 208 OFFCURVE",
"263 208 CURVE SMOOTH",
"240 208 OFFCURVE",
"219 211 OFFCURVE",
"194 215 CURVE",
"194 138 LINE",
"206 136 OFFCURVE",
"229 132 OFFCURVE",
"260 132 CURVE SMOOTH",
"395 132 OFFCURVE",
"506 200 OFFCURVE",
"506 353 CURVE SMOOTH",
"506 478 OFFCURVE",
"429 562 OFFCURVE",
"309 569 CURVE",
"168 569 LINE",
"168 686 LINE",
"86 686 LINE",
"86 -1 LINE"
);
}
);
width = 542;
},
{
layerId = "49C16FD3-6177-408B-A733-AEB3898BB77C";
paths = (
{
closed = 1;
nodes = (
"134 1 LINE",
"134 520 LINE",
"281 520 LINE SMOOTH",
"379 520 OFFCURVE",
"443 462 OFFCURVE",
"443 357 CURVE SMOOTH",
"443 236 OFFCURVE",
"359 182 OFFCURVE",
"253 182 CURVE SMOOTH",
"235 182 OFFCURVE",
"218 183 OFFCURVE",
"200 186 CURVE",
"200 144 LINE",
"213 142 OFFCURVE",
"230 141 OFFCURVE",
"250 141 CURVE SMOOTH",
"386 141 OFFCURVE",
"489 203 OFFCURVE",
"489 353 CURVE SMOOTH",
"489 478 OFFCURVE",
"418 554 OFFCURVE",
"300 561 CURVE",
"134 561 LINE",
"134 685 LINE",
"86 685 LINE",
"86 1 LINE"
);
}
);
width = 514;
}
);
rightKerningGroup = O;
unicode = 00DE;
userData = {
position = 403;
width = 59;
};
},
{
glyphname = Q;
lastChange = "2019-09-06 17:32:29 +0000";
layers = (
{
layerId = "873CAA12-270D-4223-A88E-AE8E101FDBE8";
paths = (
{
closed = 1;
nodes = (
"263 -138 LINE",
"362 -171 LINE SMOOTH",
"408 -186 OFFCURVE",
"444 -193 OFFCURVE",
"492 -193 CURVE SMOOTH",
"528 -193 OFFCURVE",
"553 -189 OFFCURVE",
"607 -150 CURVE",
"582 -106 LINE",
"540 -135 OFFCURVE",
"516 -141 OFFCURVE",
"485 -141 CURVE SMOOTH",
"452 -141 OFFCURVE",
"412 -134 OFFCURVE",
"374 -121 CURVE SMOOTH",
"294 -94 LINE",
"353 -9 LINE",
"381 -10 LINE SMOOTH",
"580 -10 OFFCURVE",
"718 138 OFFCURVE",
"718 341 CURVE SMOOTH",
"718 542 OFFCURVE",
"583 694 OFFCURVE",
"380 694 CURVE SMOOTH",
"180 694 OFFCURVE",
"43 545 OFFCURVE",
"43 342 CURVE SMOOTH",
"43 179 OFFCURVE",
"131 39 OFFCURVE",
"296 0 CURVE",
"178 -166 LINE",
"221 -199 LINE"
);
},
{
closed = 1;
nodes = (
"208 45 OFFCURVE",
"104 174 OFFCURVE",
"104 343 CURVE SMOOTH",
"104 514 OFFCURVE",
"211 639 OFFCURVE",
"381 639 CURVE SMOOTH",
"551 639 OFFCURVE",
"658 513 OFFCURVE",
"658 343 CURVE SMOOTH",
"658 173 OFFCURVE",
"552 45 OFFCURVE",
"380 45 CURVE SMOOTH"
);
}
);
width = 761;
},
{
layerId = "0CAF3BED-C4AC-4024-B3E1-4C69D1EF7EC0";
paths = (
{
closed = 1;
nodes = (
"273 -137 LINE",
"361 -166 LINE SMOOTH",
"406 -181 OFFCURVE",
"443 -188 OFFCURVE",
"490 -188 CURVE SMOOTH",
"528 -188 OFFCURVE",
"557 -183 OFFCURVE",
"617 -138 CURVE",
"581 -75 LINE",
"535 -108 OFFCURVE",
"515 -114 OFFCURVE",
"484 -114 CURVE SMOOTH",
"453 -114 OFFCURVE",
"416 -108 OFFCURVE",
"380 -95 CURVE SMOOTH",
"317 -74 LINE",
"361 -9 LINE",
"382 -10 LINE",
"581 -10 OFFCURVE",
"721 140 OFFCURVE",
"721 342 CURVE SMOOTH",
"721 541 OFFCURVE",
"584 696 OFFCURVE",
"382 696 CURVE SMOOTH",
"183 696 OFFCURVE",
"43 544 OFFCURVE",
"43 343 CURVE SMOOTH",
"43 187 OFFCURVE",
"127 48 OFFCURVE",
"281 4 CURVE",
"170 -152 LINE",
"230 -199 LINE"
);
},
{
closed = 1;
nodes = (
"222 66 OFFCURVE",
"126 186 OFFCURVE",
"126 344 CURVE SMOOTH",
"126 503 OFFCURVE",
"225 619 OFFCURVE",
"383 619 CURVE SMOOTH",
"540 619 OFFCURVE",
"640 502 OFFCURVE",
"640 344 CURVE SMOOTH",
"640 185 OFFCURVE",
"541 66 OFFCURVE",
"382 66 CURVE SMOOTH"
);
}
);
width = 764;
},
{
layerId = "49C16FD3-6177-408B-A733-AEB3898BB77C";
paths = (
{
closed = 1;
nodes = (
"249 -138 LINE",
"355 -174 LINE SMOOTH",
"402 -189 OFFCURVE",
"438 -196 OFFCURVE",
"486 -196 CURVE SMOOTH",
"521 -196 OFFCURVE",
"544 -192 OFFCURVE",
"594 -157 CURVE",
"575 -124 LINE",
"535 -151 OFFCURVE",
"510 -157 OFFCURVE",
"479 -157 CURVE SMOOTH",
"444 -157 OFFCURVE",
"402 -150 OFFCURVE",
"363 -136 CURVE SMOOTH",
"273 -106 LINE",
"340 -8 LINE",
"373 -9 LINE SMOOTH",
"572 -9 OFFCURVE",
"709 138 OFFCURVE",
"709 342 CURVE SMOOTH",
"709 544 OFFCURVE",
"575 695 OFFCURVE",
"372 695 CURVE SMOOTH",
"171 695 OFFCURVE",
"35 547 OFFCURVE",
"35 343 CURVE SMOOTH",
"35 175 OFFCURVE",
"126 34 OFFCURVE",
"298 -1 CURVE",
"175 -174 LINE",
"208 -199 LINE"
);
},
{
closed = 1;
nodes = (
"193 33 OFFCURVE",
"83 169 OFFCURVE",
"83 344 CURVE SMOOTH",
"83 521 OFFCURVE",
"196 653 OFFCURVE",
"373 653 CURVE SMOOTH",
"549 653 OFFCURVE",
"662 520 OFFCURVE",
"662 344 CURVE SMOOTH",
"662 168 OFFCURVE",
"550 33 OFFCURVE",
"372 33 CURVE SMOOTH"
);
}
);
width = 745;
}
);
leftKerningGroup = O;
leftMetricsKey = O;
rightKerningGroup = O;
unicode = 0051;
userData = {
position = 652;
width = 60;
};
},
{
glyphname = R;
lastChange = "2019-09-06 17:32:29 +0000";
layers = (
{
anchors = (
{
name = bottom;
position = "{330, 0}";
},
{
name = top;
position = "{327, 684}";
}
);
layerId = "873CAA12-270D-4223-A88E-AE8E101FDBE8";
paths = (
{
closed = 1;
nodes = (
"642 -10 OFFCURVE",
"684 26 OFFCURVE",
"684 79 CURVE",
"627 81 LINE",
"627 62 OFFCURVE",
"610 45 OFFCURVE",
"592 45 CURVE SMOOTH",
"582 45 OFFCURVE",
"574 50 OFFCURVE",
"566 61 CURVE SMOOTH",
"415 257 LINE SMOOTH",
"406 268 OFFCURVE",
"387 281 OFFCURVE",
"377 285 CURVE SMOOTH",
"364 289 LINE",
"389 290 LINE SMOOTH",
"477 296 OFFCURVE",
"549 368 OFFCURVE",
"549 477 CURVE SMOOTH",
"549 561 OFFCURVE",
"507 635 OFFCURVE",
"441 667 CURVE SMOOTH",
"420 677 OFFCURVE",
"395 684 OFFCURVE",
"361 684 CURVE SMOOTH",
"125 684 LINE SMOOTH",
"97 684 OFFCURVE",
"73 674 OFFCURVE",
"52 652 CURVE SMOOTH",
"32 631 OFFCURVE",
"22 608 OFFCURVE",
"22 579 CURVE",
"78 579 LINE",
"78 607 OFFCURVE",
"100 628 OFFCURVE",
"127 628 CURVE SMOOTH",
"146 628 LINE",
"146 0 LINE",
"207 0 LINE",
"207 628 LINE",
"357 628 LINE SMOOTH",
"436 628 OFFCURVE",
"489 564 OFFCURVE",
"489 477 CURVE SMOOTH",
"489 391 OFFCURVE",
"437 332 OFFCURVE",
"346 332 CURVE SMOOTH",
"259 332 LINE",
"259 276 LINE",
"327 270 OFFCURVE",
"358 241 OFFCURVE",
"393 193 CURVE SMOOTH",
"519 29 LINE SMOOTH",
"539 3 OFFCURVE",
"564 -10 OFFCURVE",
"593 -10 CURVE SMOOTH"
);
}
);
width = 706;
},
{
anchors = (
{
name = bottom;
position = "{333, 11}";
},
{
name = top;
position = "{330, 675}";
}
);
layerId = "0CAF3BED-C4AC-4024-B3E1-4C69D1EF7EC0";
paths = (
{
closed = 1;
nodes = (
"644 -10 OFFCURVE",
"695 37 OFFCURVE",
"688 99 CURVE",
"610 102 LINE",
"610 90 LINE SMOOTH",
"610 78 OFFCURVE",
"602 66 OFFCURVE",
"591 66 CURVE SMOOTH",
"585 66 OFFCURVE",
"578 68 OFFCURVE",
"572 77 CURVE",
"425 267 LINE SMOOTH",
"421 272 OFFCURVE",
"415 278 OFFCURVE",
"409 283 CURVE",
"456 283 OFFCURVE",
"557 348 OFFCURVE",
"557 474 CURVE SMOOTH",
"557 558 OFFCURVE",
"513 636 OFFCURVE",
"446 669 CURVE SMOOTH",
"425 679 OFFCURVE",
"398 686 OFFCURVE",
"363 686 CURVE SMOOTH",
"134 686 LINE SMOOTH",
"105 686 OFFCURVE",
"77 675 OFFCURVE",
"55 652 CURVE SMOOTH",
"32 627 OFFCURVE",
"20 597 OFFCURVE",
"23 561 CURVE",
"102 561 LINE",
"101 565 OFFCURVE",
"100 569 OFFCURVE",
"100 573 CURVE SMOOTH",
"100 593 OFFCURVE",
"117 609 OFFCURVE",
"136 609 CURVE SMOOTH",
"143 609 LINE",
"143 -1 LINE",
"226 -1 LINE",
"226 609 LINE",
"360 609 LINE SMOOTH",
"429 609 OFFCURVE",
"476 552 OFFCURVE",
"476 474 CURVE SMOOTH",
"476 397 OFFCURVE",
"430 345 OFFCURVE",
"349 345 CURVE SMOOTH",
"253 345 LINE",
"253 268 LINE",
"323 264 OFFCURVE",
"350 240 OFFCURVE",
"385 191 CURVE SMOOTH",
"507 32 LINE SMOOTH",
"528 5 OFFCURVE",
"557 -10 OFFCURVE",
"588 -10 CURVE SMOOTH"
);
}
);
width = 712;
},
{
anchors = (
{
name = bottom;
position = "{313, -6}";
},
{
name = top;
position = "{310, 692}";
}
);
layerId = "49C16FD3-6177-408B-A733-AEB3898BB77C";
paths = (
{
closed = 1;
nodes = (
"627 -9 OFFCURVE",
"664 21 OFFCURVE",
"667 68 CURVE",
"623 69 LINE",
"619 50 OFFCURVE",
"600 33 OFFCURVE",
"581 33 CURVE SMOOTH",
"568 33 OFFCURVE",
"557 40 OFFCURVE",
"548 52 CURVE SMOOTH",
"394 251 LINE SMOOTH",
"386 262 OFFCURVE",
"368 274 OFFCURVE",
"359 277 CURVE SMOOTH",
"310 294 LINE",
"373 297 LINE SMOOTH",
"460 303 OFFCURVE",
"530 372 OFFCURVE",
"530 481 CURVE SMOOTH",
"530 564 OFFCURVE",
"489 636 OFFCURVE",
"424 668 CURVE SMOOTH",
"403 678 OFFCURVE",
"379 685 OFFCURVE",
"345 685 CURVE SMOOTH",
"104 685 LINE SMOOTH",
"77 685 OFFCURVE",
"55 675 OFFCURVE",
"35 654 CURVE SMOOTH",
"17 635 OFFCURVE",
"8 616 OFFCURVE",
"7 592 CURVE",
"50 592 LINE",
"53 620 OFFCURVE",
"78 642 OFFCURVE",
"106 642 CURVE SMOOTH",
"133 642 LINE",
"133 1 LINE",
"181 1 LINE",
"181 642 LINE",
"341 642 LINE SMOOTH",
"425 642 OFFCURVE",
"483 572 OFFCURVE",
"483 481 CURVE SMOOTH",
"483 390 OFFCURVE",
"426 325 OFFCURVE",
"330 325 CURVE SMOOTH",
"248 325 LINE",
"248 282 LINE",
"316 274 OFFCURVE",
"348 243 OFFCURVE",
"383 195 CURVE SMOOTH",
"512 28 LINE SMOOTH",
"531 3 OFFCURVE",
"554 -9 OFFCURVE",
"582 -9 CURVE SMOOTH"
);
}
);
width = 674;
}
);
leftKerningGroup = E;
rightKerningGroup = K;
unicode = 0052;
userData = {
position = 619;
width = 57;
};
},
{
glyphname = R.ss01;
lastChange = "2019-09-06 17:32:29 +0000";
layers = (
{
anchors = (
{
name = bottom;
position = "{373, 0}";
},
{
name = top;
position = "{373, 0}";
}
);
layerId = "873CAA12-270D-4223-A88E-AE8E101FDBE8";
paths = (
{
closed = 1;
nodes = (
"654 -10 OFFCURVE",
"689 32 OFFCURVE",
"689 79 CURVE",
"632 81 LINE",
"632 58 OFFCURVE",
"616 45 OFFCURVE",
"599 45 CURVE SMOOTH",
"589 45 OFFCURVE",
"580 49 OFFCURVE",
"571 61 CURVE SMOOTH",
"420 257 LINE SMOOTH",
"410 269 OFFCURVE",
"394 283 OFFCURVE",
"369 289 CURVE",
"394 290 LINE SMOOTH",
"496 299 OFFCURVE",
"554 379 OFFCURVE",
"554 478 CURVE SMOOTH",
"554 589 OFFCURVE",
"481 684 OFFCURVE",
"366 684 CURVE SMOOTH",
"130 684 LINE SMOOTH",
"74 684 OFFCURVE",
"27 637 OFFCURVE",
"27 578 CURVE SMOOTH",
"27 541 OFFCURVE",
"45 508 OFFCURVE",
"77 489 CURVE",
"106 537 LINE",
"91 546 OFFCURVE",
"83 561 OFFCURVE",
"83 578 CURVE SMOOTH",
"83 607 OFFCURVE",
"105 628 OFFCURVE",
"132 628 CURVE SMOOTH",
"362 628 LINE SMOOTH",
"444 628 OFFCURVE",
"494 559 OFFCURVE",
"494 476 CURVE SMOOTH",
"494 388 OFFCURVE",
"438 332 OFFCURVE",
"351 332 CURVE SMOOTH",
"264 332 LINE",
"264 276 LINE",
"332 270 OFFCURVE",
"363 241 OFFCURVE",
"398 193 CURVE SMOOTH",
"524 29 LINE SMOOTH",
"544 3 OFFCURVE",
"569 -10 OFFCURVE",
"599 -10 CURVE SMOOTH"
);
},
{
closed = 1;
nodes = (
"212 0 LINE",
"212 582 LINE",
"151 582 LINE",
"151 0 LINE"
);
}
);
width = 711;
},
{
anchors = (
{
name = bottom;
position = "{384, 11}";
},
{
name = top;
position = "{384, 11}";
}
);
layerId = "0CAF3BED-C4AC-4024-B3E1-4C69D1EF7EC0";
paths = (
{
closed = 1;
nodes = (
"667 -10 OFFCURVE",
"708 45 OFFCURVE",
"702 99 CURVE",
"622 102 LINE",
"623 98 OFFCURVE",
"624 94 OFFCURVE",
"624 90 CURVE SMOOTH",
"624 75 OFFCURVE",
"613 66 OFFCURVE",
"603 66 CURVE SMOOTH",
"596 66 OFFCURVE",
"592 68 OFFCURVE",
"586 77 CURVE",
"439 267 LINE SMOOTH",
"436 271 OFFCURVE",
"420 281 OFFCURVE",
"406 281 CURVE",
"510 290 OFFCURVE",
"571 375 OFFCURVE",
"571 475 CURVE SMOOTH",
"571 586 OFFCURVE",
"495 686 OFFCURVE",
"377 686 CURVE SMOOTH",
"138 686 LINE SMOOTH",
"79 686 OFFCURVE",
"27 634 OFFCURVE",
"27 572 CURVE SMOOTH",
"27 529 OFFCURVE",
"52 488 OFFCURVE",
"91 470 CURVE",
"132 537 LINE",
"112 545 OFFCURVE",
"105 555 OFFCURVE",
"105 572 CURVE SMOOTH",
"105 593 OFFCURVE",
"121 609 OFFCURVE",
"140 609 CURVE SMOOTH",
"374 609 LINE SMOOTH",
"445 609 OFFCURVE",
"490 548 OFFCURVE",
"490 473 CURVE SMOOTH",
"490 394 OFFCURVE",
"440 345 OFFCURVE",
"363 345 CURVE SMOOTH",
"267 345 LINE",
"267 268 LINE",
"337 264 OFFCURVE",
"364 240 OFFCURVE",
"399 191 CURVE SMOOTH",
"521 32 LINE SMOOTH",
"542 5 OFFCURVE",
"571 -10 OFFCURVE",
"603 -10 CURVE SMOOTH"
);
},
{
closed = 1;
nodes = (
"240 -1 LINE",
"240 577 LINE",
"157 577 LINE",
"157 -1 LINE"
);
}
);
width = 726;
},
{
anchors = (
{
name = bottom;
position = "{359, -6}";
},
{
name = top;
position = "{359, -6}";
}
);
layerId = "49C16FD3-6177-408B-A733-AEB3898BB77C";
paths = (
{
closed = 1;
nodes = (
"640 -9 OFFCURVE",
"671 25 OFFCURVE",
"674 68 CURVE",
"630 69 LINE",
"627 47 OFFCURVE",
"608 33 OFFCURVE",
"590 33 CURVE SMOOTH",
"578 33 OFFCURVE",
"566 38 OFFCURVE",
"555 52 CURVE SMOOTH",
"401 251 LINE SMOOTH",
"392 263 OFFCURVE",
"377 276 OFFCURVE",
"353 282 CURVE",
"355 296 LINE",
"380 297 LINE",
"481 306 OFFCURVE",
"537 383 OFFCURVE",
"537 482 CURVE SMOOTH",
"537 592 OFFCURVE",
"466 685 OFFCURVE",
"352 685 CURVE SMOOTH",
"111 685 LINE SMOOTH",
"57 685 OFFCURVE",
"13 641 OFFCURVE",
"13 584 CURVE SMOOTH",
"13 550 OFFCURVE",
"28 521 OFFCURVE",
"55 503 CURVE",
"77 540 LINE",
"64 550 OFFCURVE",
"56 567 OFFCURVE",
"56 584 CURVE SMOOTH",
"56 616 OFFCURVE",
"83 642 OFFCURVE",
"113 642 CURVE SMOOTH",
"348 642 LINE SMOOTH",
"435 642 OFFCURVE",
"490 566 OFFCURVE",
"490 480 CURVE SMOOTH",
"490 387 OFFCURVE",
"428 325 OFFCURVE",
"337 325 CURVE SMOOTH",
"255 325 LINE",
"255 282 LINE",
"323 274 OFFCURVE",
"355 243 OFFCURVE",
"390 195 CURVE SMOOTH",
"519 28 LINE SMOOTH",
"538 3 OFFCURVE",
"561 -9 OFFCURVE",
"590 -9 CURVE SMOOTH"
);
},
{
closed = 1;
nodes = (
"188 1 LINE",
"188 580 LINE",
"140 580 LINE",
"140 1 LINE"
);
}
);
width = 681;
}
);
leftKerningGroup = E;
rightKerningGroup = K;
userData = {
position = 619;
width = 57;
};
},
{
glyphname = R.ss02;
lastChange = "2019-09-06 17:32:29 +0000";
layers = (
{
anchors = (
{
name = bottom;
position = "{308, 0}";
},
{
name = top;
position = "{301, 684}";
}
);
layerId = "873CAA12-270D-4223-A88E-AE8E101FDBE8";
paths = (
{
closed = 1;
nodes = (
"551 -10 OFFCURVE",
"569 -6 OFFCURVE",
"585 6 CURVE",
"553 53 LINE",
"548 49 OFFCURVE",
"540 47 OFFCURVE",
"533 47 CURVE SMOOTH",
"523 47 OFFCURVE",
"513 51 OFFCURVE",
"506 61 CURVE",
"355 257 LINE SMOOTH",
"348 266 OFFCURVE",
"334 279 OFFCURVE",
"317 285 CURVE SMOOTH",
"304 289 LINE",
"329 290 LINE SMOOTH",
"434 299 OFFCURVE",
"489 381 OFFCURVE",
"489 478 CURVE SMOOTH",
"489 586 OFFCURVE",
"421 684 OFFCURVE",
"301 684 CURVE SMOOTH",
"86 684 LINE",
"86 628 LINE",
"297 628 LINE SMOOTH",
"379 628 OFFCURVE",
"429 560 OFFCURVE",
"429 477 CURVE SMOOTH",
"429 394 OFFCURVE",
"379 332 OFFCURVE",
"286 332 CURVE SMOOTH",
"199 332 LINE",
"199 276 LINE",
"266 271 OFFCURVE",
"297 240 OFFCURVE",
"333 193 CURVE SMOOTH",
"459 29 LINE SMOOTH",
"479 3 OFFCURVE",
"504 -10 OFFCURVE",
"534 -10 CURVE SMOOTH"
);
},
{
closed = 1;
nodes = (
"147 0 LINE",
"147 672 LINE",
"86 672 LINE",
"86 0 LINE"
);
}
);
width = 605;
},
{
anchors = (
{
name = bottom;
position = "{313, 0}";
},
{
name = top;
position = "{306, 686}";
}
);
layerId = "0CAF3BED-C4AC-4024-B3E1-4C69D1EF7EC0";
paths = (
{
closed = 1;
nodes = (
"553 -10 OFFCURVE",
"578 -4 OFFCURVE",
"597 15 CURVE",
"555 77 LINE",
"552 74 OFFCURVE",
"536 68 OFFCURVE",
"531 68 CURVE SMOOTH",
"524 68 OFFCURVE",
"519 70 OFFCURVE",
"514 77 CURVE SMOOTH",
"377 256 LINE",
"369 268 OFFCURVE",
"341 283 OFFCURVE",
"312 287 CURVE",
"358 287 LINE",
"465 296 OFFCURVE",
"500 377 OFFCURVE",
"500 475 CURVE SMOOTH",
"500 583 OFFCURVE",
"428 686 OFFCURVE",
"306 686 CURVE SMOOTH",
"86 686 LINE",
"86 609 LINE",
"302 609 LINE SMOOTH",
"374 609 OFFCURVE",
"418 549 OFFCURVE",
"418 474 CURVE SMOOTH",
"418 399 OFFCURVE",
"374 345 OFFCURVE",
"291 345 CURVE SMOOTH",
"195 345 LINE",
"195 268 LINE",
"264 266 OFFCURVE",
"291 239 OFFCURVE",
"328 191 CURVE SMOOTH",
"450 32 LINE SMOOTH",
"471 5 OFFCURVE",
"500 -10 OFFCURVE",
"532 -10 CURVE SMOOTH"
);
},
{
closed = 1;
nodes = (
"168 -1 LINE",
"168 675 LINE",
"86 675 LINE",
"86 -1 LINE"
);
}
);
width = 617;
},
{
anchors = (
{
name = bottom;
position = "{306, -6}";
},
{
name = top;
position = "{251, 684}";
}
);
layerId = "49C16FD3-6177-408B-A733-AEB3898BB77C";
paths = (
{
closed = 1;
nodes = (
"551 -9 OFFCURVE",
"565 -6 OFFCURVE",
"578 2 CURVE",
"553 39 LINE",
"547 36 OFFCURVE",
"541 35 OFFCURVE",
"535 35 CURVE SMOOTH",
"523 35 OFFCURVE",
"510 40 OFFCURVE",
"502 52 CURVE",
"348 252 LINE",
"341 260 OFFCURVE",
"329 278 OFFCURVE",
"312 284 CURVE SMOOTH",
"296 290 OFFCURVE",
"295 291 OFFCURVE",
"277 294 CURVE",
"327 297 LINE",
"430 306 OFFCURVE",
"483 385 OFFCURVE",
"483 482 CURVE SMOOTH",
"483 589 OFFCURVE",
"417 685 OFFCURVE",
"298 685 CURVE SMOOTH",
"86 685 LINE",
"86 642 LINE",
"294 642 LINE SMOOTH",
"382 642 OFFCURVE",
"436 568 OFFCURVE",
"436 481 CURVE SMOOTH",
"436 393 OFFCURVE",
"381 325 OFFCURVE",
"283 325 CURVE SMOOTH",
"201 325 LINE",
"201 282 LINE",
"268 275 OFFCURVE",
"301 242 OFFCURVE",
"337 195 CURVE SMOOTH",
"465 28 LINE SMOOTH",
"485 3 OFFCURVE",
"507 -9 OFFCURVE",
"536 -9 CURVE SMOOTH"
);
},
{
closed = 1;
nodes = (
"134 1 LINE",
"134 672 LINE",
"86 672 LINE",
"86 1 LINE"
);
}
);
width = 583;
}
);
leftKerningGroup = E;
leftMetricsKey = L;
rightKerningGroup = K;
userData = {
position = 619;
width = 57;
};
},
{
glyphname = S;
lastChange = "2019-09-06 17:32:29 +0000";
layers = (
{
anchors = (
{
name = bottom;
position = "{268, -25}";
},
{
name = top;
position = "{273, 706}";
}
);
layerId = "873CAA12-270D-4223-A88E-AE8E101FDBE8";
paths = (
{
closed = 1;
nodes = (
"394 -25 OFFCURVE",
"488 76 OFFCURVE",
"488 191 CURVE SMOOTH",
"488 263 OFFCURVE",
"451 322 OFFCURVE",
"362 369 CURVE SMOOTH",
"286 410 OFFCURVE",
"146 451 OFFCURVE",
"146 544 CURVE SMOOTH",
"146 603 OFFCURVE",
"203 657 OFFCURVE",
"273 657 CURVE SMOOTH",
"318 657 OFFCURVE",
"373 631 OFFCURVE",
"373 589 CURVE SMOOTH",
"373 567 OFFCURVE",
"358 547 OFFCURVE",
"336 553 CURVE",
"332 501 LINE",
"388 495 OFFCURVE",
"429 534 OFFCURVE",
"429 588 CURVE SMOOTH",
"429 636 OFFCURVE",
"397 678 OFFCURVE",
"335 697 CURVE SMOOTH",
"316 703 OFFCURVE",
"294 706 OFFCURVE",
"273 706 CURVE SMOOTH",
"174 706 OFFCURVE",
"91 639 OFFCURVE",
"91 542 CURVE SMOOTH",
"91 404 OFFCURVE",
"239 375 OFFCURVE",
"333 326 CURVE SMOOTH",
"389 297 OFFCURVE",
"433 259 OFFCURVE",
"433 190 CURVE SMOOTH",
"433 104 OFFCURVE",
"366 25 OFFCURVE",
"267 25 CURVE SMOOTH",
"187 25 OFFCURVE",
"111 79 OFFCURVE",
"74 164 CURVE",
"23 144 LINE",
"61 44 OFFCURVE",
"164 -25 OFFCURVE",
"268 -25 CURVE SMOOTH"
);
}
);
width = 523;
},
{
anchors = (
{
name = bottom;
position = "{275, -25}";
},
{
name = top;
position = "{280, 696}";
}
);
layerId = "0CAF3BED-C4AC-4024-B3E1-4C69D1EF7EC0";
paths = (
{
closed = 1;
nodes = (
"405 -25 OFFCURVE",
"500 80 OFFCURVE",
"500 196 CURVE SMOOTH",
"500 275 OFFCURVE",
"457 333 OFFCURVE",
"372 379 CURVE SMOOTH",
"296 420 OFFCURVE",
"168 458 OFFCURVE",
"168 538 CURVE SMOOTH",
"168 589 OFFCURVE",
"219 637 OFFCURVE",
"279 637 CURVE SMOOTH",
"321 637 OFFCURVE",
"365 613 OFFCURVE",
"365 581 CURVE SMOOTH",
"365 568 OFFCURVE",
"358 560 OFFCURVE",
"351 558 CURVE SMOOTH",
"343 556 OFFCURVE",
"335 557 OFFCURVE",
"331 561 CURVE",
"325 487 LINE",
"332 486 OFFCURVE",
"339 485 OFFCURVE",
"347 485 CURVE SMOOTH",
"401 485 OFFCURVE",
"443 528 OFFCURVE",
"443 582 CURVE SMOOTH",
"443 629 OFFCURVE",
"412 676 OFFCURVE",
"343 698 CURVE SMOOTH",
"324 704 OFFCURVE",
"302 708 OFFCURVE",
"279 708 CURVE SMOOTH",
"180 708 OFFCURVE",
"92 637 OFFCURVE",
"92 536 CURVE SMOOTH",
"92 402 OFFCURVE",
"247 360 OFFCURVE",
"333 315 CURVE SMOOTH",
"387 287 OFFCURVE",
"423 255 OFFCURVE",
"423 195 CURVE SMOOTH",
"423 118 OFFCURVE",
"365 46 OFFCURVE",
"271 46 CURVE SMOOTH",
"193 46 OFFCURVE",
"127 96 OFFCURVE",
"94 186 CURVE",
"23 157 LINE",
"55 53 OFFCURVE",
"151 -25 OFFCURVE",
"269 -25 CURVE SMOOTH"
);
}
);
width = 535;
},
{
anchors = (
{
name = bottom;
position = "{252, -24}";
},
{
name = top;
position = "{257, 714}";
}
);
layerId = "49C16FD3-6177-408B-A733-AEB3898BB77C";
paths = (
{
closed = 1;
nodes = (
"378 -24 OFFCURVE",
"470 74 OFFCURVE",
"470 189 CURVE SMOOTH",
"470 260 OFFCURVE",
"434 317 OFFCURVE",
"345 364 CURVE SMOOTH",
"268 406 OFFCURVE",
"121 449 OFFCURVE",
"121 549 CURVE SMOOTH",
"121 612 OFFCURVE",
"183 668 OFFCURVE",
"257 668 CURVE SMOOTH",
"305 668 OFFCURVE",
"367 643 OFFCURVE",
"367 595 CURVE SMOOTH",
"367 571 OFFCURVE",
"352 548 OFFCURVE",
"329 550 CURVE",
"326 512 LINE",
"375 509 OFFCURVE",
"409 544 OFFCURVE",
"409 594 CURVE SMOOTH",
"409 640 OFFCURVE",
"380 679 OFFCURVE",
"319 698 CURVE SMOOTH",
"300 704 OFFCURVE",
"278 707 OFFCURVE",
"257 707 CURVE SMOOTH",
"159 707 OFFCURVE",
"79 642 OFFCURVE",
"79 547 CURVE SMOOTH",
"79 421 OFFCURVE",
"225 379 OFFCURVE",
"322 329 CURVE SMOOTH",
"379 299 OFFCURVE",
"428 262 OFFCURVE",
"428 188 CURVE SMOOTH",
"428 97 OFFCURVE",
"355 15 OFFCURVE",
"251 15 CURVE SMOOTH",
"170 15 OFFCURVE",
"90 67 OFFCURVE",
"51 152 CURVE",
"12 137 LINE",
"52 41 OFFCURVE",
"141 -24 OFFCURVE",
"252 -24 CURVE SMOOTH"
);
}
);
width = 496;
}
);
leftKerningGroup = S;
rightKerningGroup = S;
unicode = 0053;
userData = {
position = 433;
width = 55;
};
},
{
glyphname = S.ss02;
lastChange = "2019-09-06 17:32:29 +0000";
layers = (
{
anchors = (
{
name = bottom;
position = "{280, 0}";
},
{
name = top;
position = "{273, 706}";
}
);
layerId = "873CAA12-270D-4223-A88E-AE8E101FDBE8";
paths = (
{
closed = 1;
nodes = (
"383 -25 OFFCURVE",
"488 61 OFFCURVE",
"488 186 CURVE SMOOTH",
"488 267 OFFCURVE",
"450 322 OFFCURVE",
"362 369 CURVE SMOOTH",
"278 414 OFFCURVE",
"146 454 OFFCURVE",
"146 544 CURVE SMOOTH",
"146 604 OFFCURVE",
"204 651 OFFCURVE",
"273 651 CURVE SMOOTH",
"319 651 OFFCURVE",
"373 631 OFFCURVE",
"373 586 CURVE",
"429 583 LINE",
"433 655 OFFCURVE",
"362 706 OFFCURVE",
"275 706 CURVE SMOOTH",
"175 706 OFFCURVE",
"91 640 OFFCURVE",
"91 541 CURVE SMOOTH",
"91 437 OFFCURVE",
"184 391 OFFCURVE",
"333 319 CURVE SMOOTH",
"397 288 OFFCURVE",
"433 252 OFFCURVE",
"433 187 CURVE SMOOTH",
"433 95 OFFCURVE",
"358 30 OFFCURVE",
"265 30 CURVE SMOOTH",
"188 30 OFFCURVE",
"111 79 OFFCURVE",
"74 164 CURVE",
"23 144 LINE",
"60 45 OFFCURVE",
"166 -25 OFFCURVE",
"265 -25 CURVE SMOOTH"
);
}
);
width = 523;
},
{
anchors = (
{
name = bottom;
position = "{272, -25}";
},
{
name = top;
position = "{280, 696}";
}
);
layerId = "0CAF3BED-C4AC-4024-B3E1-4C69D1EF7EC0";
paths = (
{
closed = 1;
nodes = (
"393 -25 OFFCURVE",
"500 64 OFFCURVE",
"500 192 CURVE SMOOTH",
"500 274 OFFCURVE",
"459 332 OFFCURVE",
"372 379 CURVE SMOOTH",
"289 424 OFFCURVE",
"168 460 OFFCURVE",
"168 539 CURVE SMOOTH",
"168 589 OFFCURVE",
"219 631 OFFCURVE",
"280 631 CURVE SMOOTH",
"320 631 OFFCURVE",
"375 613 OFFCURVE",
"364 569 CURVE",
"442 564 LINE",
"455 643 OFFCURVE",
"375 708 OFFCURVE",
"282 708 CURVE SMOOTH",
"181 708 OFFCURVE",
"92 638 OFFCURVE",
"92 536 CURVE SMOOTH",
"92 428 OFFCURVE",
"188 380 OFFCURVE",
"333 310 CURVE SMOOTH",
"393 281 OFFCURVE",
"423 251 OFFCURVE",
"423 193 CURVE SMOOTH",
"423 108 OFFCURVE",
"355 50 OFFCURVE",
"272 50 CURVE SMOOTH",
"198 50 OFFCURVE",
"126 100 OFFCURVE",
"94 186 CURVE",
"23 157 LINE",
"56 52 OFFCURVE",
"153 -25 OFFCURVE",
"272 -25 CURVE SMOOTH"
);
}
);
width = 535;
},
{
anchors = (
{
name = bottom;
position = "{265, -6}";
},
{
name = top;
position = "{257, 714}";
}
);
layerId = "49C16FD3-6177-408B-A733-AEB3898BB77C";
paths = (
{
closed = 1;
nodes = (
"366 -24 OFFCURVE",
"470 60 OFFCURVE",
"470 184 CURVE SMOOTH",
"470 264 OFFCURVE",
"433 317 OFFCURVE",
"345 364 CURVE SMOOTH",
"260 410 OFFCURVE",
"121 452 OFFCURVE",
"121 549 CURVE SMOOTH",
"121 613 OFFCURVE",
"185 665 OFFCURVE",
"257 665 CURVE SMOOTH",
"303 665 OFFCURVE",
"361 645 OFFCURVE",
"366 598 CURVE",
"410 596 LINE",
"409 662 OFFCURVE",
"343 707 OFFCURVE",
"260 707 CURVE SMOOTH",
"160 707 OFFCURVE",
"79 643 OFFCURVE",
"79 546 CURVE SMOOTH",
"79 444 OFFCURVE",
"170 399 OFFCURVE",
"322 326 CURVE SMOOTH",
"388 294 OFFCURVE",
"428 254 OFFCURVE",
"428 185 CURVE SMOOTH",
"428 88 OFFCURVE",
"347 17 OFFCURVE",
"249 17 CURVE SMOOTH",
"171 17 OFFCURVE",
"91 67 OFFCURVE",
"51 152 CURVE",
"12 137 LINE",
"51 42 OFFCURVE",
"153 -24 OFFCURVE",
"249 -24 CURVE SMOOTH"
);
}
);
width = 496;
}
);
leftKerningGroup = S;
leftMetricsKey = S;
rightKerningGroup = S;
rightMetricsKey = S;
userData = {
position = 433;
width = 55;
};
},
{
glyphname = T;
lastChange = "2019-09-06 17:32:29 +0000";
layers = (
{
anchors = (
{
name = bottom;
position = "{305, 0}";
},
{
name = center;
position = "{310, 0}";
},
{
name = top;
position = "{310, 684}";
}
);
layerId = "873CAA12-270D-4223-A88E-AE8E101FDBE8";
paths = (
{
closed = 1;
nodes = (
"335 0 LINE",
"335 627 LINE",
"574 627 LINE",
"574 684 LINE",
"110 684 LINE SMOOTH",
"86 684 OFFCURVE",
"65 674 OFFCURVE",
"48 657 CURVE SMOOTH",
"31 640 OFFCURVE",
"22 618 OFFCURVE",
"22 594 CURVE",
"79 594 LINE",
"79 610 OFFCURVE",
"91 627 OFFCURVE",
"113 627 CURVE SMOOTH",
"274 627 LINE",
"274 0 LINE"
);
}
);
width = 598;
},
{
anchors = (
{
name = bottom;
position = "{310, 11}";
},
{
name = center;
position = "{315, 11}";
},
{
name = top;
position = "{315, 675}";
}
);
layerId = "0CAF3BED-C4AC-4024-B3E1-4C69D1EF7EC0";
paths = (
{
closed = 1;
nodes = (
"351 -1 LINE",
"351 608 LINE",
"582 608 LINE",
"582 686 LINE",
"121 686 LINE SMOOTH",
"95 686 OFFCURVE",
"70 675 OFFCURVE",
"52 657 CURVE SMOOTH",
"31 636 OFFCURVE",
"21 605 OFFCURVE",
"24 576 CURVE",
"108 576 LINE",
"104 579 OFFCURVE",
"102 583 OFFCURVE",
"102 587 CURVE SMOOTH",
"102 597 OFFCURVE",
"110 608 OFFCURVE",
"124 608 CURVE SMOOTH",
"268 608 LINE",
"268 -1 LINE"
);
}
);
width = 608;
},
{
anchors = (
{
name = bottom;
position = "{287, -6}";
},
{
name = center;
position = "{288, 352}";
},
{
name = top;
position = "{292, 684}";
}
);
layerId = "49C16FD3-6177-408B-A733-AEB3898BB77C";
paths = (
{
closed = 1;
nodes = (
"311 1 LINE",
"311 641 LINE",
"554 641 LINE",
"554 685 LINE",
"88 685 LINE SMOOTH",
"65 685 OFFCURVE",
"47 676 OFFCURVE",
"30 659 CURVE SMOOTH",
"15 644 OFFCURVE",
"7 627 OFFCURVE",
"6 607 CURVE",
"50 607 LINE",
"54 624 OFFCURVE",
"68 641 OFFCURVE",
"91 641 CURVE SMOOTH",
"263 641 LINE",
"263 1 LINE"
);
}
);
width = 562;
}
);
leftKerningGroup = T;
rightKerningGroup = T;
unicode = 0054;
userData = {
position = 277;
width = 61;
};
},
{
glyphname = T.ss01;
lastChange = "2019-09-06 17:32:29 +0000";
layers = (
{
anchors = (
{
name = bottom;
position = "{314, 0}";
},
{
name = center;
position = "{314, 342}";
},
{
name = top;
position = "{314, 684}";
}
);
layerId = "873CAA12-270D-4223-A88E-AE8E101FDBE8";
paths = (
{
closed = 1;
nodes = (
"339 0 LINE",
"339 627 LINE",
"578 627 LINE",
"578 684 LINE",
"114 684 LINE SMOOTH",
"77 684 OFFCURVE",
"26 653 OFFCURVE",
"26 594 CURVE SMOOTH",
"26 562 OFFCURVE",
"40 536 OFFCURVE",
"66 518 CURVE",
"98 565 LINE",
"90 570 OFFCURVE",
"83 580 OFFCURVE",
"83 593 CURVE SMOOTH",
"83 610 OFFCURVE",
"95 627 OFFCURVE",
"117 627 CURVE SMOOTH",
"278 627 LINE",
"278 0 LINE"
);
}
);
width = 602;
},
{
anchors = (
{
name = bottom;
position = "{317, 11}";
},
{
name = center;
position = "{317, 343}";
},
{
name = top;
position = "{311, 684}";
}
);
layerId = "0CAF3BED-C4AC-4024-B3E1-4C69D1EF7EC0";
paths = (
{
closed = 1;
nodes = (
"353 -1 LINE",
"353 608 LINE",
"584 608 LINE",
"584 686 LINE",
"123 686 LINE SMOOTH",
"83 686 OFFCURVE",
"26 651 OFFCURVE",
"26 587 CURVE SMOOTH",
"26 549 OFFCURVE",
"46 516 OFFCURVE",
"79 498 CURVE",
"123 562 LINE",
"113 569 LINE",
"108 573 OFFCURVE",
"104 577 OFFCURVE",
"104 586 CURVE SMOOTH",
"104 597 OFFCURVE",
"112 608 OFFCURVE",
"126 608 CURVE SMOOTH",
"270 608 LINE",
"270 -1 LINE"
);
}
);
width = 610;
},
{
anchors = (
{
name = bottom;
position = "{298, -6}";
},
{
name = center;
position = "{298, 343}";
},
{
name = top;
position = "{298, 692}";
}
);
layerId = "49C16FD3-6177-408B-A733-AEB3898BB77C";
paths = (
{
closed = 1;
nodes = (
"317 1 LINE",
"317 641 LINE",
"560 641 LINE",
"560 685 LINE",
"94 685 LINE SMOOTH",
"59 685 OFFCURVE",
"12 656 OFFCURVE",
"12 600 CURVE SMOOTH",
"12 571 OFFCURVE",
"22 549 OFFCURVE",
"44 532 CURVE",
"68 569 LINE",
"61 576 OFFCURVE",
"56 587 OFFCURVE",
"56 599 CURVE SMOOTH",
"56 618 OFFCURVE",
"71 641 OFFCURVE",
"97 641 CURVE SMOOTH",
"269 641 LINE",
"269 1 LINE"
);
}
);
width = 568;
}
);
leftKerningGroup = T;
rightKerningGroup = T;
userData = {
position = 277;
width = 61;
};
},
{
glyphname = T.ss02;
lastChange = "2019-09-06 17:32:29 +0000";
layers = (
{
anchors = (
{
name = bottom;
position = "{299, 0}";
},
{
name = center;
position = "{299, 361}";
},
{
name = top;
position = "{299, 684}";
}
);
layerId = "873CAA12-270D-4223-A88E-AE8E101FDBE8";
paths = (
{
closed = 1;
nodes = (
"324 0 LINE",
"324 627 LINE",
"563 627 LINE",
"563 684 LINE",
"24 684 LINE",
"24 627 LINE",
"263 627 LINE",
"263 0 LINE"
);
}
);
width = 587;
},
{
anchors = (
{
name = bottom;
position = "{298, 3}";
},
{
name = center;
position = "{305, 355}";
},
{
name = top;
position = "{296, 684}";
}
);
layerId = "0CAF3BED-C4AC-4024-B3E1-4C69D1EF7EC0";
paths = (
{
closed = 1;
nodes = (
"340 -1 LINE",
"340 608 LINE",
"572 608 LINE",
"572 686 LINE",
"26 686 LINE",
"26 608 LINE",
"258 608 LINE",
"258 -1 LINE"
);
}
);
width = 598;
},
{
anchors = (
{
name = bottom;
position = "{279, 0}";
},
{
name = center;
position = "{281, 383}";
},
{
name = top;
position = "{275, 684}";
}
);
layerId = "49C16FD3-6177-408B-A733-AEB3898BB77C";
paths = (
{
closed = 1;
nodes = (
"300 1 LINE",
"300 641 LINE",
"543 641 LINE",
"543 685 LINE",
"8 685 LINE",
"8 641 LINE",
"252 641 LINE",
"252 1 LINE"
);
}
);
width = 551;
}
);
leftKerningGroup = T;
rightKerningGroup = T;
userData = {
position = 254;
width = 61;
};
},
{
glyphname = U;
lastChange = "2019-09-06 17:32:29 +0000";
layers = (
{
anchors = (
{
name = bottom;
position = "{405, -10}";
},
{
name = horn;
position = "{671, 685}";
},
{
name = ogonek;
position = "{571, 43}";
},
{
name = top;
position = "{403, 684}";
}
);
layerId = "873CAA12-270D-4223-A88E-AE8E101FDBE8";
paths = (
{
closed = 1;
nodes = (
"591 -9 OFFCURVE",
"671 133 OFFCURVE",
"671 268 CURVE SMOOTH",
"671 685 LINE",
"610 685 LINE",
"610 268 LINE SMOOTH",
"610 162 OFFCURVE",
"553 46 OFFCURVE",
"404 46 CURVE SMOOTH",
"266 46 OFFCURVE",
"197 146 OFFCURVE",
"197 268 CURVE SMOOTH",
"197 595 LINE SMOOTH",
"197 659 OFFCURVE",
"160 693 OFFCURVE",
"100 693 CURVE SMOOTH",
"69 693 OFFCURVE",
"36 676 OFFCURVE",
"18 650 CURVE",
"68 616 LINE",
"75 627 OFFCURVE",
"88 633 OFFCURVE",
"102 633 CURVE SMOOTH",
"116 633 OFFCURVE",
"135 627 OFFCURVE",
"136 595 CURVE SMOOTH",
"136 268 LINE SMOOTH",
"136 119 OFFCURVE",
"229 -9 OFFCURVE",
"405 -9 CURVE SMOOTH"
);
}
);
width = 741;
},
{
anchors = (
{
name = bottom;
position = "{409, 2}";
},
{
name = horn;
position = "{679, 687}";
},
{
name = ogonek;
position = "{564, 46}";
},
{
name = top;
position = "{407, 675}";
}
);
layerId = "0CAF3BED-C4AC-4024-B3E1-4C69D1EF7EC0";
paths = (
{
closed = 1;
nodes = (
"596 -9 OFFCURVE",
"679 137 OFFCURVE",
"679 271 CURVE SMOOTH",
"679 687 LINE",
"596 687 LINE",
"596 271 LINE SMOOTH",
"596 173 OFFCURVE",
"543 64 OFFCURVE",
"408 64 CURVE SMOOTH",
"282 64 OFFCURVE",
"219 158 OFFCURVE",
"219 271 CURVE SMOOTH",
"219 588 LINE SMOOTH",
"219 655 OFFCURVE",
"176 695 OFFCURVE",
"113 695 CURVE SMOOTH",
"76 695 OFFCURVE",
"34 671 OFFCURVE",
"18 638 CURVE",
"87 591 LINE",
"92 607 OFFCURVE",
"100 613 OFFCURVE",
"115 613 CURVE SMOOTH",
"122 613 OFFCURVE",
"136 611 OFFCURVE",
"136 588 CURVE SMOOTH",
"136 271 LINE SMOOTH",
"136 123 OFFCURVE",
"232 -9 OFFCURVE",
"409 -9 CURVE SMOOTH"
);
}
);
width = 749;
},
{
anchors = (
{
name = bottom;
position = "{387, -16}";
},
{
name = horn;
position = "{651, 686}";
},
{
name = ogonek;
position = "{552, 38}";
},
{
name = top;
position = "{385, 692}";
}
);
layerId = "49C16FD3-6177-408B-A733-AEB3898BB77C";
paths = (
{
closed = 1;
nodes = (
"573 -8 OFFCURVE",
"651 132 OFFCURVE",
"651 267 CURVE SMOOTH",
"651 686 LINE",
"603 686 LINE",
"603 267 LINE SMOOTH",
"603 158 OFFCURVE",
"542 34 OFFCURVE",
"386 34 CURVE SMOOTH",
"241 34 OFFCURVE",
"168 141 OFFCURVE",
"168 267 CURVE SMOOTH",
"168 601 LINE SMOOTH",
"168 663 OFFCURVE",
"134 694 OFFCURVE",
"76 694 CURVE SMOOTH",
"48 694 OFFCURVE",
"20 680 OFFCURVE",
"2 659 CURVE",
"42 632 LINE",
"51 641 OFFCURVE",
"65 647 OFFCURVE",
"78 647 CURVE SMOOTH",
"93 647 OFFCURVE",
"119 639 OFFCURVE",
"120 601 CURVE SMOOTH",
"120 267 LINE SMOOTH",
"120 118 OFFCURVE",
"211 -8 OFFCURVE",
"387 -8 CURVE SMOOTH"
);
}
);
width = 718;
}
);
leftKerningGroup = E;
rightKerningGroup = U;
unicode = 0055;
userData = {
position = 606;
width = 61;
};
},
{
glyphname = U.ss02;
lastChange = "2019-09-06 17:32:29 +0000";
layers = (
{
anchors = (
{
name = bottom;
position = "{336, -10}";
},
{
name = horn;
position = "{606, 500}";
},
{
name = ogonek;
position = "{532, 67}";
},
{
name = top;
position = "{343, 684}";
},
{
name = topright;
position = "{659, 684}";
}
);
layerId = "873CAA12-270D-4223-A88E-AE8E101FDBE8";
paths = (
{
closed = 1;
nodes = (
"495 -10 OFFCURVE",
"605 98 OFFCURVE",
"605 267 CURVE SMOOTH",
"605 684 LINE",
"544 684 LINE",
"544 267 LINE SMOOTH",
"544 133 OFFCURVE",
"463 45 OFFCURVE",
"338 45 CURVE SMOOTH",
"215 45 OFFCURVE",
"131 131 OFFCURVE",
"131 267 CURVE SMOOTH",
"131 684 LINE",
"70 684 LINE",
"70 267 LINE SMOOTH",
"70 108 OFFCURVE",
"171 -10 OFFCURVE",
"336 -10 CURVE SMOOTH"
);
}
);
width = 675;
},
{
anchors = (
{
name = bottom;
position = "{341, 0}";
},
{
name = horn;
position = "{606, 500}";
},
{
name = ogonek;
position = "{530, 63}";
},
{
name = top;
position = "{346, 675}";
},
{
name = topright;
position = "{666, 684}";
}
);
layerId = "0CAF3BED-C4AC-4024-B3E1-4C69D1EF7EC0";
paths = (
{
closed = 1;
nodes = (
"498 -10 OFFCURVE",
"612 101 OFFCURVE",
"612 270 CURVE SMOOTH",
"612 686 LINE",
"530 686 LINE",
"530 270 LINE SMOOTH",
"530 147 OFFCURVE",
"456 63 OFFCURVE",
"341 63 CURVE SMOOTH",
"229 63 OFFCURVE",
"152 145 OFFCURVE",
"152 270 CURVE SMOOTH",
"152 686 LINE",
"70 686 LINE",
"70 270 LINE SMOOTH",
"70 112 OFFCURVE",
"174 -10 OFFCURVE",
"339 -10 CURVE SMOOTH"
);
}
);
width = 682;
},
{
anchors = (
{
name = bottom;
position = "{332, -9}";
},
{
name = horn;
position = "{598, 542}";
},
{
name = ogonek;
position = "{532, 62}";
},
{
name = top;
position = "{340, 692}";
},
{
name = topright;
position = "{602, 684}";
}
);
layerId = "49C16FD3-6177-408B-A733-AEB3898BB77C";
paths = (
{
closed = 1;
nodes = (
"492 -9 OFFCURVE",
"600 97 OFFCURVE",
"600 266 CURVE SMOOTH",
"600 685 LINE",
"552 685 LINE",
"552 266 LINE SMOOTH",
"552 127 OFFCURVE",
"465 33 OFFCURVE",
"334 33 CURVE SMOOTH",
"206 33 OFFCURVE",
"116 125 OFFCURVE",
"116 266 CURVE SMOOTH",
"116 685 LINE",
"68 685 LINE",
"68 266 LINE SMOOTH",
"68 107 OFFCURVE",
"167 -9 OFFCURVE",
"332 -9 CURVE SMOOTH"
);
}
);
width = 668;
}
);
rightKerningGroup = U;
userData = {
position = 564;
width = 61;
};
},
{
glyphname = V;
lastChange = "2019-09-06 17:32:29 +0000";
layers = (
{
layerId = "873CAA12-270D-4223-A88E-AE8E101FDBE8";
paths = (
{
closed = 1;
nodes = (
"403 0 LINE",
"626 685 LINE",
"566 685 LINE",
"374 86 LINE",
"187 640 LINE SMOOTH",
"177 669 OFFCURVE",
"149 690 OFFCURVE",
"111 690 CURVE SMOOTH",
"70 690 OFFCURVE",
"33 665 OFFCURVE",
"20 623 CURVE",
"76 607 LINE",
"82 622 OFFCURVE",
"96 630 OFFCURVE",
"109 630 CURVE SMOOTH",
"122 630 OFFCURVE",
"134 623 OFFCURVE",
"139 610 CURVE SMOOTH",
"345 0 LINE"
);
}
);
width = 653;
},
{
layerId = "0CAF3BED-C4AC-4024-B3E1-4C69D1EF7EC0";
paths = (
{
closed = 1;
nodes = (
"415 -1 LINE",
"638 687 LINE",
"556 687 LINE",
"378 132 LINE",
"208 636 LINE SMOOTH",
"197 667 OFFCURVE",
"164 692 OFFCURVE",
"123 692 CURVE SMOOTH",
"76 692 OFFCURVE",
"30 659 OFFCURVE",
"21 607 CURVE",
"97 585 LINE",
"100 603 OFFCURVE",
"109 611 OFFCURVE",
"121 611 CURVE SMOOTH",
"130 611 OFFCURVE",
"136 607 OFFCURVE",
"139 599 CURVE SMOOTH",
"341 -1 LINE"
);
}
);
width = 665;
},
{
layerId = "49C16FD3-6177-408B-A733-AEB3898BB77C";
paths = (
{
closed = 1;
nodes = (
"381 1 LINE",
"604 686 LINE",
"557 686 LINE",
"357 59 LINE",
"159 644 LINE SMOOTH",
"149 672 OFFCURVE",
"124 691 OFFCURVE",
"88 691 CURVE SMOOTH",
"51 691 OFFCURVE",
"19 670 OFFCURVE",
"5 634 CURVE",
"49 622 LINE",
"57 636 OFFCURVE",
"73 644 OFFCURVE",
"86 644 CURVE SMOOTH",
"101 644 OFFCURVE",
"117 634 OFFCURVE",
"123 619 CURVE",
"332 1 LINE"
);
}
);
width = 619;
}
);
leftKerningGroup = V;
rightKerningGroup = V;
unicode = 0056;
userData = {
position = 631;
width = 59;
};
},
{
glyphname = V.ss02;
lastChange = "2019-09-06 17:32:29 +0000";
layers = (
{
layerId = "873CAA12-270D-4223-A88E-AE8E101FDBE8";
paths = (
{
closed = 1;
nodes = (
"323 0 LINE",
"546 685 LINE",
"486 685 LINE",
"294 86 LINE",
"114 625 LINE SMOOTH",
"105 652 OFFCURVE",
"77 690 OFFCURVE",
"26 690 CURVE",
"26 631 LINE",
"41 629 OFFCURVE",
"54 625 OFFCURVE",
"59 610 CURVE SMOOTH",
"265 0 LINE"
);
}
);
width = 573;
},
{
layerId = "0CAF3BED-C4AC-4024-B3E1-4C69D1EF7EC0";
paths = (
{
closed = 1;
nodes = (
"336 -1 LINE",
"560 687 LINE",
"477 687 LINE",
"299 132 LINE",
"136 621 LINE SMOOTH",
"127 649 OFFCURVE",
"95 692 OFFCURVE",
"40 692 CURVE SMOOTH",
"36 692 OFFCURVE",
"32 691 OFFCURVE",
"28 691 CURVE",
"28 613 LINE",
"48 610 OFFCURVE",
"57 610 OFFCURVE",
"60 599 CURVE",
"263 -1 LINE"
);
}
);
width = 587;
},
{
layerId = "49C16FD3-6177-408B-A733-AEB3898BB77C";
paths = (
{
closed = 1;
nodes = (
"303 1 LINE",
"526 686 LINE",
"480 686 LINE",
"279 59 LINE",
"89 629 LINE SMOOTH",
"80 654 OFFCURVE",
"57 687 OFFCURVE",
"13 690 CURVE",
"13 644 LINE",
"27 641 OFFCURVE",
"41 635 OFFCURVE",
"46 618 CURVE",
"254 1 LINE"
);
}
);
width = 541;
}
);
leftKerningGroup = V;
rightKerningGroup = V;
rightMetricsKey = V;
userData = {
position = 631;
width = 59;
};
},
{
glyphname = W;
lastChange = "2019-09-06 17:32:29 +0000";
layers = (
{
anchors = (
{
name = top;
position = "{592, 684}";
}
);
layerId = "873CAA12-270D-4223-A88E-AE8E101FDBE8";
paths = (
{
closed = 1;
nodes = (
"399 0 LINE",
"591 591 LINE",
"784 0 LINE",
"843 0 LINE",
"1066 685 LINE",
"1006 685 LINE",
"818 100 LINE",
"816 86 LINE",
"815 83 OFFCURVE",
"815 80 OFFCURVE",
"815 76 CURVE SMOOTH",
"815 72 LINE",
"809 100 LINE",
"621 685 LINE",
"562 685 LINE",
"374 100 LINE",
"369 79 LINE",
"367 89 LINE",
"365 100 LINE",
"194 631 LINE SMOOTH",
"183 668 OFFCURVE",
"148 694 OFFCURVE",
"108 694 CURVE SMOOTH",
"71 694 OFFCURVE",
"32 671 OFFCURVE",
"20 628 CURVE",
"75 612 LINE",
"81 629 OFFCURVE",
"94 637 OFFCURVE",
"107 637 CURVE SMOOTH",
"120 637 OFFCURVE",
"133 629 OFFCURVE",
"139 613 CURVE SMOOTH",
"340 0 LINE"
);
}
);
width = 1103;
},
{
anchors = (
{
name = top;
position = "{589, 675}";
}
);
layerId = "0CAF3BED-C4AC-4024-B3E1-4C69D1EF7EC0";
paths = (
{
closed = 1;
nodes = (
"411 -1 LINE",
"588 547 LINE",
"767 -1 LINE",
"841 -1 LINE",
"1065 687 LINE",
"983 687 LINE",
"819 172 LINE",
"797 84 LINE",
"785 153 LINE",
"626 687 LINE",
"552 687 LINE",
"379 142 LINE",
"372 90 LINE",
"366 141 LINE",
"214 627 LINE",
"200 672 OFFCURVE",
"163 696 OFFCURVE",
"120 696 CURVE SMOOTH",
"78 696 OFFCURVE",
"29 665 OFFCURVE",
"21 612 CURVE",
"93 592 LINE",
"97 613 OFFCURVE",
"108 619 OFFCURVE",
"119 619 CURVE SMOOTH",
"128 619 OFFCURVE",
"135 613 OFFCURVE",
"139 602 CURVE SMOOTH",
"337 -1 LINE"
);
}
);
width = 1102;
},
{
anchors = (
{
name = top;
position = "{580, 692}";
}
);
layerId = "49C16FD3-6177-408B-A733-AEB3898BB77C";
paths = (
{
closed = 1;
nodes = (
"794 94 LINE",
"604 686 LINE",
"554 686 LINE",
"364 94 LINE",
"352 41 LINE",
"343 83 LINE",
"341 95 LINE",
"341 94 LINE",
"167 635 LINE SMOOTH",
"156 671 OFFCURVE",
"124 695 OFFCURVE",
"86 695 CURVE SMOOTH",
"52 695 OFFCURVE",
"19 676 OFFCURVE",
"5 639 CURVE",
"48 627 LINE",
"56 643 OFFCURVE",
"71 653 OFFCURVE",
"85 653 CURVE SMOOTH",
"100 653 OFFCURVE",
"116 645 OFFCURVE",
"124 622 CURVE",
"328 1 LINE",
"378 1 LINE",
"579 620 LINE",
"781 1 LINE",
"831 1 LINE",
"1053 686 LINE",
"1007 686 LINE",
"817 94 LINE",
"815 81 LINE",
"815 80 LINE SMOOTH",
"815 78 OFFCURVE",
"815 75 OFFCURVE",
"814 71 CURVE SMOOTH",
"809 38 LINE"
);
}
);
width = 1078;
}
);
leftKerningGroup = V;
leftMetricsKey = V;
rightKerningGroup = V;
rightMetricsKey = "=V+10";
unicode = 0057;
userData = {
position = 665;
width = 20;
};
},
{
glyphname = W.ss02;
lastChange = "2019-09-06 17:32:29 +0000";
layers = (
{
anchors = (
{
name = top;
position = "{511, 684}";
}
);
layerId = "873CAA12-270D-4223-A88E-AE8E101FDBE8";
paths = (
{
closed = 1;
nodes = (
"318 0 LINE",
"510 591 LINE",
"703 0 LINE",
"762 0 LINE",
"985 685 LINE",
"925 685 LINE",
"737 100 LINE",
"735 86 LINE",
"734 83 OFFCURVE",
"734 80 OFFCURVE",
"734 76 CURVE SMOOTH",
"734 72 LINE",
"728 100 LINE",
"540 685 LINE",
"481 685 LINE",
"293 100 LINE",
"288 79 LINE",
"286 89 LINE",
"284 100 LINE",
"113 631 LINE SMOOTH",
"107 650 OFFCURVE",
"96 666 OFFCURVE",
"80 677 CURVE SMOOTH",
"67 686 OFFCURVE",
"47 694 OFFCURVE",
"26 694 CURVE",
"26 636 LINE",
"43 636 OFFCURVE",
"53 628 OFFCURVE",
"58 613 CURVE SMOOTH",
"259 0 LINE"
);
}
);
width = 1012;
},
{
anchors = (
{
name = top;
position = "{511, 675}";
}
);
layerId = "0CAF3BED-C4AC-4024-B3E1-4C69D1EF7EC0";
paths = (
{
closed = 1;
nodes = (
"332 -1 LINE",
"510 547 LINE",
"688 -1 LINE",
"762 -1 LINE",
"986 687 LINE",
"904 687 LINE",
"718 111 LINE",
"715 89 LINE",
"715 191 LINE",
"732 111 LINE",
"547 687 LINE",
"473 687 LINE",
"288 112 LINE",
"288 111 LINE",
"295 142 LINE",
"304 100 LINE",
"302 111 LINE",
"136 627 LINE SMOOTH",
"129 647 OFFCURVE",
"116 666 OFFCURVE",
"99 677 CURVE SMOOTH",
"85 686 OFFCURVE",
"63 696 OFFCURVE",
"40 696 CURVE SMOOTH",
"36 696 OFFCURVE",
"32 696 OFFCURVE",
"28 695 CURVE",
"28 616 LINE",
"33 616 OFFCURVE",
"36 617 OFFCURVE",
"40 617 CURVE SMOOTH",
"52 617 OFFCURVE",
"56 613 OFFCURVE",
"60 602 CURVE SMOOTH",
"258 -1 LINE"
);
}
);
width = 1013;
},
{
anchors = (
{
name = top;
position = "{500, 692}";
}
);
layerId = "49C16FD3-6177-408B-A733-AEB3898BB77C";
paths = (
{
closed = 1;
nodes = (
"715 94 LINE",
"525 686 LINE",
"475 686 LINE",
"285 94 LINE",
"272 41 LINE",
"264 83 LINE",
"262 95 LINE",
"262 94 LINE",
"88 635 LINE SMOOTH",
"82 654 OFFCURVE",
"72 668 OFFCURVE",
"57 679 CURVE",
"46 686 OFFCURVE",
"30 693 OFFCURVE",
"13 694 CURVE",
"13 649 LINE",
"29 647 OFFCURVE",
"40 637 OFFCURVE",
"45 621 CURVE SMOOTH",
"248 1 LINE",
"298 1 LINE",
"499 620 LINE",
"701 1 LINE",
"751 1 LINE",
"974 686 LINE",
"928 686 LINE",
"738 94 LINE",
"735 74 LINE",
"726 41 LINE"
);
}
);
width = 989;
}
);
leftKerningGroup = V;
rightKerningGroup = V;
rightMetricsKey = V;
userData = {
position = 665;
width = 20;
};
},
{
glyphname = X;
lastChange = "2019-09-06 17:32:29 +0000";
layers = (
{
layerId = "873CAA12-270D-4223-A88E-AE8E101FDBE8";
paths = (
{
closed = 1;
nodes = (
"563 -7 OFFCURVE",
"608 24 OFFCURVE",
"611 80 CURVE",
"553 83 LINE",
"550 65 OFFCURVE",
"538 51 OFFCURVE",
"519 51 CURVE SMOOTH",
"507 51 OFFCURVE",
"498 57 OFFCURVE",
"493 65 CURVE SMOOTH",
"323 351 LINE",
"533 684 LINE",
"462 684 LINE",
"281 395 LINE",
"99 684 LINE",
"30 684 LINE",
"241 351 LINE",
"32 0 LINE",
"103 0 LINE",
"284 306 LINE",
"424 65 LINE SMOOTH",
"449 20 OFFCURVE",
"471 -7 OFFCURVE",
"515 -7 CURVE SMOOTH"
);
}
);
width = 633;
},
{
layerId = "0CAF3BED-C4AC-4024-B3E1-4C69D1EF7EC0";
paths = (
{
closed = 1;
nodes = (
"576 -7 OFFCURVE",
"630 33 OFFCURVE",
"627 100 CURVE",
"548 104 LINE",
"550 87 OFFCURVE",
"540 72 OFFCURVE",
"526 72 CURVE SMOOTH",
"518 72 OFFCURVE",
"514 75 OFFCURVE",
"511 80 CURVE SMOOTH",
"350 351 LINE",
"561 686 LINE",
"464 686 LINE",
"295 416 LINE",
"125 686 LINE",
"31 686 LINE",
"243 351 LINE",
"33 -1 LINE",
"129 -1 LINE",
"298 285 LINE",
"424 68 LINE SMOOTH",
"448 24 OFFCURVE",
"474 -7 OFFCURVE",
"522 -7 CURVE SMOOTH"
);
}
);
width = 649;
},
{
layerId = "49C16FD3-6177-408B-A733-AEB3898BB77C";
paths = (
{
closed = 1;
nodes = (
"547 -6 OFFCURVE",
"587 20 OFFCURVE",
"593 69 CURVE",
"547 71 LINE",
"542 54 OFFCURVE",
"527 39 OFFCURVE",
"507 39 CURVE SMOOTH",
"492 39 OFFCURVE",
"480 47 OFFCURVE",
"474 56 CURVE",
"298 352 LINE",
"508 685 LINE",
"452 685 LINE",
"264 383 LINE",
"74 685 LINE",
"21 685 LINE",
"231 352 LINE",
"22 1 LINE",
"78 1 LINE",
"267 320 LINE",
"416 64 LINE SMOOTH",
"441 18 OFFCURVE",
"461 -6 OFFCURVE",
"503 -6 CURVE SMOOTH"
);
}
);
width = 599;
}
);
leftKerningGroup = X;
rightKerningGroup = K;
unicode = 0058;
userData = {
position = 566;
width = 58;
};
},
{
glyphname = X.ss02;
lastChange = "2019-09-06 17:32:29 +0000";
layers = (
{
layerId = "873CAA12-270D-4223-A88E-AE8E101FDBE8";
paths = (
{
closed = 1;
nodes = (
"528 51 LINE",
"511 51 OFFCURVE",
"499 56 OFFCURVE",
"493 65 CURVE SMOOTH",
"323 351 LINE",
"533 684 LINE",
"462 684 LINE",
"281 395 LINE",
"99 684 LINE",
"30 684 LINE",
"241 351 LINE",
"32 0 LINE",
"103 0 LINE",
"284 306 LINE",
"424 65 LINE SMOOTH",
"453 16 OFFCURVE",
"470 -7 OFFCURVE",
"528 -7 CURVE"
);
}
);
width = 555;
},
{
layerId = "0CAF3BED-C4AC-4024-B3E1-4C69D1EF7EC0";
paths = (
{
closed = 1;
nodes = (
"546 73 LINE",
"540 73 OFFCURVE",
"536 72 OFFCURVE",
"532 72 CURVE SMOOTH",
"519 72 OFFCURVE",
"514 75 OFFCURVE",
"511 80 CURVE SMOOTH",
"350 351 LINE",
"561 686 LINE",
"464 686 LINE",
"295 416 LINE",
"125 686 LINE",
"31 686 LINE",
"243 351 LINE",
"33 -1 LINE",
"129 -1 LINE",
"298 285 LINE",
"424 68 LINE SMOOTH",
"454 17 OFFCURVE",
"475 -11 OFFCURVE",
"546 -7 CURVE"
);
}
);
width = 583;
},
{
layerId = "49C16FD3-6177-408B-A733-AEB3898BB77C";
paths = (
{
closed = 1;
nodes = (
"509 39 LINE",
"493 41 OFFCURVE",
"481 46 OFFCURVE",
"474 56 CURVE",
"298 352 LINE",
"508 685 LINE",
"452 685 LINE",
"264 383 LINE",
"74 685 LINE",
"21 685 LINE",
"231 352 LINE",
"22 1 LINE",
"78 1 LINE",
"267 320 LINE",
"416 64 LINE SMOOTH",
"444 16 OFFCURVE",
"459 -4 OFFCURVE",
"509 -6 CURVE"
);
}
);
width = 515;
}
);
leftKerningGroup = X;
leftMetricsKey = X;
rightKerningGroup = K;
rightMetricsKey = X;
userData = {
position = 566;
width = 58;
};
},
{
glyphname = Y;
lastChange = "2019-09-06 17:32:29 +0000";
layers = (
{
anchors = (
{
name = bottom;
position = "{345, 1}";
},
{
name = top;
position = "{344, 684}";
}
);
layerId = "873CAA12-270D-4223-A88E-AE8E101FDBE8";
paths = (
{
closed = 1;
nodes = (
"381 0 LINE",
"379 299 LINE",
"595 685 LINE",
"525 685 LINE",
"348 364 LINE",
"194 646 LINE",
"173 681 OFFCURVE",
"143 694 OFFCURVE",
"115 694 CURVE SMOOTH",
"72 694 OFFCURVE",
"26 665 OFFCURVE",
"21 611 CURVE",
"80 605 LINE",
"81 624 OFFCURVE",
"96 635 OFFCURVE",
"112 635 CURVE SMOOTH",
"123 635 OFFCURVE",
"134 630 OFFCURVE",
"142 618 CURVE",
"318 297 LINE",
"315 0 LINE"
);
}
);
width = 617;
},
{
anchors = (
{
name = bottom;
position = "{348, 12}";
},
{
name = top;
position = "{347, 675}";
}
);
layerId = "0CAF3BED-C4AC-4024-B3E1-4C69D1EF7EC0";
paths = (
{
closed = 1;
nodes = (
"394 -1 LINE",
"393 298 LINE",
"610 687 LINE",
"516 687 LINE",
"351 385 LINE",
"212 643 LINE",
"189 681 OFFCURVE",
"154 696 OFFCURVE",
"125 696 CURVE SMOOTH",
"77 696 OFFCURVE",
"21 659 OFFCURVE",
"22 593 CURVE",
"106 585 LINE",
"104 589 OFFCURVE",
"102 593 OFFCURVE",
"102 597 CURVE SMOOTH",
"102 608 OFFCURVE",
"112 615 OFFCURVE",
"122 615 CURVE SMOOTH",
"130 615 OFFCURVE",
"135 613 OFFCURVE",
"141 605 CURVE",
"310 296 LINE",
"307 -1 LINE"
);
}
);
width = 632;
},
{
anchors = (
{
name = bottom;
position = "{329, -5}";
},
{
name = top;
position = "{328, 692}";
}
);
layerId = "49C16FD3-6177-408B-A733-AEB3898BB77C";
paths = (
{
closed = 1;
nodes = (
"358 1 LINE",
"356 301 LINE",
"572 686 LINE",
"517 686 LINE",
"332 353 LINE",
"168 649 LINE SMOOTH",
"148 683 OFFCURVE",
"121 695 OFFCURVE",
"94 695 CURVE SMOOTH",
"54 695 OFFCURVE",
"14 671 OFFCURVE",
"6 624 CURVE",
"52 619 LINE",
"57 637 OFFCURVE",
"75 649 OFFCURVE",
"91 649 CURVE SMOOTH",
"104 649 OFFCURVE",
"118 642 OFFCURVE",
"128 628 CURVE",
"308 299 LINE",
"305 1 LINE"
);
}
);
width = 579;
}
);
leftKerningGroup = Y;
rightKerningGroup = Y;
unicode = 0059;
userData = {
position = 308;
width = 66;
};
},
{
glyphname = Y.ss02;
lastChange = "2019-09-06 17:32:29 +0000";
layers = (
{
anchors = (
{
name = bottom;
position = "{261, 1}";
},
{
name = top;
position = "{260, 684}";
}
);
layerId = "873CAA12-270D-4223-A88E-AE8E101FDBE8";
paths = (
{
closed = 1;
nodes = (
"297 0 LINE",
"295 299 LINE",
"511 685 LINE",
"443 685 LINE",
"264 362 LINE",
"108 646 LINE SMOOTH",
"90 679 OFFCURVE",
"64 694 OFFCURVE",
"24 694 CURVE",
"24 635 LINE",
"41 635 OFFCURVE",
"51 629 OFFCURVE",
"58 618 CURVE",
"234 297 LINE",
"231 0 LINE"
);
}
);
width = 533;
},
{
anchors = (
{
name = bottom;
position = "{267, 12}";
},
{
name = top;
position = "{266, 675}";
}
);
layerId = "0CAF3BED-C4AC-4024-B3E1-4C69D1EF7EC0";
paths = (
{
closed = 1;
nodes = (
"314 -1 LINE",
"312 298 LINE",
"529 687 LINE",
"435 687 LINE",
"270 385 LINE",
"131 643 LINE SMOOTH",
"110 681 OFFCURVE",
"73 699 OFFCURVE",
"26 695 CURVE",
"26 615 LINE",
"48 616 OFFCURVE",
"54 615 OFFCURVE",
"60 604 CURVE",
"60 605 LINE",
"229 296 LINE",
"226 -1 LINE"
);
}
);
width = 551;
},
{
anchors = (
{
name = bottom;
position = "{243, -5}";
},
{
name = top;
position = "{242, 692}";
}
);
layerId = "49C16FD3-6177-408B-A733-AEB3898BB77C";
paths = (
{
closed = 1;
nodes = (
"273 1 LINE",
"271 301 LINE",
"486 686 LINE",
"431 686 LINE",
"246 348 LINE",
"83 649 LINE SMOOTH",
"67 678 OFFCURVE",
"43 693 OFFCURVE",
"9 695 CURVE",
"9 648 LINE",
"24 647 OFFCURVE",
"35 639 OFFCURVE",
"42 628 CURVE",
"223 299 LINE",
"220 1 LINE"
);
}
);
width = 493;
}
);
leftKerningGroup = Y;
rightKerningGroup = Y;
rightMetricsKey = Y;
userData = {
position = 308;
width = 66;
};
},
{
glyphname = Z;
lastChange = "2019-09-06 17:32:29 +0000";
layers = (
{
anchors = (
{
name = top;
position = "{292, 683}";
}
);
layerId = "873CAA12-270D-4223-A88E-AE8E101FDBE8";
paths = (
{
closed = 1;
nodes = (
"105 46 LINE",
"203 28 OFFCURVE",
"274 -14 OFFCURVE",
"362 -14 CURVE SMOOTH",
"419 -14 OFFCURVE",
"466 4 OFFCURVE",
"519 54 CURVE",
"481 91 LINE",
"447 59 OFFCURVE",
"409 39 OFFCURVE",
"362 39 CURVE SMOOTH",
"303 39 OFFCURVE",
"230 71 OFFCURVE",
"166 84 CURVE SMOOTH",
"132 90 LINE",
"485 681 LINE",
"79 681 LINE",
"79 628 LINE",
"392 628 LINE",
"24 12 LINE",
"69 -15 LINE"
);
}
);
width = 542;
},
{
anchors = (
{
name = top;
position = "{300, 674}";
}
);
layerId = "0CAF3BED-C4AC-4024-B3E1-4C69D1EF7EC0";
paths = (
{
closed = 1;
nodes = (
"125 43 LINE",
"214 25 OFFCURVE",
"282 -14 OFFCURVE",
"368 -14 CURVE SMOOTH",
"429 -14 OFFCURVE",
"481 7 OFFCURVE",
"537 63 CURVE",
"483 116 LINE",
"449 81 OFFCURVE",
"414 61 OFFCURVE",
"368 61 CURVE SMOOTH",
"313 61 OFFCURVE",
"244 91 OFFCURVE",
"180 104 CURVE SMOOTH",
"164 107 LINE",
"508 683 LINE",
"82 683 LINE",
"82 609 LINE",
"377 609 LINE",
"24 19 LINE",
"88 -19 LINE"
);
}
);
width = 561;
},
{
anchors = (
{
name = top;
position = "{276, 691}";
}
);
layerId = "49C16FD3-6177-408B-A733-AEB3898BB77C";
paths = (
{
closed = 1;
nodes = (
"402 -13 OFFCURVE",
"446 3 OFFCURVE",
"497 49 CURVE",
"469 77 LINE",
"434 46 OFFCURVE",
"395 27 OFFCURVE",
"347 27 CURVE SMOOTH",
"286 27 OFFCURVE",
"210 60 OFFCURVE",
"146 73 CURVE SMOOTH",
"101 81 LINE",
"460 684 LINE",
"66 684 LINE",
"66 645 LINE",
"390 645 LINE",
"12 9 LINE",
"46 -11 LINE",
"82 49 LINE",
"185 31 OFFCURVE",
"258 -13 OFFCURVE",
"347 -13 CURVE SMOOTH"
);
}
);
width = 507;
}
);
leftKerningGroup = S;
rightKerningGroup = S;
unicode = 005A;
userData = {
position = 628;
width = 53;
};
},
{
glyphname = Z.ss02;
lastChange = "2019-09-06 17:32:29 +0000";
layers = (
{
anchors = (
{
name = bottom;
position = "{260, 0}";
},
{
name = top;
position = "{260, 684}";
}
);
layerId = "873CAA12-270D-4223-A88E-AE8E101FDBE8";
paths = (
{
closed = 1;
nodes = (
"495 0 LINE",
"495 57 LINE",
"116 57 LINE",
"475 671 LINE",
"475 684 LINE",
"44 684 LINE",
"44 627 LINE",
"383 627 LINE",
"24 13 LINE",
"24 0 LINE"
);
}
);
width = 518;
},
{
anchors = (
{
name = bottom;
position = "{264, -10}";
},
{
name = top;
position = "{301, 684}";
}
);
layerId = "0CAF3BED-C4AC-4024-B3E1-4C69D1EF7EC0";
paths = (
{
closed = 1;
nodes = (
"504 -1 LINE",
"504 78 LINE",
"145 78 LINE",
"484 659 LINE",
"484 686 LINE",
"43 686 LINE",
"43 608 LINE",
"363 608 LINE",
"24 27 LINE",
"24 -1 LINE"
);
}
);
width = 528;
},
{
anchors = (
{
name = bottom;
position = "{245, 0}";
},
{
name = top;
position = "{245, 684}";
}
);
layerId = "49C16FD3-6177-408B-A733-AEB3898BB77C";
paths = (
{
closed = 1;
nodes = (
"478 1 LINE",
"478 45 LINE",
"86 45 LINE",
"457 680 LINE",
"457 685 LINE",
"32 685 LINE",
"32 641 LINE",
"383 641 LINE",
"12 5 LINE",
"12 1 LINE"
);
}
);
width = 488;
}
);
leftKerningGroup = S;
leftMetricsKey = Z;
rightKerningGroup = S;
rightMetricsKey = Z;
userData = {
position = 627;
width = 57;
};
},
{
glyphname = a;
lastChange = "2019-09-06 17:32:29 +0000";
layers = (
{
anchors = (
{
name = bottom;
position = "{244, -8}";
},
{
name = ogonek;
position = "{540, 10}";
},
{
name = top;
position = "{263, 508}";
}
);
layerId = "873CAA12-270D-4223-A88E-AE8E101FDBE8";
paths = (
{
closed = 1;
nodes = (
"308 -10 OFFCURVE",
"363 14 OFFCURVE",
"395 68 CURVE",
"401 24 OFFCURVE",
"439 -10 OFFCURVE",
"485 -10 CURVE SMOOTH",
"511 -10 OFFCURVE",
"540 1 OFFCURVE",
"558 30 CURVE",
"513 61 LINE",
"506 50 OFFCURVE",
"495 45 OFFCURVE",
"484 45 CURVE SMOOTH",
"467 45 OFFCURVE",
"449 58 OFFCURVE",
"449 80 CURVE SMOOTH",
"449 499 LINE",
"394 499 LINE",
"358 504 OFFCURVE",
"304 508 OFFCURVE",
"274 508 CURVE SMOOTH",
"121 508 OFFCURVE",
"30 400 OFFCURVE",
"30 246 CURVE SMOOTH",
"30 110 OFFCURVE",
"101 -10 OFFCURVE",
"244 -10 CURVE SMOOTH"
);
},
{
closed = 1;
nodes = (
"137 42 OFFCURVE",
"87 144 OFFCURVE",
"87 248 CURVE SMOOTH",
"87 364 OFFCURVE",
"149 456 OFFCURVE",
"268 456 CURVE SMOOTH",
"303 456 OFFCURVE",
"363 448 OFFCURVE",
"394 448 CURVE",
"394 188 LINE SMOOTH",
"394 163 OFFCURVE",
"389 142 OFFCURVE",
"380 124 CURVE SMOOTH",
"357 77 OFFCURVE",
"308 42 OFFCURVE",
"245 42 CURVE SMOOTH"
);
}
);
width = 561;
},
{
anchors = (
{
name = bottom;
position = "{249, 4}";
},
{
name = ogonek;
position = "{569, 44}";
},
{
name = top;
position = "{268, 504}";
}
);
layerId = "0CAF3BED-C4AC-4024-B3E1-4C69D1EF7EC0";
paths = (
{
closed = 1;
nodes = (
"305 -10 OFFCURVE",
"357 9 OFFCURVE",
"391 51 CURVE",
"407 16 OFFCURVE",
"443 -10 OFFCURVE",
"483 -10 CURVE SMOOTH",
"513 -10 OFFCURVE",
"551 5 OFFCURVE",
"569 44 CURVE",
"506 87 LINE",
"499 70 OFFCURVE",
"491 66 OFFCURVE",
"483 66 CURVE SMOOTH",
"471 66 OFFCURVE",
"460 75 OFFCURVE",
"460 89 CURVE SMOOTH",
"460 507 LINE",
"396 507 LINE",
"360 512 OFFCURVE",
"308 516 OFFCURVE",
"279 516 CURVE SMOOTH",
"125 516 OFFCURVE",
"30 403 OFFCURVE",
"30 250 CURVE SMOOTH",
"30 115 OFFCURVE",
"104 -10 OFFCURVE",
"249 -10 CURVE SMOOTH"
);
},
{
closed = 1;
nodes = (
"154 64 OFFCURVE",
"109 156 OFFCURVE",
"109 252 CURVE SMOOTH",
"109 359 OFFCURVE",
"165 442 OFFCURVE",
"273 442 CURVE SMOOTH",
"302 442 OFFCURVE",
"351 436 OFFCURVE",
"383 434 CURVE",
"383 193 LINE SMOOTH",
"383 171 OFFCURVE",
"379 153 OFFCURVE",
"371 137 CURVE SMOOTH",
"350 94 OFFCURVE",
"307 64 OFFCURVE",
"251 64 CURVE SMOOTH"
);
}
);
width = 573;
},
{
anchors = (
{
name = bottom;
position = "{236, -14}";
},
{
name = ogonek;
position = "{547, 23}";
},
{
name = top;
position = "{255, 512}";
}
);
layerId = "49C16FD3-6177-408B-A733-AEB3898BB77C";
paths = (
{
closed = 1;
nodes = (
"311 -9 OFFCURVE",
"370 22 OFFCURVE",
"398 96 CURVE",
"397 90 OFFCURVE",
"396 83 OFFCURVE",
"396 77 CURVE SMOOTH",
"396 29 OFFCURVE",
"433 -9 OFFCURVE",
"482 -9 CURVE SMOOTH",
"505 -9 OFFCURVE",
"529 -1 OFFCURVE",
"547 23 CURVE",
"512 46 LINE",
"504 37 OFFCURVE",
"492 33 OFFCURVE",
"481 33 CURVE SMOOTH",
"461 33 OFFCURVE",
"438 49 OFFCURVE",
"438 76 CURVE SMOOTH",
"438 496 LINE",
"388 496 LINE",
"352 501 OFFCURVE",
"297 505 OFFCURVE",
"267 505 CURVE SMOOTH",
"114 505 OFFCURVE",
"25 399 OFFCURVE",
"25 245 CURVE SMOOTH",
"25 108 OFFCURVE",
"94 -9 OFFCURVE",
"236 -9 CURVE SMOOTH"
);
},
{
closed = 1;
nodes = (
"123 30 OFFCURVE",
"69 139 OFFCURVE",
"69 247 CURVE SMOOTH",
"69 367 OFFCURVE",
"135 466 OFFCURVE",
"261 466 CURVE SMOOTH",
"300 466 OFFCURVE",
"368 457 OFFCURVE",
"396 458 CURVE",
"396 186 LINE SMOOTH",
"396 159 OFFCURVE",
"391 136 OFFCURVE",
"381 117 CURVE SMOOTH",
"357 68 OFFCURVE",
"304 30 OFFCURVE",
"237 30 CURVE SMOOTH"
);
}
);
width = 536;
}
);
leftKerningGroup = o;
leftMetricsKey = c;
rightKerningGroup = m;
unicode = 0061;
userData = {
position = 407;
width = 55;
};
},
{
glyphname = a.ss02;
lastChange = "2019-09-06 17:32:29 +0000";
layers = (
{
anchors = (
{
name = bottom;
position = "{200, -10}";
},
{
name = ogonek;
position = "{436, 25}";
},
{
name = top;
position = "{238, 517}";
}
);
layerId = "873CAA12-270D-4223-A88E-AE8E101FDBE8";
paths = (
{
closed = 1;
nodes = (
"263 -10 OFFCURVE",
"322 16 OFFCURVE",
"350 72 CURVE",
"360 41 OFFCURVE",
"371 16 OFFCURVE",
"402 -8 CURVE",
"436 25 LINE",
"410 53 OFFCURVE",
"397 93 OFFCURVE",
"397 144 CURVE SMOOTH",
"397 353 LINE SMOOTH",
"397 457 OFFCURVE",
"343 514 OFFCURVE",
"237 514 CURVE SMOOTH",
"158 514 OFFCURVE",
"95 486 OFFCURVE",
"52 450 CURVE",
"79 408 LINE",
"124 442 OFFCURVE",
"184 462 OFFCURVE",
"236 462 CURVE SMOOTH",
"310 462 OFFCURVE",
"342 421 OFFCURVE",
"342 342 CURVE SMOOTH",
"342 306 LINE",
"240 306 LINE SMOOTH",
"149 306 OFFCURVE",
"23 279 OFFCURVE",
"23 146 CURVE SMOOTH",
"23 52 OFFCURVE",
"85 -10 OFFCURVE",
"195 -10 CURVE SMOOTH"
);
},
{
closed = 1;
nodes = (
"121 42 OFFCURVE",
"80 78 OFFCURVE",
"80 147 CURVE SMOOTH",
"80 239 OFFCURVE",
"154 255 OFFCURVE",
"240 255 CURVE SMOOTH",
"342 255 LINE",
"342 177 LINE SMOOTH",
"342 104 OFFCURVE",
"287 42 OFFCURVE",
"196 42 CURVE SMOOTH"
);
}
);
width = 463;
},
{
anchors = (
{
name = ogonek;
position = "{461, 10}";
},
{
name = top;
position = "{257, 0}";
}
);
associatedMasterId = "873CAA12-270D-4223-A88E-AE8E101FDBE8";
layerId = "67035B91-209B-4EB7-AE83-3C0B90A7279F";
name = "Regular Mar 21 13, 13:36";
paths = (
{
closed = 1;
nodes = (
"210 508 OFFCURVE",
"178 502 OFFCURVE",
"147 489 CURVE SMOOTH",
"120 478 OFFCURVE",
"90 461 OFFCURVE",
"70 444 CURVE",
"97 402 LINE",
"106 409 OFFCURVE",
"112 413 OFFCURVE",
"128 422 CURVE SMOOTH",
"145 432 OFFCURVE",
"154 436 OFFCURVE",
"165 440 CURVE SMOOTH",
"178 445 OFFCURVE",
"195 450 OFFCURVE",
"205 452 CURVE SMOOTH",
"218 455 OFFCURVE",
"233 456 OFFCURVE",
"245 456 CURVE SMOOTH",
"282 456 OFFCURVE",
"307 447 OFFCURVE",
"324 428 CURVE SMOOTH",
"341 409 OFFCURVE",
"349 378 OFFCURVE",
"349 336 CURVE SMOOTH",
"349 280 LINE",
"252 280 LINE SMOOTH",
"226 280 OFFCURVE",
"201 278 OFFCURVE",
"176 273 CURVE SMOOTH",
"151 268 OFFCURVE",
"131 262 OFFCURVE",
"109 249 CURVE SMOOTH",
"88 237 OFFCURVE",
"71 221 OFFCURVE",
"60 204 CURVE SMOOTH",
"47 183 OFFCURVE",
"41 161 OFFCURVE",
"41 133 CURVE SMOOTH",
"41 85 OFFCURVE",
"58 49 OFFCURVE",
"86 26 CURVE SMOOTH",
"119 -1 OFFCURVE",
"165 -10 OFFCURVE",
"204 -10 CURVE SMOOTH",
"244 -10 OFFCURVE",
"277 -1 OFFCURVE",
"301 12 CURVE SMOOTH",
"332 29 OFFCURVE",
"346 50 OFFCURVE",
"357 72 CURVE",
"362 57 OFFCURVE",
"367 44 OFFCURVE",
"376 29 CURVE SMOOTH",
"384 15 OFFCURVE",
"395 3 OFFCURVE",
"409 -8 CURVE",
"443 25 LINE",
"417 53 OFFCURVE",
"404 93 OFFCURVE",
"404 144 CURVE SMOOTH",
"404 347 LINE SMOOTH",
"404 394 OFFCURVE",
"393 437 OFFCURVE",
"367 466 CURVE SMOOTH",
"342 494 OFFCURVE",
"301 508 OFFCURVE",
"246 508 CURVE SMOOTH"
);
},
{
closed = 1;
nodes = (
"349 177 LINE SMOOTH",
"349 155 OFFCURVE",
"345 136 OFFCURVE",
"338 119 CURVE SMOOTH",
"332 105 OFFCURVE",
"319 88 OFFCURVE",
"306 77 CURVE SMOOTH",
"296 68 OFFCURVE",
"276 57 OFFCURVE",
"258 51 CURVE SMOOTH",
"240 45 OFFCURVE",
"221 42 OFFCURVE",
"202 42 CURVE SMOOTH",
"141 42 OFFCURVE",
"98 60 OFFCURVE",
"98 125 CURVE SMOOTH",
"98 150 OFFCURVE",
"102 169 OFFCURVE",
"112 183 CURVE SMOOTH",
"120 194 OFFCURVE",
"133 205 OFFCURVE",
"147 212 CURVE SMOOTH",
"162 219 OFFCURVE",
"182 224 OFFCURVE",
"197 226 CURVE SMOOTH",
"215 228 OFFCURVE",
"233 229 OFFCURVE",
"252 229 CURVE SMOOTH",
"349 229 LINE"
);
}
);
width = 487;
},
{
anchors = (
{
name = bottom;
position = "{204, -10}";
},
{
name = ogonek;
position = "{449, 35}";
},
{
name = top;
position = "{241, 513}";
}
);
layerId = "0CAF3BED-C4AC-4024-B3E1-4C69D1EF7EC0";
paths = (
{
closed = 1;
nodes = (
"455 35 LINE",
"426 61 OFFCURVE",
"413 98 OFFCURVE",
"413 151 CURVE SMOOTH",
"413 351 LINE SMOOTH",
"413 456 OFFCURVE",
"359 519 OFFCURVE",
"245 519 CURVE SMOOTH",
"160 519 OFFCURVE",
"91 486 OFFCURVE",
"49 447 CURVE",
"87 387 LINE",
"132 424 OFFCURVE",
"184 445 OFFCURVE",
"244 445 CURVE SMOOTH",
"313 445 OFFCURVE",
"336 411 OFFCURVE",
"336 340 CURVE SMOOTH",
"336 317 LINE",
"247 317 LINE SMOOTH",
"157 317 OFFCURVE",
"24 292 OFFCURVE",
"24 153 CURVE SMOOTH",
"24 57 OFFCURVE",
"91 -10 OFFCURVE",
"204 -10 CURVE SMOOTH",
"269 -10 OFFCURVE",
"321 11 OFFCURVE",
"353 54 CURVE",
"363 30 OFFCURVE",
"377 8 OFFCURVE",
"407 -12 CURVE"
);
},
{
closed = 1;
nodes = (
"137 64 OFFCURVE",
"103 94 OFFCURVE",
"103 154 CURVE SMOOTH",
"103 233 OFFCURVE",
"171 244 OFFCURVE",
"247 244 CURVE SMOOTH",
"336 244 LINE",
"336 183 LINE SMOOTH",
"336 118 OFFCURVE",
"291 64 OFFCURVE",
"205 64 CURVE SMOOTH"
);
}
);
width = 480;
},
{
anchors = (
{
name = bottom;
position = "{190, -9}";
},
{
name = ogonek;
position = "{421, 20}";
},
{
name = top;
position = "{229, 522}";
}
);
layerId = "49C16FD3-6177-408B-A733-AEB3898BB77C";
paths = (
{
closed = 1;
nodes = (
"271 -9 OFFCURVE",
"325 21 OFFCURVE",
"350 88 CURVE",
"362 49 OFFCURVE",
"370 22 OFFCURVE",
"402 -5 CURVE",
"427 20 LINE",
"402 49 OFFCURVE",
"390 91 OFFCURVE",
"390 141 CURVE SMOOTH",
"390 353 LINE SMOOTH",
"390 456 OFFCURVE",
"344 510 OFFCURVE",
"233 510 CURVE SMOOTH",
"157 510 OFFCURVE",
"97 484 OFFCURVE",
"54 450 CURVE",
"74 419 LINE",
"119 452 OFFCURVE",
"174 471 OFFCURVE",
"232 471 CURVE SMOOTH",
"317 471 OFFCURVE",
"348 424 OFFCURVE",
"348 342 CURVE SMOOTH",
"348 298 LINE",
"236 298 LINE SMOOTH",
"144 298 OFFCURVE",
"22 278 OFFCURVE",
"22 143 CURVE SMOOTH",
"22 50 OFFCURVE",
"81 -9 OFFCURVE",
"190 -9 CURVE SMOOTH"
);
},
{
closed = 1;
nodes = (
"112 30 OFFCURVE",
"66 70 OFFCURVE",
"66 144 CURVE SMOOTH",
"66 249 OFFCURVE",
"148 260 OFFCURVE",
"236 260 CURVE SMOOTH",
"348 260 LINE",
"348 175 LINE SMOOTH",
"348 98 OFFCURVE",
"293 30 OFFCURVE",
"191 30 CURVE SMOOTH"
);
}
);
width = 456;
}
);
leftKerningGroup = a;
rightKerningGroup = a.2;
userData = {
position = 347;
width = 55;
};
},
{
glyphname = ae;
lastChange = "2019-09-06 17:32:29 +0000";
layers = (
{
anchors = (
{
name = top;
position = "{380, 502}";
}
);
layerId = "873CAA12-270D-4223-A88E-AE8E101FDBE8";
paths = (
{
closed = 1;
nodes = (
"231 -10 OFFCURVE",
"273 3 OFFCURVE",
"303 24 CURVE SMOOTH",
"346 54 OFFCURVE",
"354 92 OFFCURVE",
"358 114 CURVE",
"377 65 OFFCURVE",
"400 41 OFFCURVE",
"430 22 CURVE SMOOTH",
"463 1 OFFCURVE",
"498 -10 OFFCURVE",
"554 -10 CURVE SMOOTH",
"592 -10 OFFCURVE",
"622 -5 OFFCURVE",
"656 7 CURVE SMOOTH",
"689 19 OFFCURVE",
"713 31 OFFCURVE",
"738 48 CURVE",
"712 90 LINE",
"689 78 OFFCURVE",
"661 65 OFFCURVE",
"636 56 CURVE SMOOTH",
"608 46 OFFCURVE",
"584 42 OFFCURVE",
"555 42 CURVE SMOOTH",
"499 42 OFFCURVE",
"464 57 OFFCURVE",
"438 82 CURVE SMOOTH",
"408 111 OFFCURVE",
"394 150 OFFCURVE",
"388 200 CURVE",
"506 200 LINE SMOOTH",
"533 200 OFFCURVE",
"564 203 OFFCURVE",
"588 208 CURVE SMOOTH",
"641 219 OFFCURVE",
"684 244 OFFCURVE",
"707 282 CURVE SMOOTH",
"719 302 OFFCURVE",
"726 325 OFFCURVE",
"726 354 CURVE SMOOTH",
"726 402 OFFCURVE",
"706 440 OFFCURVE",
"673 467 CURVE SMOOTH",
"639 495 OFFCURVE",
"592 508 OFFCURVE",
"544 508 CURVE SMOOTH",
"500 508 OFFCURVE",
"471 497 OFFCURVE",
"443 478 CURVE SMOOTH",
"417 460 OFFCURVE",
"394 437 OFFCURVE",
"374 400 CURVE",
"366 432 OFFCURVE",
"351 458 OFFCURVE",
"327 478 CURVE SMOOTH",
"304 497 OFFCURVE",
"276 508 OFFCURVE",
"226 508 CURVE SMOOTH",
"184 508 OFFCURVE",
"156 500 OFFCURVE",
"128 489 CURVE SMOOTH",
"95 476 OFFCURVE",
"71 461 OFFCURVE",
"51 444 CURVE",
"78 402 LINE",
"99 418 OFFCURVE",
"125 432 OFFCURVE",
"146 440 CURVE SMOOTH",
"164 447 OFFCURVE",
"197 456 OFFCURVE",
"229 456 CURVE SMOOTH",
"258 456 OFFCURVE",
"285 449 OFFCURVE",
"304 428 CURVE SMOOTH",
"322 408 OFFCURVE",
"330 380 OFFCURVE",
"330 336 CURVE SMOOTH",
"330 280 LINE",
"233 280 LINE SMOOTH",
"171 280 OFFCURVE",
"78 265 OFFCURVE",
"40 203 CURVE SMOOTH",
"30 187 OFFCURVE",
"22 164 OFFCURVE",
"22 131 CURVE SMOOTH",
"22 84 OFFCURVE",
"39 49 OFFCURVE",
"67 26 CURVE SMOOTH",
"96 2 OFFCURVE",
"139 -10 OFFCURVE",
"184 -10 CURVE SMOOTH"
);
},
{
closed = 1;
nodes = (
"131 42 OFFCURVE",
"79 56 OFFCURVE",
"79 129 CURVE SMOOTH",
"79 167 OFFCURVE",
"93 196 OFFCURVE",
"128 212 CURVE SMOOTH",
"156 225 OFFCURVE",
"196 229 OFFCURVE",
"233 229 CURVE SMOOTH",
"330 229 LINE",
"330 177 LINE SMOOTH",
"330 138 OFFCURVE",
"315 101 OFFCURVE",
"287 77 CURVE SMOOTH",
"258 52 OFFCURVE",
"218 42 OFFCURVE",
"178 42 CURVE SMOOTH"
);
},
{
closed = 1;
nodes = (
"385 301 OFFCURVE",
"400 354 OFFCURVE",
"429 395 CURVE SMOOTH",
"454 430 OFFCURVE",
"492 459 OFFCURVE",
"550 459 CURVE SMOOTH",
"610 459 OFFCURVE",
"669 429 OFFCURVE",
"669 355 CURVE SMOOTH",
"669 330 OFFCURVE",
"662 305 OFFCURVE",
"640 286 CURVE SMOOTH",
"609 260 OFFCURVE",
"555 252 OFFCURVE",
"506 252 CURVE SMOOTH",
"385 252 LINE"
);
}
);
width = 762;
},
{
anchors = (
{
name = top;
position = "{382, 498}";
}
);
layerId = "0CAF3BED-C4AC-4024-B3E1-4C69D1EF7EC0";
paths = (
{
closed = 1;
nodes = (
"239 -10 OFFCURVE",
"283 3 OFFCURVE",
"314 25 CURVE SMOOTH",
"342 44 OFFCURVE",
"356 68 OFFCURVE",
"364 87 CURVE",
"381 57 OFFCURVE",
"401 38 OFFCURVE",
"424 23 CURVE SMOOTH",
"458 1 OFFCURVE",
"495 -10 OFFCURVE",
"551 -10 CURVE SMOOTH",
"589 -10 OFFCURVE",
"620 -5 OFFCURVE",
"654 7 CURVE SMOOTH",
"690 20 OFFCURVE",
"717 34 OFFCURVE",
"745 54 CURVE",
"708 114 LINE",
"685 101 OFFCURVE",
"654 86 OFFCURVE",
"626 76 CURVE SMOOTH",
"600 67 OFFCURVE",
"579 64 OFFCURVE",
"552 64 CURVE SMOOTH",
"500 64 OFFCURVE",
"470 76 OFFCURVE",
"446 99 CURVE SMOOTH",
"422 123 OFFCURVE",
"409 153 OFFCURVE",
"403 193 CURVE",
"504 193 LINE SMOOTH",
"531 193 OFFCURVE",
"562 197 OFFCURVE",
"586 201 CURVE",
"639 213 OFFCURVE",
"685 239 OFFCURVE",
"709 279 CURVE",
"722 299 OFFCURVE",
"729 325 OFFCURVE",
"729 355 CURVE SMOOTH",
"729 404 OFFCURVE",
"707 445 OFFCURVE",
"674 473 CURVE SMOOTH",
"639 502 OFFCURVE",
"589 516 OFFCURVE",
"541 516 CURVE SMOOTH",
"496 516 OFFCURVE",
"465 504 OFFCURVE",
"437 484 CURVE SMOOTH",
"416 470 OFFCURVE",
"397 452 OFFCURVE",
"379 427 CURVE",
"370 449 OFFCURVE",
"356 468 OFFCURVE",
"338 484 CURVE",
"314 503 OFFCURVE",
"283 516 OFFCURVE",
"233 516 CURVE SMOOTH",
"190 516 OFFCURVE",
"161 507 OFFCURVE",
"133 496 CURVE SMOOTH",
"96 482 OFFCURVE",
"69 464 OFFCURVE",
"48 444 CURVE",
"86 384 LINE",
"107 402 OFFCURVE",
"136 418 OFFCURVE",
"159 427 CURVE SMOOTH",
"176 434 OFFCURVE",
"206 442 OFFCURVE",
"236 442 CURVE SMOOTH",
"262 442 OFFCURVE",
"284 436 OFFCURVE",
"300 418 CURVE SMOOTH",
"315 401 OFFCURVE",
"322 378 OFFCURVE",
"322 337 CURVE SMOOTH",
"322 294 LINE",
"239 294 LINE SMOOTH",
"178 294 OFFCURVE",
"82 279 OFFCURVE",
"42 214 CURVE SMOOTH",
"32 198 OFFCURVE",
"23 172 OFFCURVE",
"23 138 CURVE SMOOTH",
"23 90 OFFCURVE",
"42 51 OFFCURVE",
"71 27 CURVE SMOOTH",
"101 3 OFFCURVE",
"147 -10 OFFCURVE",
"192 -10 CURVE SMOOTH"
);
},
{
closed = 1;
nodes = (
"142 64 OFFCURVE",
"102 74 OFFCURVE",
"102 136 CURVE SMOOTH",
"102 170 OFFCURVE",
"112 192 OFFCURVE",
"142 206 CURVE SMOOTH",
"168 218 OFFCURVE",
"204 222 OFFCURVE",
"239 222 CURVE SMOOTH",
"322 222 LINE",
"322 183 LINE SMOOTH",
"322 147 OFFCURVE",
"309 116 OFFCURVE",
"284 95 CURVE SMOOTH",
"258 72 OFFCURVE",
"223 64 OFFCURVE",
"186 64 CURVE SMOOTH"
);
},
{
closed = 1;
nodes = (
"401 309 OFFCURVE",
"414 353 OFFCURVE",
"439 388 CURVE SMOOTH",
"462 420 OFFCURVE",
"495 445 OFFCURVE",
"547 445 CURVE SMOOTH",
"600 445 OFFCURVE",
"651 418 OFFCURVE",
"651 355 CURVE SMOOTH",
"651 333 OFFCURVE",
"645 313 OFFCURVE",
"627 297 CURVE",
"599 274 OFFCURVE",
"551 267 OFFCURVE",
"504 267 CURVE SMOOTH",
"399 267 LINE"
);
}
);
width = 767;
},
{
anchors = (
{
name = top;
position = "{372, 506}";
}
);
layerId = "49C16FD3-6177-408B-A733-AEB3898BB77C";
paths = (
{
closed = 1;
nodes = (
"219 -9 OFFCURVE",
"260 4 OFFCURVE",
"289 24 CURVE SMOOTH",
"347 65 OFFCURVE",
"339 119 OFFCURVE",
"348 132 CURVE",
"370 70 OFFCURVE",
"393 44 OFFCURVE",
"427 22 CURVE SMOOTH",
"460 2 OFFCURVE",
"493 -9 OFFCURVE",
"549 -9 CURVE SMOOTH",
"588 -9 OFFCURVE",
"617 -4 OFFCURVE",
"651 8 CURVE SMOOTH",
"682 19 OFFCURVE",
"704 30 OFFCURVE",
"727 45 CURVE",
"708 76 LINE",
"686 65 OFFCURVE",
"659 53 OFFCURVE",
"635 44 CURVE SMOOTH",
"606 34 OFFCURVE",
"581 30 OFFCURVE",
"550 30 CURVE SMOOTH",
"492 30 OFFCURVE",
"454 46 OFFCURVE",
"426 72 CURVE",
"393 105 OFFCURVE",
"378 150 OFFCURVE",
"372 205 CURVE",
"500 205 LINE SMOOTH",
"528 205 OFFCURVE",
"559 208 OFFCURVE",
"583 213 CURVE SMOOTH",
"636 224 OFFCURVE",
"677 248 OFFCURVE",
"699 285 CURVE SMOOTH",
"711 305 OFFCURVE",
"718 327 OFFCURVE",
"718 355 CURVE SMOOTH",
"718 402 OFFCURVE",
"699 438 OFFCURVE",
"666 465 CURVE SMOOTH",
"633 492 OFFCURVE",
"587 505 OFFCURVE",
"539 505 CURVE SMOOTH",
"496 505 OFFCURVE",
"468 495 OFFCURVE",
"440 476 CURVE SMOOTH",
"410 455 OFFCURVE",
"385 428 OFFCURVE",
"363 380 CURVE",
"356 422 OFFCURVE",
"342 453 OFFCURVE",
"313 476 CURVE",
"291 495 OFFCURVE",
"265 505 OFFCURVE",
"215 505 CURVE SMOOTH",
"173 505 OFFCURVE",
"146 497 OFFCURVE",
"118 486 CURVE SMOOTH",
"87 474 OFFCURVE",
"65 461 OFFCURVE",
"46 445 CURVE",
"66 414 LINE",
"86 429 OFFCURVE",
"111 442 OFFCURVE",
"131 449 CURVE",
"149 457 OFFCURVE",
"184 466 OFFCURVE",
"218 466 CURVE SMOOTH",
"248 466 OFFCURVE",
"279 458 OFFCURVE",
"300 435 CURVE SMOOTH",
"319 414 OFFCURVE",
"328 383 OFFCURVE",
"328 337 CURVE SMOOTH",
"328 272 LINE",
"222 272 LINE SMOOTH",
"159 272 OFFCURVE",
"68 258 OFFCURVE",
"31 197 CURVE",
"21 182 OFFCURVE",
"14 160 OFFCURVE",
"14 128 CURVE SMOOTH",
"14 81 OFFCURVE",
"30 48 OFFCURVE",
"57 26 CURVE SMOOTH",
"86 2 OFFCURVE",
"127 -9 OFFCURVE",
"172 -9 CURVE SMOOTH"
);
},
{
closed = 1;
nodes = (
"117 30 OFFCURVE",
"58 46 OFFCURVE",
"58 126 CURVE SMOOTH",
"58 166 OFFCURVE",
"74 199 OFFCURVE",
"112 217 CURVE SMOOTH",
"142 230 OFFCURVE",
"184 235 OFFCURVE",
"222 235 CURVE SMOOTH",
"328 235 LINE",
"328 175 LINE SMOOTH",
"328 133 OFFCURVE",
"312 93 OFFCURVE",
"282 67 CURVE SMOOTH",
"251 41 OFFCURVE",
"208 30 OFFCURVE",
"166 30 CURVE SMOOTH"
);
},
{
closed = 1;
nodes = (
"368 297 OFFCURVE",
"384 356 OFFCURVE",
"416 401 CURVE SMOOTH",
"442 438 OFFCURVE",
"484 469 OFFCURVE",
"545 469 CURVE SMOOTH",
"608 469 OFFCURVE",
"674 436 OFFCURVE",
"674 356 CURVE SMOOTH",
"674 330 OFFCURVE",
"666 301 OFFCURVE",
"642 280 CURVE SMOOTH",
"609 252 OFFCURVE",
"551 244 OFFCURVE",
"500 244 CURVE SMOOTH",
"370 244 LINE"
);
}
);
width = 746;
}
);
leftKerningGroup = o;
rightKerningGroup = c;
unicode = 00E6;
userData = {
position = 687;
width = 57;
};
},
{
glyphname = b;
lastChange = "2019-09-06 17:32:29 +0000";
layers = (
{
layerId = "873CAA12-270D-4223-A88E-AE8E101FDBE8";
paths = (
{
closed = 1;
nodes = (
"415 -10 OFFCURVE",
"485 110 OFFCURVE",
"485 249 CURVE SMOOTH",
"485 401 OFFCURVE",
"402 508 OFFCURVE",
"274 508 CURVE SMOOTH",
"216 508 OFFCURVE",
"157 486 OFFCURVE",
"122 433 CURVE",
"122 726 LINE",
"67 726 LINE",
"67 10 LINE",
"86 4 OFFCURVE",
"120 -2 OFFCURVE",
"136 -4 CURVE SMOOTH",
"167 -8 OFFCURVE",
"209 -10 OFFCURVE",
"233 -10 CURVE SMOOTH"
);
},
{
closed = 1;
nodes = (
"217 42 OFFCURVE",
"194 43 OFFCURVE",
"175 46 CURVE SMOOTH",
"122 51 LINE",
"122 328 LINE",
"125 366 OFFCURVE",
"141 398 OFFCURVE",
"176 424 CURVE SMOOTH",
"203 444 OFFCURVE",
"237 456 OFFCURVE",
"271 456 CURVE SMOOTH",
"357 456 OFFCURVE",
"428 382 OFFCURVE",
"428 248 CURVE SMOOTH",
"428 140 OFFCURVE",
"382 42 OFFCURVE",
"232 42 CURVE SMOOTH"
);
}
);
width = 515;
},
{
layerId = "0CAF3BED-C4AC-4024-B3E1-4C69D1EF7EC0";
paths = (
{
closed = 1;
nodes = (
"422 -10 OFFCURVE",
"494 115 OFFCURVE",
"494 253 CURVE SMOOTH",
"494 404 OFFCURVE",
"408 516 OFFCURVE",
"278 516 CURVE SMOOTH",
"230 516 OFFCURVE",
"179 500 OFFCURVE",
"142 464 CURVE",
"142 727 LINE",
"66 727 LINE",
"66 13 LINE",
"81 6 OFFCURVE",
"124 -2 OFFCURVE",
"143 -4 CURVE SMOOTH",
"173 -8 OFFCURVE",
"215 -10 OFFCURVE",
"238 -10 CURVE SMOOTH"
);
},
{
closed = 1;
nodes = (
"223 63 OFFCURVE",
"202 64 OFFCURVE",
"183 67 CURVE",
"142 71 LINE",
"142 328 LINE",
"145 363 OFFCURVE",
"158 389 OFFCURVE",
"190 413 CURVE SMOOTH",
"215 431 OFFCURVE",
"244 442 OFFCURVE",
"275 442 CURVE SMOOTH",
"352 442 OFFCURVE",
"416 375 OFFCURVE",
"416 252 CURVE SMOOTH",
"416 151 OFFCURVE",
"374 64 OFFCURVE",
"237 64 CURVE"
);
}
);
width = 523;
},
{
layerId = "49C16FD3-6177-408B-A733-AEB3898BB77C";
paths = (
{
closed = 1;
nodes = (
"411 -9 OFFCURVE",
"479 108 OFFCURVE",
"479 248 CURVE SMOOTH",
"479 401 OFFCURVE",
"398 505 OFFCURVE",
"271 505 CURVE SMOOTH",
"205 505 OFFCURVE",
"141 477 OFFCURVE",
"109 408 CURVE",
"109 727 LINE",
"67 727 LINE",
"67 10 LINE",
"87 4 OFFCURVE",
"117 -1 OFFCURVE",
"131 -3 CURVE SMOOTH",
"163 -7 OFFCURVE",
"205 -9 OFFCURVE",
"229 -9 CURVE SMOOTH"
);
},
{
closed = 1;
nodes = (
"213 30 OFFCURVE",
"189 31 OFFCURVE",
"169 33 CURVE SMOOTH",
"109 40 LINE",
"109 329 LINE",
"112 369 OFFCURVE",
"130 405 OFFCURVE",
"167 432 CURVE SMOOTH",
"195 453 OFFCURVE",
"232 466 OFFCURVE",
"268 466 CURVE SMOOTH",
"361 466 OFFCURVE",
"435 389 OFFCURVE",
"435 247 CURVE SMOOTH",
"435 135 OFFCURVE",
"386 30 OFFCURVE",
"228 30 CURVE SMOOTH"
);
}
);
width = 503;
}
);
rightKerningGroup = o;
unicode = 0062;
userData = {
position = 415;
width = 57;
};
},
{
glyphname = c;
lastChange = "2019-09-06 17:32:29 +0000";
layers = (
{
anchors = (
{
name = bottom;
position = "{249, 0}";
},
{
name = top;
position = "{247, 500}";
}
);
layerId = "873CAA12-270D-4223-A88E-AE8E101FDBE8";
paths = (
{
closed = 1;
nodes = (
"320 -6 OFFCURVE",
"381 12 OFFCURVE",
"440 52 CURVE",
"414 94 LINE",
"364 68 OFFCURVE",
"315 46 OFFCURVE",
"256 46 CURVE SMOOTH",
"149 46 OFFCURVE",
"86 117 OFFCURVE",
"86 237 CURVE SMOOTH",
"86 342 OFFCURVE",
"134 463 OFFCURVE",
"252 463 CURVE SMOOTH",
"314 463 OFFCURVE",
"371 429 OFFCURVE",
"371 360 CURVE",
"428 360 LINE",
"428 454 OFFCURVE",
"342 512 OFFCURVE",
"248 512 CURVE SMOOTH",
"112 512 OFFCURVE",
"30 391 OFFCURVE",
"30 238 CURVE SMOOTH",
"30 92 OFFCURVE",
"105 -6 OFFCURVE",
"256 -6 CURVE SMOOTH"
);
}
);
width = 457;
},
{
anchors = (
{
name = bottom;
position = "{254, 11}";
},
{
name = top;
position = "{252, 496}";
}
);
layerId = "0CAF3BED-C4AC-4024-B3E1-4C69D1EF7EC0";
paths = (
{
closed = 1;
nodes = (
"328 -6 OFFCURVE",
"394 14 OFFCURVE",
"455 58 CURVE",
"418 118 LINE",
"367 90 OFFCURVE",
"319 67 OFFCURVE",
"261 67 CURVE SMOOTH",
"164 67 OFFCURVE",
"108 131 OFFCURVE",
"108 241 CURVE SMOOTH",
"108 339 OFFCURVE",
"153 449 OFFCURVE",
"257 449 CURVE SMOOTH",
"316 449 OFFCURVE",
"367 415 OFFCURVE",
"360 349 CURVE",
"439 349 LINE",
"447 453 OFFCURVE",
"352 519 OFFCURVE",
"253 519 CURVE SMOOTH",
"115 519 OFFCURVE",
"30 394 OFFCURVE",
"30 242 CURVE SMOOTH",
"30 96 OFFCURVE",
"109 -6 OFFCURVE",
"261 -6 CURVE SMOOTH"
);
}
);
width = 473;
},
{
anchors = (
{
name = bottom;
position = "{241, -6}";
},
{
name = top;
position = "{239, 504}";
}
);
layerId = "49C16FD3-6177-408B-A733-AEB3898BB77C";
paths = (
{
closed = 1;
nodes = (
"311 -5 OFFCURVE",
"369 12 OFFCURVE",
"426 49 CURVE",
"407 80 LINE",
"358 55 OFFCURVE",
"308 34 OFFCURVE",
"248 34 CURVE SMOOTH",
"136 34 OFFCURVE",
"68 111 OFFCURVE",
"68 236 CURVE SMOOTH",
"68 344 OFFCURVE",
"119 473 OFFCURVE",
"244 473 CURVE SMOOTH",
"307 473 OFFCURVE",
"369 438 OFFCURVE",
"373 368 CURVE",
"416 368 LINE",
"412 456 OFFCURVE",
"331 509 OFFCURVE",
"240 509 CURVE SMOOTH",
"105 509 OFFCURVE",
"25 391 OFFCURVE",
"25 237 CURVE SMOOTH",
"25 90 OFFCURVE",
"98 -5 OFFCURVE",
"248 -5 CURVE SMOOTH"
);
}
);
width = 436;
}
);
leftKerningGroup = o;
rightKerningGroup = c;
unicode = 0063;
userData = {
position = 382;
width = 57;
};
},
{
glyphname = c.ss02;
lastChange = "2019-09-06 17:32:29 +0000";
layers = (
{
anchors = (
{
name = bottom;
position = "{250, 0}";
},
{
name = top;
position = "{248, 500}";
}
);
layerId = "873CAA12-270D-4223-A88E-AE8E101FDBE8";
paths = (
{
closed = 1;
nodes = (
"321 -7 OFFCURVE",
"390 17 OFFCURVE",
"441 52 CURVE",
"415 94 LINE",
"368 69 OFFCURVE",
"317 46 OFFCURVE",
"257 46 CURVE SMOOTH",
"149 46 OFFCURVE",
"87 121 OFFCURVE",
"87 240 CURVE SMOOTH",
"87 345 OFFCURVE",
"136 463 OFFCURVE",
"260 463 CURVE SMOOTH",
"308 463 OFFCURVE",
"339 445 OFFCURVE",
"368 416 CURVE",
"406 452 LINE",
"389 467 OFFCURVE",
"349 513 OFFCURVE",
"260 513 CURVE SMOOTH",
"115 513 OFFCURVE",
"30 394 OFFCURVE",
"30 243 CURVE SMOOTH",
"30 96 OFFCURVE",
"110 -7 OFFCURVE",
"252 -7 CURVE SMOOTH"
);
}
);
width = 449;
},
{
anchors = (
{
name = bottom;
position = "{254, 11}";
},
{
name = top;
position = "{252, 496}";
}
);
layerId = "0CAF3BED-C4AC-4024-B3E1-4C69D1EF7EC0";
paths = (
{
closed = 1;
nodes = (
"329 -7 OFFCURVE",
"404 20 OFFCURVE",
"455 58 CURVE",
"418 118 LINE",
"370 92 OFFCURVE",
"321 67 OFFCURVE",
"261 67 CURVE SMOOTH",
"164 67 OFFCURVE",
"108 135 OFFCURVE",
"108 244 CURVE SMOOTH",
"108 341 OFFCURVE",
"153 449 OFFCURVE",
"264 449 CURVE SMOOTH",
"312 449 OFFCURVE",
"338 430 OFFCURVE",
"368 398 CURVE",
"414 441 LINE",
"413 458 LINE",
"397 472 OFFCURVE",
"356 520 OFFCURVE",
"264 520 CURVE SMOOTH",
"117 520 OFFCURVE",
"29 397 OFFCURVE",
"29 247 CURVE SMOOTH",
"29 100 OFFCURVE",
"113 -7 OFFCURVE",
"256 -7 CURVE SMOOTH"
);
}
);
width = 463;
},
{
anchors = (
{
name = bottom;
position = "{241, -6}";
},
{
name = top;
position = "{239, 504}";
}
);
layerId = "49C16FD3-6177-408B-A733-AEB3898BB77C";
paths = (
{
closed = 1;
nodes = (
"310 -6 OFFCURVE",
"376 16 OFFCURVE",
"426 49 CURVE",
"407 80 LINE",
"360 56 OFFCURVE",
"309 34 OFFCURVE",
"248 34 CURVE SMOOTH",
"135 34 OFFCURVE",
"68 115 OFFCURVE",
"68 239 CURVE SMOOTH",
"68 347 OFFCURVE",
"120 473 OFFCURVE",
"251 473 CURVE SMOOTH",
"300 473 OFFCURVE",
"333 456 OFFCURVE",
"362 428 CURVE",
"390 455 LINE",
"370 474 OFFCURVE",
"330 510 OFFCURVE",
"251 510 CURVE SMOOTH",
"107 510 OFFCURVE",
"24 394 OFFCURVE",
"24 242 CURVE SMOOTH",
"24 94 OFFCURVE",
"102 -6 OFFCURVE",
"243 -6 CURVE SMOOTH"
);
}
);
width = 423;
}
);
leftKerningGroup = o;
rightKerningGroup = c;
userData = {
position = 382;
width = 57;
};
},
{
glyphname = d;
lastChange = "2019-09-06 17:32:29 +0000";
layers = (
{
anchors = (
{
name = center;
position = "{296, 0}";
}
);
layerId = "873CAA12-270D-4223-A88E-AE8E101FDBE8";
paths = (
{
closed = 1;
nodes = (
"308 -10 OFFCURVE",
"363 14 OFFCURVE",
"395 68 CURVE",
"401 24 OFFCURVE",
"439 -10 OFFCURVE",
"485 -10 CURVE SMOOTH",
"511 -10 OFFCURVE",
"540 1 OFFCURVE",
"558 30 CURVE",
"513 61 LINE",
"506 50 OFFCURVE",
"496 45 OFFCURVE",
"485 45 CURVE SMOOTH",
"465 45 OFFCURVE",
"449 62 OFFCURVE",
"449 80 CURVE SMOOTH",
"449 727 LINE",
"394 727 LINE",
"394 499 LINE",
"358 504 OFFCURVE",
"304 508 OFFCURVE",
"274 508 CURVE SMOOTH",
"121 508 OFFCURVE",
"30 399 OFFCURVE",
"30 246 CURVE SMOOTH",
"30 108 OFFCURVE",
"104 -10 OFFCURVE",
"245 -10 CURVE SMOOTH"
);
},
{
closed = 1;
nodes = (
"139 42 OFFCURVE",
"87 139 OFFCURVE",
"87 253 CURVE SMOOTH",
"87 369 OFFCURVE",
"140 456 OFFCURVE",
"295 456 CURVE SMOOTH",
"342 456 OFFCURVE",
"373 448 OFFCURVE",
"394 446 CURVE",
"394 188 LINE SMOOTH",
"394 163 OFFCURVE",
"389 142 OFFCURVE",
"380 124 CURVE SMOOTH",
"355 73 OFFCURVE",
"305 42 OFFCURVE",
"245 42 CURVE SMOOTH"
);
}
);
width = 561;
},
{
anchors = (
{
name = center;
position = "{300, 11}";
}
);
layerId = "0CAF3BED-C4AC-4024-B3E1-4C69D1EF7EC0";
paths = (
{
closed = 1;
nodes = (
"305 -10 OFFCURVE",
"357 9 OFFCURVE",
"391 51 CURVE",
"407 16 OFFCURVE",
"443 -10 OFFCURVE",
"483 -10 CURVE SMOOTH",
"513 -10 OFFCURVE",
"551 5 OFFCURVE",
"569 44 CURVE",
"506 87 LINE",
"498 70 OFFCURVE",
"494 66 OFFCURVE",
"483 66 CURVE SMOOTH",
"471 66 OFFCURVE",
"460 78 OFFCURVE",
"460 89 CURVE SMOOTH",
"460 728 LINE",
"383 728 LINE",
"383 508 LINE",
"349 512 OFFCURVE",
"304 516 OFFCURVE",
"278 516 CURVE SMOOTH",
"125 516 OFFCURVE",
"30 402 OFFCURVE",
"30 250 CURVE SMOOTH",
"30 113 OFFCURVE",
"107 -10 OFFCURVE",
"250 -10 CURVE SMOOTH"
);
},
{
closed = 1;
nodes = (
"156 64 OFFCURVE",
"109 151 OFFCURVE",
"109 257 CURVE SMOOTH",
"109 364 OFFCURVE",
"157 442 OFFCURVE",
"299 442 CURVE SMOOTH",
"336 442 OFFCURVE",
"363 436 OFFCURVE",
"383 433 CURVE",
"383 193 LINE SMOOTH",
"383 171 OFFCURVE",
"379 153 OFFCURVE",
"371 137 CURVE SMOOTH",
"348 90 OFFCURVE",
"305 63 OFFCURVE",
"250 64 CURVE SMOOTH"
);
}
);
width = 573;
},
{
anchors = (
{
name = center;
position = "{289, -6}";
}
);
layerId = "49C16FD3-6177-408B-A733-AEB3898BB77C";
paths = (
{
closed = 1;
nodes = (
"310 -9 OFFCURVE",
"370 22 OFFCURVE",
"398 96 CURVE",
"397 90 OFFCURVE",
"396 83 OFFCURVE",
"396 77 CURVE SMOOTH",
"396 29 OFFCURVE",
"433 -9 OFFCURVE",
"482 -9 CURVE SMOOTH",
"505 -9 OFFCURVE",
"529 -1 OFFCURVE",
"547 23 CURVE",
"512 46 LINE",
"504 37 OFFCURVE",
"493 33 OFFCURVE",
"482 33 CURVE SMOOTH",
"458 33 OFFCURVE",
"438 54 OFFCURVE",
"438 76 CURVE SMOOTH",
"438 728 LINE",
"396 728 LINE",
"396 495 LINE",
"360 500 OFFCURVE",
"299 505 OFFCURVE",
"267 505 CURVE SMOOTH",
"114 505 OFFCURVE",
"25 398 OFFCURVE",
"25 245 CURVE SMOOTH",
"25 106 OFFCURVE",
"97 -9 OFFCURVE",
"237 -9 CURVE SMOOTH"
);
},
{
closed = 1;
nodes = (
"125 30 OFFCURVE",
"69 134 OFFCURVE",
"69 252 CURVE SMOOTH",
"69 372 OFFCURVE",
"126 466 OFFCURVE",
"288 466 CURVE SMOOTH",
"342 466 OFFCURVE",
"376 456 OFFCURVE",
"396 456 CURVE",
"396 186 LINE SMOOTH",
"396 159 OFFCURVE",
"391 136 OFFCURVE",
"381 117 CURVE",
"355 63 OFFCURVE",
"300 30 OFFCURVE",
"237 30 CURVE SMOOTH"
);
}
);
width = 550;
}
);
leftKerningGroup = o;
leftMetricsKey = c;
rightKerningGroup = m;
unicode = 0064;
userData = {
position = 404;
width = 55;
};
},
{
glyphname = d.ss02;
lastChange = "2019-09-06 17:32:29 +0000";
layers = (
{
anchors = (
{
name = bottom;
position = "{242, -10}";
},
{
name = center;
position = "{400, 653}";
},
{
name = top;
position = "{272, 508}";
},
{
name = topright;
position = "{537, 596}";
}
);
layerId = "873CAA12-270D-4223-A88E-AE8E101FDBE8";
paths = (
{
closed = 1;
nodes = (
"304 -10 OFFCURVE",
"368 15 OFFCURVE",
"400 78 CURVE",
"408 44 OFFCURVE",
"424 13 OFFCURVE",
"453 -8 CURVE",
"487 25 LINE",
"461 53 OFFCURVE",
"448 93 OFFCURVE",
"448 144 CURVE SMOOTH",
"448 727 LINE",
"393 727 LINE",
"393 499 LINE",
"357 504 OFFCURVE",
"303 508 OFFCURVE",
"272 508 CURVE SMOOTH",
"117 508 OFFCURVE",
"29 397 OFFCURVE",
"29 246 CURVE SMOOTH",
"29 109 OFFCURVE",
"104 -10 OFFCURVE",
"242 -10 CURVE SMOOTH"
);
},
{
closed = 1;
nodes = (
"140 42 OFFCURVE",
"86 139 OFFCURVE",
"86 249 CURVE SMOOTH",
"86 365 OFFCURVE",
"151 456 OFFCURVE",
"263 456 CURVE SMOOTH",
"291 456 OFFCURVE",
"311 456 OFFCURVE",
"393 446 CURVE",
"393 188 LINE SMOOTH",
"393 163 OFFCURVE",
"388 142 OFFCURVE",
"379 124 CURVE SMOOTH",
"355 75 OFFCURVE",
"306 42 OFFCURVE",
"245 42 CURVE SMOOTH"
);
}
);
width = 521;
},
{
anchors = (
{
name = bottom;
position = "{247, 0}";
},
{
name = center;
position = "{378, 643}";
},
{
name = top;
position = "{253, 515}";
},
{
name = topright;
position = "{502, 538}";
}
);
layerId = "0CAF3BED-C4AC-4024-B3E1-4C69D1EF7EC0";
paths = (
{
closed = 1;
nodes = (
"502 35 LINE",
"473 61 OFFCURVE",
"459 98 OFFCURVE",
"459 151 CURVE SMOOTH",
"459 728 LINE",
"382 728 LINE",
"382 508 LINE",
"348 512 OFFCURVE",
"303 516 OFFCURVE",
"276 516 CURVE SMOOTH",
"121 516 OFFCURVE",
"29 400 OFFCURVE",
"29 250 CURVE SMOOTH",
"29 113 OFFCURVE",
"107 -10 OFFCURVE",
"247 -10 CURVE SMOOTH",
"302 -10 OFFCURVE",
"361 10 OFFCURVE",
"397 59 CURVE",
"408 31 OFFCURVE",
"426 5 OFFCURVE",
"453 -12 CURVE"
);
},
{
closed = 1;
nodes = (
"157 64 OFFCURVE",
"108 151 OFFCURVE",
"108 253 CURVE SMOOTH",
"108 359 OFFCURVE",
"167 442 OFFCURVE",
"268 442 CURVE SMOOTH",
"294 442 OFFCURVE",
"312 442 OFFCURVE",
"382 433 CURVE",
"382 193 LINE SMOOTH",
"382 171 OFFCURVE",
"378 153 OFFCURVE",
"370 137 CURVE SMOOTH",
"348 92 OFFCURVE",
"306 64 OFFCURVE",
"250 64 CURVE SMOOTH"
);
}
);
width = 534;
},
{
anchors = (
{
name = bottom;
position = "{232, 0}";
},
{
name = center;
position = "{394, 650}";
},
{
name = top;
position = "{232, 500}";
},
{
name = topright;
position = "{457, 500}";
}
);
layerId = "49C16FD3-6177-408B-A733-AEB3898BB77C";
paths = (
{
closed = 1;
nodes = (
"301 -9 OFFCURVE",
"368 20 OFFCURVE",
"397 94 CURVE",
"404 55 OFFCURVE",
"418 19 OFFCURVE",
"448 -5 CURVE",
"473 20 LINE",
"449 49 OFFCURVE",
"436 91 OFFCURVE",
"436 141 CURVE SMOOTH",
"436 728 LINE",
"394 728 LINE",
"394 495 LINE",
"358 500 OFFCURVE",
"297 505 OFFCURVE",
"264 505 CURVE SMOOTH",
"109 505 OFFCURVE",
"23 396 OFFCURVE",
"23 245 CURVE SMOOTH",
"23 107 OFFCURVE",
"96 -9 OFFCURVE",
"233 -9 CURVE SMOOTH"
);
},
{
closed = 1;
nodes = (
"125 30 OFFCURVE",
"67 134 OFFCURVE",
"67 248 CURVE SMOOTH",
"67 369 OFFCURVE",
"137 466 OFFCURVE",
"255 466 CURVE SMOOTH",
"284 466 OFFCURVE",
"305 466 OFFCURVE",
"394 455 CURVE",
"394 186 LINE SMOOTH",
"394 159 OFFCURVE",
"389 136 OFFCURVE",
"379 117 CURVE SMOOTH",
"354 66 OFFCURVE",
"301 30 OFFCURVE",
"236 30 CURVE SMOOTH"
);
}
);
width = 510;
}
);
leftKerningGroup = o;
rightKerningGroup = a.2;
userData = {
position = 414;
width = 55;
};
},
{
glyphname = eth;
lastChange = "2019-09-06 17:32:29 +0000";
layers = (
{
layerId = "873CAA12-270D-4223-A88E-AE8E101FDBE8";
paths = (
{
closed = 1;
nodes = (
"413 -10 OFFCURVE",
"496 88 OFFCURVE",
"496 256 CURVE SMOOTH",
"496 323 OFFCURVE",
"483 361 OFFCURVE",
"406 589 CURVE",
"500 619 LINE",
"485 674 LINE",
"387 644 LINE",
"349 748 LINE",
"291 730 LINE",
"331 626 LINE",
"240 596 LINE",
"255 541 LINE",
"350 571 LINE",
"375 497 LINE",
"341 503 OFFCURVE",
"299 508 OFFCURVE",
"268 508 CURVE SMOOTH",
"120 508 OFFCURVE",
"30 395 OFFCURVE",
"30 246 CURVE SMOOTH",
"30 100 OFFCURVE",
"116 -10 OFFCURVE",
"269 -10 CURVE SMOOTH"
);
},
{
closed = 1;
nodes = (
"152 42 OFFCURVE",
"87 126 OFFCURVE",
"87 252 CURVE SMOOTH",
"87 377 OFFCURVE",
"152 455 OFFCURVE",
"289 455 CURVE SMOOTH",
"330 455 OFFCURVE",
"349 448 OFFCURVE",
"394 441 CURVE",
"426 353 OFFCURVE",
"438 298 OFFCURVE",
"438 243 CURVE SMOOTH",
"438 124 OFFCURVE",
"383 42 OFFCURVE",
"268 42 CURVE SMOOTH"
);
}
);
width = 531;
},
{
layerId = "0CAF3BED-C4AC-4024-B3E1-4C69D1EF7EC0";
paths = (
{
closed = 1;
nodes = (
"418 -10 OFFCURVE",
"505 92 OFFCURVE",
"505 259 CURVE SMOOTH",
"505 325 OFFCURVE",
"492 364 OFFCURVE",
"421 575 CURVE",
"512 604 LINE",
"491 680 LINE",
"395 650 LINE",
"358 751 LINE",
"279 727 LINE",
"318 626 LINE",
"231 597 LINE",
"252 521 LINE",
"344 550 LINE",
"359 508 LINE",
"330 512 OFFCURVE",
"297 516 OFFCURVE",
"272 516 CURVE SMOOTH",
"123 516 OFFCURVE",
"30 398 OFFCURVE",
"30 250 CURVE SMOOTH",
"30 104 OFFCURVE",
"119 -10 OFFCURVE",
"273 -10 CURVE SMOOTH"
);
},
{
closed = 1;
nodes = (
"167 64 OFFCURVE",
"108 139 OFFCURVE",
"108 256 CURVE SMOOTH",
"108 371 OFFCURVE",
"167 441 OFFCURVE",
"293 441 CURVE SMOOTH",
"328 441 OFFCURVE",
"346 435 OFFCURVE",
"386 428 CURVE",
"415 348 OFFCURVE",
"426 298 OFFCURVE",
"426 247 CURVE SMOOTH",
"426 137 OFFCURVE",
"376 64 OFFCURVE",
"272 64 CURVE SMOOTH"
);
}
);
width = 539;
},
{
layerId = "49C16FD3-6177-408B-A733-AEB3898BB77C";
paths = (
{
closed = 1;
nodes = (
"405 -9 OFFCURVE",
"486 86 OFFCURVE",
"486 255 CURVE SMOOTH",
"486 323 OFFCURVE",
"473 361 OFFCURVE",
"392 599 CURVE",
"489 630 LINE",
"477 672 LINE",
"378 642 LINE",
"339 748 LINE",
"294 734 LINE",
"334 628 LINE",
"241 597 LINE",
"252 555 LINE",
"349 585 LINE",
"381 492 LINE",
"344 499 OFFCURVE",
"296 505 OFFCURVE",
"261 505 CURVE SMOOTH",
"113 505 OFFCURVE",
"25 394 OFFCURVE",
"25 245 CURVE SMOOTH",
"25 98 OFFCURVE",
"109 -9 OFFCURVE",
"262 -9 CURVE SMOOTH"
);
},
{
closed = 1;
nodes = (
"139 30 OFFCURVE",
"69 120 OFFCURVE",
"69 251 CURVE SMOOTH",
"69 381 OFFCURVE",
"139 465 OFFCURVE",
"282 465 CURVE SMOOTH",
"327 465 OFFCURVE",
"346 457 OFFCURVE",
"395 450 CURVE",
"428 358 OFFCURVE",
"441 300 OFFCURVE",
"441 242 CURVE SMOOTH",
"441 118 OFFCURVE",
"382 30 OFFCURVE",
"261 30 CURVE SMOOTH"
);
}
);
width = 518;
}
);
leftKerningGroup = o;
leftMetricsKey = c;
rightKerningGroup = m;
unicode = 00F0;
userData = {
position = 465;
width = 58;
};
},
{
glyphname = e;
lastChange = "2019-09-06 17:32:29 +0000";
layers = (
{
anchors = (
{
name = bottom;
position = "{253, 0}";
},
{
name = ogonek;
position = "{443, 48}";
},
{
name = top;
position = "{250, 508}";
}
);
layerId = "873CAA12-270D-4223-A88E-AE8E101FDBE8";
paths = (
{
closed = 1;
nodes = (
"329 -10 OFFCURVE",
"391 13 OFFCURVE",
"443 48 CURVE",
"417 90 LINE",
"367 64 OFFCURVE",
"319 42 OFFCURVE",
"257 42 CURVE SMOOTH",
"156 42 OFFCURVE",
"105 99 OFFCURVE",
"93 200 CURVE",
"211 200 LINE SMOOTH",
"344 200 OFFCURVE",
"435 254 OFFCURVE",
"435 354 CURVE SMOOTH",
"435 449 OFFCURVE",
"351 508 OFFCURVE",
"253 508 CURVE SMOOTH",
"96 508 OFFCURVE",
"30 359 OFFCURVE",
"30 230 CURVE SMOOTH",
"30 94 OFFCURVE",
"103 -10 OFFCURVE",
"257 -10 CURVE SMOOTH"
);
},
{
closed = 1;
nodes = (
"90 333 OFFCURVE",
"136 459 OFFCURVE",
"256 459 CURVE SMOOTH",
"317 459 OFFCURVE",
"375 426 OFFCURVE",
"375 355 CURVE SMOOTH",
"375 278 OFFCURVE",
"305 252 OFFCURVE",
"211 252 CURVE SMOOTH",
"90 252 LINE"
);
}
);
width = 467;
},
{
anchors = (
{
name = bottom;
position = "{255, 11}";
},
{
name = ogonek;
position = "{455, 54}";
},
{
name = top;
position = "{252, 504}";
}
);
layerId = "0CAF3BED-C4AC-4024-B3E1-4C69D1EF7EC0";
paths = (
{
closed = 1;
nodes = (
"335 -10 OFFCURVE",
"402 16 OFFCURVE",
"455 54 CURVE",
"418 114 LINE",
"366 86 OFFCURVE",
"320 64 OFFCURVE",
"259 64 CURVE SMOOTH",
"173 64 OFFCURVE",
"127 109 OFFCURVE",
"113 193 CURVE",
"214 193 LINE SMOOTH",
"347 193 OFFCURVE",
"439 251 OFFCURVE",
"439 355 CURVE SMOOTH",
"439 453 OFFCURVE",
"354 514 OFFCURVE",
"255 514 CURVE SMOOTH",
"95 514 OFFCURVE",
"30 362 OFFCURVE",
"30 234 CURVE SMOOTH",
"30 99 OFFCURVE",
"103 -10 OFFCURVE",
"259 -10 CURVE SMOOTH"
);
},
{
closed = 1;
nodes = (
"113 341 OFFCURVE",
"157 445 OFFCURVE",
"258 445 CURVE SMOOTH",
"312 445 OFFCURVE",
"362 416 OFFCURVE",
"362 355 CURVE SMOOTH",
"362 291 OFFCURVE",
"302 267 OFFCURVE",
"214 267 CURVE SMOOTH",
"109 267 LINE"
);
}
);
width = 477;
},
{
anchors = (
{
name = bottom;
position = "{245, -6}";
},
{
name = ogonek;
position = "{429, 45}";
},
{
name = top;
position = "{242, 512}";
}
);
layerId = "49C16FD3-6177-408B-A733-AEB3898BB77C";
paths = (
{
closed = 1;
nodes = (
"319 -9 OFFCURVE",
"378 12 OFFCURVE",
"429 45 CURVE",
"410 76 LINE",
"361 51 OFFCURVE",
"312 30 OFFCURVE",
"249 30 CURVE SMOOTH",
"140 30 OFFCURVE",
"85 95 OFFCURVE",
"74 205 CURVE",
"202 205 LINE SMOOTH",
"336 205 OFFCURVE",
"423 257 OFFCURVE",
"423 355 CURVE SMOOTH",
"423 448 OFFCURVE",
"343 505 OFFCURVE",
"245 505 CURVE SMOOTH",
"90 505 OFFCURVE",
"25 359 OFFCURVE",
"25 229 CURVE SMOOTH",
"25 92 OFFCURVE",
"96 -9 OFFCURVE",
"249 -9 CURVE SMOOTH"
);
},
{
closed = 1;
nodes = (
"69 327 OFFCURVE",
"117 469 OFFCURVE",
"248 469 CURVE SMOOTH",
"312 469 OFFCURVE",
"377 433 OFFCURVE",
"377 356 CURVE SMOOTH",
"377 273 OFFCURVE",
"300 244 OFFCURVE",
"202 244 CURVE SMOOTH",
"72 244 LINE"
);
}
);
width = 448;
}
);
leftKerningGroup = o;
leftMetricsKey = c;
rightKerningGroup = c;
unicode = 0065;
userData = {
position = 382;
width = 57;
};
},
{
glyphname = e.ss02;
lastChange = "2019-09-06 17:32:29 +0000";
layers = (
{
anchors = (
{
name = bottom;
position = "{251, 0}";
},
{
name = ogonek;
position = "{441, 48}";
},
{
name = top;
position = "{248, 508}";
}
);
layerId = "873CAA12-270D-4223-A88E-AE8E101FDBE8";
paths = (
{
closed = 1;
nodes = (
"322 -11 OFFCURVE",
"390 13 OFFCURVE",
"441 48 CURVE",
"415 90 LINE",
"359 61 OFFCURVE",
"315 42 OFFCURVE",
"256 42 CURVE SMOOTH",
"99 42 OFFCURVE",
"90 181 OFFCURVE",
"90 233 CURVE SMOOTH",
"90 383 OFFCURVE",
"163 459 OFFCURVE",
"252 459 CURVE SMOOTH",
"335 459 OFFCURVE",
"401 394 OFFCURVE",
"401 303 CURVE SMOOTH",
"401 284 OFFCURVE",
"398 259 OFFCURVE",
"393 229 CURVE",
"451 229 LINE",
"453 254 OFFCURVE",
"456 277 OFFCURVE",
"456 300 CURVE SMOOTH",
"456 422 OFFCURVE",
"370 508 OFFCURVE",
"253 508 CURVE SMOOTH",
"108 508 OFFCURVE",
"30 377 OFFCURVE",
"30 234 CURVE SMOOTH",
"30 91 OFFCURVE",
"109 -11 OFFCURVE",
"252 -11 CURVE SMOOTH"
);
},
{
closed = 1;
nodes = (
"433 229 LINE",
"433 283 LINE",
"50 283 LINE",
"50 229 LINE"
);
}
);
width = 485;
},
{
anchors = (
{
name = bottom;
position = "{256, 11}";
},
{
name = ogonek;
position = "{456, 55}";
},
{
name = top;
position = "{253, 504}";
}
);
layerId = "0CAF3BED-C4AC-4024-B3E1-4C69D1EF7EC0";
paths = (
{
closed = 1;
nodes = (
"331 -11 OFFCURVE",
"405 16 OFFCURVE",
"456 55 CURVE",
"419 114 LINE",
"361 83 OFFCURVE",
"319 64 OFFCURVE",
"261 64 CURVE SMOOTH",
"120 64 OFFCURVE",
"112 187 OFFCURVE",
"112 237 CURVE SMOOTH",
"112 376 OFFCURVE",
"178 445 OFFCURVE",
"257 445 CURVE SMOOTH",
"331 445 OFFCURVE",
"390 386 OFFCURVE",
"390 305 CURVE SMOOTH",
"390 285 OFFCURVE",
"386 257 OFFCURVE",
"380 222 CURVE",
"461 222 LINE",
"463 250 OFFCURVE",
"467 276 OFFCURVE",
"467 302 CURVE SMOOTH",
"467 425 OFFCURVE",
"376 516 OFFCURVE",
"258 516 CURVE SMOOTH",
"111 516 OFFCURVE",
"30 380 OFFCURVE",
"30 238 CURVE SMOOTH",
"30 95 OFFCURVE",
"113 -11 OFFCURVE",
"257 -11 CURVE SMOOTH"
);
},
{
closed = 1;
nodes = (
"444 222 LINE",
"444 297 LINE",
"50 297 LINE",
"50 222 LINE"
);
}
);
width = 497;
},
{
anchors = (
{
name = bottom;
position = "{244, -10}";
},
{
name = ogonek;
position = "{427, 45}";
},
{
name = top;
position = "{245, 505}";
}
);
layerId = "49C16FD3-6177-408B-A733-AEB3898BB77C";
paths = (
{
closed = 1;
nodes = (
"312 -10 OFFCURVE",
"377 12 OFFCURVE",
"427 45 CURVE",
"408 76 LINE",
"353 48 OFFCURVE",
"308 30 OFFCURVE",
"248 30 CURVE SMOOTH",
"82 30 OFFCURVE",
"72 178 OFFCURVE",
"72 232 CURVE SMOOTH",
"72 388 OFFCURVE",
"150 469 OFFCURVE",
"244 469 CURVE SMOOTH",
"332 469 OFFCURVE",
"403 399 OFFCURVE",
"403 303 CURVE SMOOTH",
"403 285 OFFCURVE",
"401 262 OFFCURVE",
"396 235 CURVE",
"441 235 LINE",
"443 258 OFFCURVE",
"445 279 OFFCURVE",
"445 300 CURVE SMOOTH",
"445 421 OFFCURVE",
"362 505 OFFCURVE",
"245 505 CURVE SMOOTH",
"101 505 OFFCURVE",
"25 377 OFFCURVE",
"25 233 CURVE SMOOTH",
"25 89 OFFCURVE",
"102 -10 OFFCURVE",
"244 -10 CURVE SMOOTH"
);
},
{
closed = 1;
nodes = (
"422 235 LINE",
"422 276 LINE",
"45 276 LINE",
"45 235 LINE"
);
}
);
width = 468;
}
);
leftKerningGroup = o;
leftMetricsKey = c;
rightKerningGroup = c;
userData = {
position = 382;
width = 57;
};
},
{
glyphname = f;
lastChange = "2019-09-06 17:32:29 +0000";
layers = (
{
layerId = "873CAA12-270D-4223-A88E-AE8E101FDBE8";
paths = (
{
closed = 1;
nodes = (
"127 -260 LINE",
"127 200 LINE",
"275 200 LINE",
"275 252 LINE",
"127 252 LINE",
"127 415 LINE",
"175 415 LINE SMOOTH",
"295 415 OFFCURVE",
"375 476 OFFCURVE",
"375 592 CURVE SMOOTH",
"375 688 OFFCURVE",
"321 742 OFFCURVE",
"232 742 CURVE SMOOTH",
"104 742 OFFCURVE",
"72 631 OFFCURVE",
"72 502 CURVE SMOOTH",
"72 -260 LINE"
);
},
{
closed = 1;
nodes = (
"127 505 LINE SMOOTH",
"127 597 OFFCURVE",
"141 690 OFFCURVE",
"230 690 CURVE SMOOTH",
"285 690 OFFCURVE",
"318 655 OFFCURVE",
"318 593 CURVE SMOOTH",
"318 516 OFFCURVE",
"267 467 OFFCURVE",
"175 467 CURVE SMOOTH",
"127 467 LINE"
);
}
);
width = 375;
},
{
layerId = "0CAF3BED-C4AC-4024-B3E1-4C69D1EF7EC0";
paths = (
{
closed = 1;
nodes = (
"148 -253 LINE",
"148 193 LINE",
"292 193 LINE",
"292 267 LINE",
"148 267 LINE",
"148 402 LINE",
"183 402 LINE SMOOTH",
"304 402 OFFCURVE",
"389 467 OFFCURVE",
"389 585 CURVE SMOOTH",
"389 683 OFFCURVE",
"330 743 OFFCURVE",
"239 743 CURVE SMOOTH",
"106 743 OFFCURVE",
"72 625 OFFCURVE",
"72 498 CURVE SMOOTH",
"72 -253 LINE"
);
},
{
closed = 1;
nodes = (
"148 501 LINE SMOOTH",
"148 589 OFFCURVE",
"160 669 OFFCURVE",
"237 669 CURVE SMOOTH",
"283 669 OFFCURVE",
"310 640 OFFCURVE",
"310 586 CURVE SMOOTH",
"310 519 OFFCURVE",
"266 476 OFFCURVE",
"183 476 CURVE SMOOTH",
"148 476 LINE"
);
}
);
width = 392;
},
{
layerId = "49C16FD3-6177-408B-A733-AEB3898BB77C";
paths = (
{
closed = 1;
nodes = (
"114 -264 LINE",
"114 205 LINE",
"265 205 LINE",
"265 244 LINE",
"114 244 LINE",
"114 424 LINE",
"170 424 LINE SMOOTH",
"290 424 OFFCURVE",
"367 483 OFFCURVE",
"367 598 CURVE SMOOTH",
"367 693 OFFCURVE",
"316 744 OFFCURVE",
"228 744 CURVE SMOOTH",
"103 744 OFFCURVE",
"72 637 OFFCURVE",
"72 506 CURVE SMOOTH",
"72 -264 LINE"
);
},
{
closed = 1;
nodes = (
"114 509 LINE SMOOTH",
"114 603 OFFCURVE",
"129 705 OFFCURVE",
"226 705 CURVE SMOOTH",
"285 705 OFFCURVE",
"323 665 OFFCURVE",
"323 599 CURVE SMOOTH",
"323 517 OFFCURVE",
"267 463 OFFCURVE",
"170 463 CURVE SMOOTH",
"114 463 LINE"
);
}
);
width = 350;
}
);
rightKerningGroup = f;
unicode = 0066;
userData = {
position = 298;
width = 57;
};
},
{
glyphname = f.ss02;
lastChange = "2019-09-06 17:32:29 +0000";
layers = (
{
layerId = "873CAA12-270D-4223-A88E-AE8E101FDBE8";
paths = (
{
closed = 1;
nodes = (
"133 0 LINE",
"133 505 LINE SMOOTH",
"133 595 OFFCURVE",
"144 690 OFFCURVE",
"236 690 CURVE SMOOTH",
"266 690 OFFCURVE",
"288 680 OFFCURVE",
"302 663 CURVE",
"345 700 LINE",
"333 713 OFFCURVE",
"315 725 OFFCURVE",
"300 731 CURVE SMOOTH",
"283 738 OFFCURVE",
"257 742 OFFCURVE",
"234 742 CURVE SMOOTH",
"104 742 OFFCURVE",
"78 628 OFFCURVE",
"78 502 CURVE SMOOTH",
"78 0 LINE"
);
},
{
closed = 1;
nodes = (
"281 450 LINE",
"281 502 LINE",
"27 502 LINE",
"27 450 LINE"
);
}
);
width = 290;
},
{
layerId = "0CAF3BED-C4AC-4024-B3E1-4C69D1EF7EC0";
paths = (
{
closed = 1;
nodes = (
"156 -1 LINE",
"156 501 LINE SMOOTH",
"156 588 OFFCURVE",
"165 669 OFFCURVE",
"244 669 CURVE SMOOTH",
"276 669 OFFCURVE",
"294 658 OFFCURVE",
"306 637 CURVE",
"366 689 LINE",
"355 705 OFFCURVE",
"330 723 OFFCURVE",
"311 731 CURVE SMOOTH",
"293 738 OFFCURVE",
"265 743 OFFCURVE",
"242 743 CURVE SMOOTH",
"107 743 OFFCURVE",
"79 622 OFFCURVE",
"79 498 CURVE SMOOTH",
"79 -1 LINE"
);
},
{
closed = 1;
nodes = (
"299 436 LINE",
"299 510 LINE",
"30 510 LINE",
"30 436 LINE"
);
}
);
width = 310;
},
{
layerId = "49C16FD3-6177-408B-A733-AEB3898BB77C";
paths = (
{
closed = 1;
nodes = (
"118 1 LINE",
"118 509 LINE SMOOTH",
"118 601 OFFCURVE",
"130 705 OFFCURVE",
"230 705 CURVE SMOOTH",
"259 705 OFFCURVE",
"283 696 OFFCURVE",
"298 680 CURVE",
"331 708 LINE",
"320 719 OFFCURVE",
"305 728 OFFCURVE",
"293 733 CURVE SMOOTH",
"276 740 OFFCURVE",
"251 744 OFFCURVE",
"228 744 CURVE SMOOTH",
"101 744 OFFCURVE",
"76 634 OFFCURVE",
"76 506 CURVE SMOOTH",
"76 1 LINE"
);
},
{
closed = 1;
nodes = (
"269 460 LINE",
"269 499 LINE",
"24 499 LINE",
"24 460 LINE"
);
}
);
width = 264;
}
);
rightKerningGroup = f;
userData = {
position = 298;
width = 57;
};
},
{
glyphname = g;
lastChange = "2019-09-06 17:32:29 +0000";
layers = (
{
anchors = (
{
name = top;
position = "{268, 509}";
}
);
layerId = "873CAA12-270D-4223-A88E-AE8E101FDBE8";
paths = (
{
closed = 1;
nodes = (
"387 -281 OFFCURVE",
"449 -215 OFFCURVE",
"449 -112 CURVE SMOOTH",
"449 499 LINE",
"396 499 LINE",
"335 506 LINE SMOOTH",
"311 508 OFFCURVE",
"287 509 OFFCURVE",
"273 509 CURVE SMOOTH",
"123 509 OFFCURVE",
"30 387 OFFCURVE",
"30 257 CURVE SMOOTH",
"30 189 OFFCURVE",
"55 84 OFFCURVE",
"129 27 CURVE SMOOTH",
"150 11 OFFCURVE",
"173 0 OFFCURVE",
"198 -6 CURVE",
"168 -36 OFFCURVE",
"152 -78 OFFCURVE",
"152 -122 CURVE SMOOTH",
"152 -198 OFFCURVE",
"199 -281 OFFCURVE",
"298 -281 CURVE SMOOTH"
);
},
{
closed = 1;
nodes = (
"236 -228 OFFCURVE",
"204 -173 OFFCURVE",
"204 -122 CURVE SMOOTH",
"204 -94 OFFCURVE",
"214 -56 OFFCURVE",
"259 -29 CURVE SMOOTH",
"317 6 OFFCURVE",
"332 11 OFFCURVE",
"350 27 CURVE SMOOTH",
"392 64 OFFCURVE",
"388 62 OFFCURVE",
"396 69 CURVE",
"396 -116 LINE",
"392 -178 OFFCURVE",
"367 -228 OFFCURVE",
"303 -228 CURVE SMOOTH"
);
},
{
closed = 1;
nodes = (
"144 42 OFFCURVE",
"83 147 OFFCURVE",
"83 248 CURVE SMOOTH",
"83 352 OFFCURVE",
"148 456 OFFCURVE",
"268 456 CURVE SMOOTH",
"301 456 LINE",
"369 452 LINE",
"396 450 LINE",
"396 179 LINE SMOOTH",
"396 169 OFFCURVE",
"391 153 OFFCURVE",
"384 139 CURVE SMOOTH",
"364 99 OFFCURVE",
"321 67 OFFCURVE",
"293 54 CURVE SMOOTH",
"276 46 OFFCURVE",
"257 42 OFFCURVE",
"239 42 CURVE SMOOTH"
);
}
);
width = 519;
},
{
anchors = (
{
name = top;
position = "{273, 505}";
}
);
layerId = "0CAF3BED-C4AC-4024-B3E1-4C69D1EF7EC0";
paths = (
{
closed = 1;
nodes = (
"393 -273 OFFCURVE",
"460 -202 OFFCURVE",
"460 -98 CURVE SMOOTH",
"460 507 LINE",
"397 507 LINE",
"339 514 LINE",
"315 515 OFFCURVE",
"291 516 OFFCURVE",
"277 516 CURVE SMOOTH",
"126 516 OFFCURVE",
"30 390 OFFCURVE",
"30 260 CURVE SMOOTH",
"30 193 OFFCURVE",
"56 86 OFFCURVE",
"131 28 CURVE SMOOTH",
"147 16 OFFCURVE",
"165 6 OFFCURVE",
"184 -1 CURVE",
"161 -30 OFFCURVE",
"148 -69 OFFCURVE",
"148 -107 CURVE SMOOTH",
"148 -184 OFFCURVE",
"199 -273 OFFCURVE",
"302 -273 CURVE SMOOTH"
);
},
{
closed = 1;
nodes = (
"250 -198 OFFCURVE",
"222 -152 OFFCURVE",
"222 -107 CURVE SMOOTH",
"222 -82 OFFCURVE",
"230 -51 OFFCURVE",
"270 -27 CURVE SMOOTH",
"325 6 OFFCURVE",
"341 12 OFFCURVE",
"360 29 CURVE SMOOTH",
"369 37 OFFCURVE",
"378 44 OFFCURVE",
"385 51 CURVE",
"385 -101 LINE",
"382 -156 OFFCURVE",
"359 -198 OFFCURVE",
"307 -198 CURVE SMOOTH"
);
},
{
closed = 1;
nodes = (
"161 64 OFFCURVE",
"105 159 OFFCURVE",
"105 252 CURVE SMOOTH",
"105 347 OFFCURVE",
"165 442 OFFCURVE",
"273 442 CURVE SMOOTH",
"304 442 LINE",
"385 437 LINE",
"385 185 LINE SMOOTH",
"385 177 OFFCURVE",
"381 164 OFFCURVE",
"375 151 CURVE SMOOTH",
"357 115 OFFCURVE",
"318 86 OFFCURVE",
"292 74 CURVE SMOOTH",
"277 67 OFFCURVE",
"261 64 OFFCURVE",
"245 64 CURVE SMOOTH"
);
}
);
width = 530;
},
{
anchors = (
{
name = top;
position = "{261, 513}";
}
);
layerId = "49C16FD3-6177-408B-A733-AEB3898BB77C";
paths = (
{
closed = 1;
nodes = (
"379 -286 OFFCURVE",
"438 -222 OFFCURVE",
"438 -120 CURVE SMOOTH",
"438 496 LINE",
"390 496 LINE",
"328 503 LINE SMOOTH",
"304 505 OFFCURVE",
"280 506 OFFCURVE",
"266 506 CURVE SMOOTH",
"116 506 OFFCURVE",
"25 386 OFFCURVE",
"25 257 CURVE SMOOTH",
"25 191 OFFCURVE",
"49 84 OFFCURVE",
"123 27 CURVE SMOOTH",
"148 8 OFFCURVE",
"174 -3 OFFCURVE",
"204 -8 CURVE",
"168 -38 OFFCURVE",
"149 -82 OFFCURVE",
"149 -131 CURVE SMOOTH",
"149 -206 OFFCURVE",
"194 -286 OFFCURVE",
"291 -286 CURVE SMOOTH"
);
},
{
closed = 1;
nodes = (
"224 -246 OFFCURVE",
"188 -185 OFFCURVE",
"188 -129 CURVE SMOOTH",
"188 -79 OFFCURVE",
"216 -51 OFFCURVE",
"248 -29 CURVE SMOOTH",
"262 -19 OFFCURVE",
"319 9 OFFCURVE",
"339 27 CURVE",
"340 27 OFFCURVE",
"374 60 OFFCURVE",
"398 80 CURVE",
"398 -124 LINE",
"394 -189 OFFCURVE",
"366 -246 OFFCURVE",
"296 -246 CURVE SMOOTH"
);
},
{
closed = 1;
nodes = (
"130 30 OFFCURVE",
"65 141 OFFCURVE",
"65 247 CURVE SMOOTH",
"65 355 OFFCURVE",
"134 466 OFFCURVE",
"261 466 CURVE SMOOTH",
"294 466 LINE",
"398 460 LINE",
"398 177 LINE SMOOTH",
"398 165 OFFCURVE",
"393 147 OFFCURVE",
"385 133 CURVE",
"362 87 OFFCURVE",
"317 56 OFFCURVE",
"289 43 CURVE SMOOTH",
"270 34 OFFCURVE",
"251 30 OFFCURVE",
"232 30 CURVE SMOOTH"
);
}
);
width = 508;
}
);
leftKerningGroup = o;
leftMetricsKey = c;
rightKerningGroup = j;
unicode = 0067;
userData = {
position = 405;
width = 53;
};
},
